<svg xmlns="http://www.w3.org/2000/svg" viewBox="0 0 89.04 87.75"><defs><style>.cls-1,.cls-3{fill:none;}.cls-1,.cls-2{opacity:0.37;}.cls-2{fill:#cc2929;}</style></defs><title>Asset 2</title><g id="Layer_2" data-name="Layer 2"><g id="Layer_1-2" data-name="Layer 1"><path class="cls-1" d="M29.9,13.89a9.65,9.65,0,0,0-3.1-2.57"/><path class="cls-1" d="M14.92,36.36c-2-1.18-4.81-1-7.43.15"/><line class="cls-1" x1="13.58" y1="67.37" x2="13.57" y2="67.38"/><line class="cls-1" x1="13.58" y1="67.37" x2="13.57" y2="67.38"/><line class="cls-1" x1="74.38" y1="66.57" x2="74.37" y2="66.55"/><line class="cls-1" x1="74.38" y1="66.57" x2="74.37" y2="66.55"/><path class="cls-1" d="M79.2,35.37a7.41,7.41,0,0,0-5.87,1"/><path class="cls-1" d="M82.31,51.33a1.82,1.82,0,0,0,.17.7"/><path class="cls-1" d="M61.49,10.27a5.86,5.86,0,0,1-.14.63"/><path class="cls-1" d="M29.9,13.89a9.65,9.65,0,0,0-3.1-2.57"/><path class="cls-1" d="M14.92,36.36c-2-1.18-4.81-1-7.43.15"/><line class="cls-1" x1="13.58" y1="67.37" x2="13.57" y2="67.38"/><line class="cls-1" x1="13.58" y1="67.37" x2="13.57" y2="67.38"/><line class="cls-1" x1="74.38" y1="66.57" x2="74.37" y2="66.55"/><line class="cls-1" x1="74.38" y1="66.57" x2="74.37" y2="66.55"/><path class="cls-1" d="M79.2,35.37a7.41,7.41,0,0,0-5.87,1"/><path class="cls-1" d="M82.31,51.33a1.82,1.82,0,0,0,.17.7"/><path class="cls-1" d="M61.49,10.27a5.86,5.86,0,0,1-.14.63"/><path class="cls-1" d="M29.9,13.89a9.65,9.65,0,0,0-3.1-2.57"/><path class="cls-1" d="M14.92,36.36c-2-1.18-4.81-1-7.43.15"/><line class="cls-1" x1="13.58" y1="67.37" x2="13.57" y2="67.38"/><line class="cls-1" x1="13.58" y1="67.37" x2="13.57" y2="67.38"/><line class="cls-1" x1="74.38" y1="66.57" x2="74.37" y2="66.55"/><line class="cls-1" x1="74.38" y1="66.57" x2="74.37" y2="66.55"/><path class="cls-2" d="M83.81,52.83a1.39,1.39,0,0,1-1-.39c-.09-.14-.18-.28-.28-.41a1.2,1.2,0,0,0,.28.41c2.36,3.8,1.79,10.51-.45,13.87-2.39,3.58-4.78,2.4-7.93.26,1.83,2.62,2.37,7.34.45,10.23-3,4.49-10.49,10.48-18,10.48s-13.47-6-13.47-6,.27,2.11-6,4.49c-6,2.28-9.53,1.93-13.47,0-4.86-2.37-4.5-3-9-7.49-4-4-4.43-8-1.35-10.91a21.89,21.89,0,0,1-4.64.43c-5.78,0-7.38-11.15-3.44-16-9.18-5.31-4.14-12.72,2-15.32l-.06-.15s-6-15,7.49-13.48c-3.82-10.19,5.37-15,11.88-11.56h0S25.4.41,34.39.41s9,6,9,6,0-6,10.48-6c8.92,0,8.08,7.6,7.63,9.86,3.79-2.74,8.84.63,8.84.63a10.26,10.26,0,0,1,3,12c4.49-3,9,4.49,9,7.49s-3,4.49-3,4.49l-.12.51c4.62,1.17,8,6.74,9.11,10C89.8,49.84,85.31,52.83,83.81,52.83Z"/><path class="cls-1" d="M79.2,35.37a7.41,7.41,0,0,0-5.87,1"/><path class="cls-1" d="M82.31,51.33a1.82,1.82,0,0,0,.17.7"/><path class="cls-1" d="M61.49,10.27a5.86,5.86,0,0,1-.14.63"/></g><g id="Layer_1_copy" data-name="Layer 1 copy"><path d="M29.9,13.89a9.83,9.83,0,0,0-5.53-3.17,8.88,8.88,0,0,0-6.12,1,7.13,7.13,0,0,0-3.56,4.84,11.77,11.77,0,0,0,.68,6.19l.25.73-.75-.09a11.37,11.37,0,0,0-4.73.3,5.17,5.17,0,0,0-3.23,3.08,11,11,0,0,0-.47,4.78,23.87,23.87,0,0,0,1,4.85A20.38,20.38,0,0,1,6,31.56a10.74,10.74,0,0,1,.24-5.06,5.76,5.76,0,0,1,1.35-2.26,6,6,0,0,1,2.24-1.41A12.27,12.27,0,0,1,15,22.4l-.5.64a15.38,15.38,0,0,1-.86-3.28,10.2,10.2,0,0,1,.15-3.44,8,8,0,0,1,4.07-5.38,9.53,9.53,0,0,1,12.06,3Z"/><path d="M14.92,36.36a6.86,6.86,0,0,0-3.65-.53,11,11,0,0,0-3.54,1,13.35,13.35,0,0,0-5.59,4.58A6.91,6.91,0,0,0,1,44.7a5.72,5.72,0,0,0,.85,3.37,9.75,9.75,0,0,0,2.49,2.68,24.06,24.06,0,0,0,3.14,2.08,13,13,0,0,1-6.27-4.35A6.11,6.11,0,0,1,0,44.65,7.71,7.71,0,0,1,1.3,40.86a12.93,12.93,0,0,1,6.14-4.74,11.49,11.49,0,0,1,3.8-.77A6.45,6.45,0,0,1,14.92,36.36Z"/><path d="M5.94,51.33A9.2,9.2,0,0,0,4,55.51a13.83,13.83,0,0,0-.24,4.58A12.43,12.43,0,0,0,5,64.44a5,5,0,0,0,3.1,2.77,9.89,9.89,0,0,0,2.21.08,21.89,21.89,0,0,0,2.29-.21,10,10,0,0,0,4.21-1.49A5.93,5.93,0,0,0,19.2,62a13.52,13.52,0,0,0,.22-4.63,12.37,12.37,0,0,1,.27,4.74,6.62,6.62,0,0,1-2.45,4.17A10.08,10.08,0,0,1,12.72,68a21.7,21.7,0,0,1-2.4.25q-.6,0-1.2,0a5.16,5.16,0,0,1-1.28-.13,5.82,5.82,0,0,1-3.7-3.31A12.16,12.16,0,0,1,3,60.15a14.38,14.38,0,0,1,.53-4.76A8.73,8.73,0,0,1,5.94,51.33Z"/><path d="M25.41,70.8a17.28,17.28,0,0,0-5.91-4.45A4.92,4.92,0,0,0,16,66.11a5.53,5.53,0,0,0-1.51.91,9,9,0,0,0-1.28,1.26A5.49,5.49,0,0,0,12,71.48a6.58,6.58,0,0,0,.87,3.38,12.9,12.9,0,0,0,2.19,2.88c.87.88,1.77,1.78,2.63,2.7a29.26,29.26,0,0,0,2.6,2.62A17.34,17.34,0,0,0,23.37,85a14.56,14.56,0,0,0,7,2,21.13,21.13,0,0,0,7.22-1.5,19.83,19.83,0,0,0,3.39-1.52,9,9,0,0,0,1.5-1.1,2.61,2.61,0,0,0,.94-1.55,2.64,2.64,0,0,1-.84,1.65,8.46,8.46,0,0,1-1.46,1.21,20.62,20.62,0,0,1-3.36,1.75,21.6,21.6,0,0,1-7.37,1.84A14.75,14.75,0,0,1,23,85.82a19.25,19.25,0,0,1-3.28-2A25.71,25.71,0,0,1,17,81.11c-.85-.92-1.7-1.81-2.58-2.71a14,14,0,0,1-2.31-3.12,7.58,7.58,0,0,1-.93-3.84,6,6,0,0,1,1.54-3.64,8.49,8.49,0,0,1,1.43-1.32,5.89,5.89,0,0,1,1.74-1,5.44,5.44,0,0,1,3.85.39A13.33,13.33,0,0,1,22.84,68,19.74,19.74,0,0,1,25.41,70.8Z"/><path d="M43.38,81.29a25.27,25.27,0,0,0,6.48,4.1,16.59,16.59,0,0,0,7.38,1.51,19,19,0,0,0,7.24-2,27.24,27.24,0,0,0,6.26-4.28,26,26,0,0,0,2.64-2.71,15.79,15.79,0,0,0,1.12-1.5,6.07,6.07,0,0,0,.74-1.64,10.49,10.49,0,0,0-.7-7.22,4.68,4.68,0,0,0-2.46-2.49c-1.1-.41-2.33.22-3.45.76a18,18,0,0,0-5.78,5,17.22,17.22,0,0,1,5.54-5.4,11.63,11.63,0,0,1,1.79-.83,3.22,3.22,0,0,1,2.08-.1,5.37,5.37,0,0,1,3,2.74A10.59,10.59,0,0,1,76.4,71a10.42,10.42,0,0,1-.28,4,7,7,0,0,1-.82,1.89c-.37.57-.76,1.09-1.17,1.61a25.29,25.29,0,0,1-2.73,2.84,28.38,28.38,0,0,1-6.53,4.35,18.13,18.13,0,0,1-7.61,1.9,17,17,0,0,1-7.59-1.82A23.75,23.75,0,0,1,43.38,81.29Z"/><path d="M68.84,57.32a6.63,6.63,0,0,0,2.29,6.55c.61.49,1.32.92,2,1.38a29,29,0,0,0,4.2,2.5,3,3,0,0,0,3.93-.91,10.27,10.27,0,0,0,2-4.25,17.31,17.31,0,0,0,.52-4.82,11.6,11.6,0,0,0-1-4.71,5.9,5.9,0,0,0-3.49-3.23,5.89,5.89,0,0,1,3.92,3,12,12,0,0,1,1.39,4.89,16.77,16.77,0,0,1-.37,5.09A11,11,0,0,1,82,67.49,4.4,4.4,0,0,1,79.72,69,4.32,4.32,0,0,1,77,68.62a24.61,24.61,0,0,1-4.28-2.74,22.89,22.89,0,0,1-2-1.54,7.15,7.15,0,0,1-1.56-2.06A6.58,6.58,0,0,1,68.84,57.32Z"/><path d="M82.32,51.33a1.41,1.41,0,0,0,1.17,1.34,2.8,2.8,0,0,0,1.76-.6,6.55,6.55,0,0,0,2.49-2.86,5,5,0,0,0,.14-3.63,17.32,17.32,0,0,0-1.69-3.53,16,16,0,0,0-5.34-5.63,7.72,7.72,0,0,0-3.69-1,8.72,8.72,0,0,0-3.83,1,7.38,7.38,0,0,1,7.88-.62A15.23,15.23,0,0,1,87,41.53a17,17,0,0,1,1.74,3.77,5.59,5.59,0,0,1-.34,4.23,7.11,7.11,0,0,1-2.94,3,3.14,3.14,0,0,1-2.06.43,1.36,1.36,0,0,1-.87-.6A1.74,1.74,0,0,1,82.32,51.33Z"/><path d="M79.32,34.86A5.61,5.61,0,0,0,82,31.14a4.89,4.89,0,0,0-.27-2.27,11.23,11.23,0,0,0-1-2.14,10.23,10.23,0,0,0-3.13-3.4,4,4,0,0,0-2.05-.68,3.52,3.52,0,0,0-2,.61l-1.15.63.46-1.19A10.25,10.25,0,0,0,73.25,16a10.45,10.45,0,0,0-2.71-4.33,2.84,2.84,0,0,0-.62-.51c-.24-.15-.5-.29-.76-.42-2-1-4.48-1.65-6.62-.76a6.9,6.9,0,0,0-2.62,2.22c-.31.49-.61,1-.89,1.54l-.67,1.66.51-1.73c.25-.55.5-1.1.79-1.64a6.91,6.91,0,0,1,2.65-2.55A6.84,6.84,0,0,1,66,8.92,11.07,11.07,0,0,1,69.55,10a8.19,8.19,0,0,1,.82.44,4.06,4.06,0,0,1,.78.61A10.89,10.89,0,0,1,72.4,12.4a11,11,0,0,1,1.77,3.29,10.66,10.66,0,0,1-.41,7.36l-.69-.56a4.48,4.48,0,0,1,2.57-.73,4.85,4.85,0,0,1,2.47.85,6.52,6.52,0,0,1,1,.79,12.31,12.31,0,0,1,.85.93,12.94,12.94,0,0,1,1.38,2.08,11.82,11.82,0,0,1,.94,2.3,4.82,4.82,0,0,1,.14,2.5A5.58,5.58,0,0,1,79.32,34.86Z"/><path d="M26.81,11.31a13.77,13.77,0,0,1,.65-6.78,7.13,7.13,0,0,1,2-2.85l.71-.54.8-.4.41-.2.42-.12.87-.24C33.27.1,33.86.05,34.45,0s1.16,0,1.74.08a12.22,12.22,0,0,1,3.43.8A7.44,7.44,0,0,1,42.52,3a5.87,5.87,0,0,1,.93,1.58,5.45,5.45,0,0,1,.42,1.83h-1a4.73,4.73,0,0,1,.53-1.93,5.53,5.53,0,0,1,1.12-1.58,8.64,8.64,0,0,1,3.19-2A14.89,14.89,0,0,1,49.51.4,14.31,14.31,0,0,1,51.33.12,16,16,0,0,1,53.16,0,12.71,12.71,0,0,1,55,.09a9.82,9.82,0,0,1,3.57,1,6.6,6.6,0,0,1,2.56,2.68,8.23,8.23,0,0,1,.74,3.57,12.29,12.29,0,0,1-.52,3.57A10.53,10.53,0,0,0,60.68,4a5.9,5.9,0,0,0-2.41-2.34A8.88,8.88,0,0,0,54.93.87,18.6,18.6,0,0,0,48,1.75a7.83,7.83,0,0,0-2.82,1.8A4.92,4.92,0,0,0,43.87,6.4h-1a5.09,5.09,0,0,0-1.1-2.82,6.39,6.39,0,0,0-2.52-1.87A11.18,11.18,0,0,0,36.1.93C35.55.87,35,.87,34.44.82s-1.08.05-1.62.1L32,1.11l-.4.09-.37.16-.73.33-.66.47a6.66,6.66,0,0,0-2,2.56A14.16,14.16,0,0,0,26.81,11.31Z"/><polygon points="41.88 13.89 42.93 10.67 43.38 9.3 43.83 10.67 44.88 13.89 42.93 11.12 43.83 11.12 41.88 13.89"/><polygon points="41.88 21.38 42.93 18.16 43.38 16.79 43.83 18.16 44.88 21.38 42.93 18.61 43.83 18.61 41.88 21.38"/><polygon points="41.88 28.87 42.93 25.65 43.38 24.28 43.83 25.65 44.88 28.87 42.93 26.1 43.83 26.1 41.88 28.87"/><polygon points="41.88 36.36 42.93 33.14 43.38 31.77 43.83 33.14 44.88 36.36 42.93 33.58 43.83 33.58 41.88 36.36"/><polygon points="41.88 43.84 42.93 40.63 43.38 39.26 43.83 40.63 44.88 43.84 42.93 41.07 43.83 41.07 41.88 43.84"/><polygon points="41.88 51.33 42.93 48.11 43.38 46.74 43.83 48.11 44.88 51.33 42.93 48.56 43.83 48.56 41.88 51.33"/><polygon points="41.88 58.82 42.93 55.6 43.38 54.23 43.83 55.6 44.88 58.82 42.93 56.05 43.83 56.05 41.88 58.82"/><polygon points="41.88 66.31 42.93 63.09 43.38 61.72 43.83 63.09 44.88 66.31 42.93 63.54 43.83 63.54 41.88 66.31"/><polygon points="41.88 73.8 42.93 70.58 43.38 69.21 43.83 70.58 44.88 73.8 42.93 71.03 43.83 71.03 41.88 73.8"/><polygon points="41.88 81.29 42.93 78.07 43.38 76.7 43.83 78.07 44.88 81.29 42.93 78.51 43.83 78.51 41.88 81.29"/><path d="M32.9,21.38a7.43,7.43,0,0,1,3,2.53,7.61,7.61,0,0,1,1.33,3.76,9.13,9.13,0,0,1-.7,3.92,17.86,17.86,0,0,1-.9,1.74c-.4.52-.78,1-1.2,1.53.23-.61.51-1.18.76-1.76s.44-1.17.6-1.77a11.61,11.61,0,0,0,.45-3.59A9.71,9.71,0,0,0,32.9,21.38Z"/><path d="M22.41,31.86A23.94,23.94,0,0,0,24,36.11a9.06,9.06,0,0,0,1.22,1.78,10,10,0,0,0,1.72,1.46,4.37,4.37,0,0,1-2.25-.88,5.91,5.91,0,0,1-1.58-1.9,7.71,7.71,0,0,1-.72-2.32A6.21,6.21,0,0,1,22.41,31.86Z"/><path d="M22.41,49.83a12.75,12.75,0,0,1,3.38-.06,12.55,12.55,0,0,1,3.32.79,6.7,6.7,0,0,1,2.87,2,4.14,4.14,0,0,1,.92,3.28,5.18,5.18,0,0,0-1.49-2.76,8,8,0,0,0-2.67-1.58A38.13,38.13,0,0,0,22.41,49.83Z"/><path d="M32.9,66.31a8.26,8.26,0,0,1,2.85,2.07,7.8,7.8,0,0,1,1.77,3.15,6.59,6.59,0,0,1,0,3.63,8.35,8.35,0,0,1-.65,1.68,13.31,13.31,0,0,1-1,1.45c.16-.57.4-1.09.54-1.64A10.63,10.63,0,0,0,36.77,75a7.39,7.39,0,0,0-.21-3.21A12.44,12.44,0,0,0,32.9,66.31Z"/><path d="M55.36,66.31c-.65,1-1.25,1.94-1.79,2.93a13.52,13.52,0,0,0-1.28,3.06,6.35,6.35,0,0,0-.12,3.15,7.53,7.53,0,0,0,1.69,2.84,5.38,5.38,0,0,1-2.43-2.59A6,6,0,0,1,51.32,72a10.1,10.1,0,0,1,1.59-3.22A11.22,11.22,0,0,1,55.36,66.31Z"/><path d="M56.86,55.83a3.89,3.89,0,0,1,.22-3.19,5.14,5.14,0,0,1,2.48-2.2,10,10,0,0,1,1.54-.53,11.9,11.9,0,0,1,4.74-.08c-.51.13-1,.22-1.53.31s-1,.22-1.5.3a13.77,13.77,0,0,0-2.83.91,5.47,5.47,0,0,0-2.24,1.7A4.86,4.86,0,0,0,56.86,55.83Z"/><path d="M59.85,40.85a11.25,11.25,0,0,0,4.59-3.48,6.63,6.63,0,0,0,1.12-2.56,10.83,10.83,0,0,0,.22-1.44c0-.49,0-1,.06-1.51a9.43,9.43,0,0,1,.43,1.49,7,7,0,0,1,.06,1.58,5.79,5.79,0,0,1-1.08,3A6.68,6.68,0,0,1,62.84,40,6.92,6.92,0,0,1,59.85,40.85Z"/><path d="M56.86,21.38a15,15,0,0,0-2.78,2.74,8.42,8.42,0,0,0-1.59,3.35,4.12,4.12,0,0,0-.15.91,4.14,4.14,0,0,0,0,.93c0,.31,0,.62,0,.94s.13.61.18.93a4.81,4.81,0,0,0,.25.92l.3.93c.23.61.54,1.19.77,1.83-.42-.51-.82-1.06-1.21-1.61a11.22,11.22,0,0,1-.86-1.86,7.44,7.44,0,0,1-.28-4.13,7.77,7.77,0,0,1,2-3.65A9.11,9.11,0,0,1,56.86,21.38Z"/><path d="M29.9,13.89a9.83,9.83,0,0,0-5.53-3.17,8.88,8.88,0,0,0-6.12,1,7.13,7.13,0,0,0-3.56,4.84,11.77,11.77,0,0,0,.68,6.19l.25.73-.75-.09a11.37,11.37,0,0,0-4.73.3,5.17,5.17,0,0,0-3.23,3.08,11,11,0,0,0-.47,4.78,23.87,23.87,0,0,0,1,4.85A20.38,20.38,0,0,1,6,31.56a10.74,10.74,0,0,1,.24-5.06,5.76,5.76,0,0,1,1.35-2.26,6,6,0,0,1,2.24-1.41A12.27,12.27,0,0,1,15,22.4l-.5.64a15.38,15.38,0,0,1-.86-3.28,10.2,10.2,0,0,1,.15-3.44,8,8,0,0,1,4.07-5.38,9.53,9.53,0,0,1,12.06,3Z"/><path d="M14.92,36.36a6.86,6.86,0,0,0-3.65-.53,11,11,0,0,0-3.54,1,13.35,13.35,0,0,0-5.59,4.58A6.91,6.91,0,0,0,1,44.7a5.72,5.72,0,0,0,.85,3.37,9.75,9.75,0,0,0,2.49,2.68,24.06,24.06,0,0,0,3.14,2.08,13,13,0,0,1-6.27-4.35A6.11,6.11,0,0,1,0,44.65,7.71,7.71,0,0,1,1.3,40.86a12.93,12.93,0,0,1,6.14-4.74,11.49,11.49,0,0,1,3.8-.77A6.45,6.45,0,0,1,14.92,36.36Z"/><path d="M5.94,51.33A9.2,9.2,0,0,0,4,55.51a13.83,13.83,0,0,0-.24,4.58A12.43,12.43,0,0,0,5,64.44a5,5,0,0,0,3.1,2.77,9.89,9.89,0,0,0,2.21.08,21.89,21.89,0,0,0,2.29-.21,10,10,0,0,0,4.21-1.49A5.93,5.93,0,0,0,19.2,62a13.52,13.52,0,0,0,.22-4.63,12.37,12.37,0,0,1,.27,4.74,6.62,6.62,0,0,1-2.45,4.17A10.08,10.08,0,0,1,12.72,68a21.7,21.7,0,0,1-2.4.25q-.6,0-1.2,0a5.16,5.16,0,0,1-1.28-.13,5.82,5.82,0,0,1-3.7-3.31A12.16,12.16,0,0,1,3,60.15a14.38,14.38,0,0,1,.53-4.76A8.73,8.73,0,0,1,5.94,51.33Z"/><path d="M25.41,70.8a17.28,17.28,0,0,0-5.91-4.45A4.92,4.92,0,0,0,16,66.11a5.53,5.53,0,0,0-1.51.91,9,9,0,0,0-1.28,1.26A5.49,5.49,0,0,0,12,71.48a6.58,6.58,0,0,0,.87,3.38,12.9,12.9,0,0,0,2.19,2.88c.87.88,1.77,1.78,2.63,2.7a29.26,29.26,0,0,0,2.6,2.62A17.34,17.34,0,0,0,23.37,85a14.56,14.56,0,0,0,7,2,21.13,21.13,0,0,0,7.22-1.5,19.83,19.83,0,0,0,3.39-1.52,9,9,0,0,0,1.5-1.1,2.61,2.61,0,0,0,.94-1.55,2.64,2.64,0,0,1-.84,1.65,8.46,8.46,0,0,1-1.46,1.21,20.62,20.62,0,0,1-3.36,1.75,21.6,21.6,0,0,1-7.37,1.84A14.75,14.75,0,0,1,23,85.82a19.25,19.25,0,0,1-3.28-2A25.71,25.71,0,0,1,17,81.11c-.85-.92-1.7-1.81-2.58-2.71a14,14,0,0,1-2.31-3.12,7.58,7.58,0,0,1-.93-3.84,6,6,0,0,1,1.54-3.64,8.49,8.49,0,0,1,1.43-1.32,5.89,5.89,0,0,1,1.74-1,5.44,5.44,0,0,1,3.85.39A13.33,13.33,0,0,1,22.84,68,19.74,19.74,0,0,1,25.41,70.8Z"/><path d="M43.38,81.29a25.27,25.27,0,0,0,6.48,4.1,16.59,16.59,0,0,0,7.38,1.51,19,19,0,0,0,7.24-2,27.24,27.24,0,0,0,6.26-4.28,26,26,0,0,0,2.64-2.71,15.79,15.79,0,0,0,1.12-1.5,6.07,6.07,0,0,0,.74-1.64,10.49,10.49,0,0,0-.7-7.22,4.68,4.68,0,0,0-2.46-2.49c-1.1-.41-2.33.22-3.45.76a18,18,0,0,0-5.78,5,17.22,17.22,0,0,1,5.54-5.4,11.63,11.63,0,0,1,1.79-.83,3.22,3.22,0,0,1,2.08-.1,5.37,5.37,0,0,1,3,2.74A10.59,10.59,0,0,1,76.4,71a10.42,10.42,0,0,1-.28,4,7,7,0,0,1-.82,1.89c-.37.57-.76,1.09-1.17,1.61a25.29,25.29,0,0,1-2.73,2.84,28.38,28.38,0,0,1-6.53,4.35,18.13,18.13,0,0,1-7.61,1.9,17,17,0,0,1-7.59-1.82A23.75,23.75,0,0,1,43.38,81.29Z"/><path d="M68.84,57.32a6.63,6.63,0,0,0,2.29,6.55c.61.49,1.32.92,2,1.38a29,29,0,0,0,4.2,2.5,3,3,0,0,0,3.93-.91,10.27,10.27,0,0,0,2-4.25,17.31,17.31,0,0,0,.52-4.82,11.6,11.6,0,0,0-1-4.71,5.9,5.9,0,0,0-3.49-3.23,5.89,5.89,0,0,1,3.92,3,12,12,0,0,1,1.39,4.89,16.77,16.77,0,0,1-.37,5.09A11,11,0,0,1,82,67.49,4.4,4.4,0,0,1,79.72,69,4.32,4.32,0,0,1,77,68.62a24.61,24.61,0,0,1-4.28-2.74,22.89,22.89,0,0,1-2-1.54,7.15,7.15,0,0,1-1.56-2.06A6.58,6.58,0,0,1,68.84,57.32Z"/><path d="M82.32,51.33a1.41,1.41,0,0,0,1.17,1.34,2.8,2.8,0,0,0,1.76-.6,6.55,6.55,0,0,0,2.49-2.86,5,5,0,0,0,.14-3.63,17.32,17.32,0,0,0-1.69-3.53,16,16,0,0,0-5.34-5.63,7.72,7.72,0,0,0-3.69-1,8.72,8.72,0,0,0-3.83,1,7.38,7.38,0,0,1,7.88-.62A15.23,15.23,0,0,1,87,41.53a17,17,0,0,1,1.74,3.77,5.59,5.59,0,0,1-.34,4.23,7.11,7.11,0,0,1-2.94,3,3.14,3.14,0,0,1-2.06.43,1.36,1.36,0,0,1-.87-.6A1.74,1.74,0,0,1,82.32,51.33Z"/><path d="M79.32,34.86A5.61,5.61,0,0,0,82,31.14a4.89,4.89,0,0,0-.27-2.27,11.23,11.23,0,0,0-1-2.14,10.23,10.23,0,0,0-3.13-3.4,4,4,0,0,0-2.05-.68,3.52,3.52,0,0,0-2,.61l-1.15.63.46-1.19A10.25,10.25,0,0,0,73.25,16a10.45,10.45,0,0,0-2.71-4.33,2.84,2.84,0,0,0-.62-.51c-.24-.15-.5-.29-.76-.42-2-1-4.48-1.65-6.62-.76a6.9,6.9,0,0,0-2.62,2.22c-.31.49-.61,1-.89,1.54l-.67,1.66.51-1.73c.25-.55.5-1.1.79-1.64a6.91,6.91,0,0,1,2.65-2.55A6.84,6.84,0,0,1,66,8.92,11.07,11.07,0,0,1,69.55,10a8.19,8.19,0,0,1,.82.44,4.06,4.06,0,0,1,.78.61A10.89,10.89,0,0,1,72.4,12.4a11,11,0,0,1,1.77,3.29,10.66,10.66,0,0,1-.41,7.36l-.69-.56a4.48,4.48,0,0,1,2.57-.73,4.85,4.85,0,0,1,2.47.85,6.52,6.52,0,0,1,1,.79,12.31,12.31,0,0,1,.85.93,12.94,12.94,0,0,1,1.38,2.08,11.82,11.82,0,0,1,.94,2.3,4.82,4.82,0,0,1,.14,2.5A5.58,5.58,0,0,1,79.32,34.86Z"/><path d="M26.81,11.31a13.77,13.77,0,0,1,.65-6.78,7.13,7.13,0,0,1,2-2.85l.71-.54.8-.4.41-.2.42-.12.87-.24C33.27.1,33.86.05,34.45,0s1.16,0,1.74.08a12.22,12.22,0,0,1,3.43.8A7.44,7.44,0,0,1,42.52,3a5.87,5.87,0,0,1,.93,1.58,5.45,5.45,0,0,1,.42,1.83h-1a4.73,4.73,0,0,1,.53-1.93,5.53,5.53,0,0,1,1.12-1.58,8.64,8.64,0,0,1,3.19-2A14.89,14.89,0,0,1,49.51.4,14.31,14.31,0,0,1,51.33.12,16,16,0,0,1,53.16,0,12.71,12.71,0,0,1,55,.09a9.82,9.82,0,0,1,3.57,1,6.6,6.6,0,0,1,2.56,2.68,8.23,8.23,0,0,1,.74,3.57,12.29,12.29,0,0,1-.52,3.57A10.53,10.53,0,0,0,60.68,4a5.9,5.9,0,0,0-2.41-2.34A8.88,8.88,0,0,0,54.93.87,18.6,18.6,0,0,0,48,1.75a7.83,7.83,0,0,0-2.82,1.8A4.92,4.92,0,0,0,43.87,6.4h-1a5.09,5.09,0,0,0-1.1-2.82,6.39,6.39,0,0,0-2.52-1.87A11.18,11.18,0,0,0,36.1.93C35.55.87,35,.87,34.44.82s-1.08.05-1.62.1L32,1.11l-.4.09-.37.16-.73.33-.66.47a6.66,6.66,0,0,0-2,2.56A14.16,14.16,0,0,0,26.81,11.31Z"/><polygon points="41.88 13.89 42.93 10.67 43.38 9.3 43.83 10.67 44.88 13.89 42.93 11.12 43.83 11.12 41.88 13.89"/><polygon points="41.88 21.38 42.93 18.16 43.38 16.79 43.83 18.16 44.88 21.38 42.93 18.61 43.83 18.61 41.88 21.38"/><polygon points="41.88 28.87 42.93 25.65 43.38 24.28 43.83 25.65 44.88 28.87 42.93 26.1 43.83 26.1 41.88 28.87"/><polygon points="41.88 36.36 42.93 33.14 43.38 31.77 43.83 33.14 44.88 36.36 42.93 33.58 43.83 33.58 41.88 36.36"/><polygon points="41.88 43.84 42.93 40.63 43.38 39.26 43.83 40.63 44.88 43.84 42.93 41.07 43.83 41.07 41.88 43.84"/><polygon points="41.88 51.33 42.93 48.11 43.38 46.74 43.83 48.11 44.88 51.33 42.93 48.56 43.83 48.56 41.88 51.33"/><polygon points="41.88 58.82 42.93 55.6 43.38 54.23 43.83 55.6 44.88 58.82 42.93 56.05 43.83 56.05 41.88 58.82"/><polygon points="41.88 66.31 42.93 63.09 43.38 61.72 43.83 63.09 44.88 66.31 42.93 63.54 43.83 63.54 41.88 66.31"/><polygon points="41.88 73.8 42.93 70.58 43.38 69.21 43.83 70.58 44.88 73.8 42.93 71.03 43.83 71.03 41.88 73.8"/><polygon points="41.88 81.29 42.93 78.07 43.38 76.7 43.83 78.07 44.88 81.29 42.93 78.51 43.83 78.51 41.88 81.29"/><path d="M32.9,21.38a7.43,7.43,0,0,1,3,2.53,7.61,7.61,0,0,1,1.33,3.76,9.13,9.13,0,0,1-.7,3.92,17.86,17.86,0,0,1-.9,1.74c-.4.52-.78,1-1.2,1.53.23-.61.51-1.18.76-1.76s.44-1.17.6-1.77a11.61,11.61,0,0,0,.45-3.59A9.71,9.71,0,0,0,32.9,21.38Z"/><path d="M22.41,31.86A23.94,23.94,0,0,0,24,36.11a9.06,9.06,0,0,0,1.22,1.78,10,10,0,0,0,1.72,1.46,4.37,4.37,0,0,1-2.25-.88,5.91,5.91,0,0,1-1.58-1.9,7.71,7.71,0,0,1-.72-2.32A6.21,6.21,0,0,1,22.41,31.86Z"/><path d="M22.41,49.83a12.75,12.75,0,0,1,3.38-.06,12.55,12.55,0,0,1,3.32.79,6.7,6.7,0,0,1,2.87,2,4.14,4.14,0,0,1,.92,3.28,5.18,5.18,0,0,0-1.49-2.76,8,8,0,0,0-2.67-1.58A38.13,38.13,0,0,0,22.41,49.83Z"/><path d="M32.9,66.31a8.26,8.26,0,0,1,2.85,2.07,7.8,7.8,0,0,1,1.77,3.15,6.59,6.59,0,0,1,0,3.63,8.35,8.35,0,0,1-.65,1.68,13.31,13.31,0,0,1-1,1.45c.16-.57.4-1.09.54-1.64A10.63,10.63,0,0,0,36.77,75a7.39,7.39,0,0,0-.21-3.21A12.44,12.44,0,0,0,32.9,66.31Z"/><path d="M55.36,66.31c-.65,1-1.25,1.94-1.79,2.93a13.52,13.52,0,0,0-1.28,3.06,6.35,6.35,0,0,0-.12,3.15,7.53,7.53,0,0,0,1.69,2.84,5.38,5.38,0,0,1-2.43-2.59A6,6,0,0,1,51.32,72a10.1,10.1,0,0,1,1.59-3.22A11.22,11.22,0,0,1,55.36,66.31Z"/><path d="M56.86,55.83a3.89,3.89,0,0,1,.22-3.19,5.14,5.14,0,0,1,2.48-2.2,10,10,0,0,1,1.54-.53,11.9,11.9,0,0,1,4.74-.08c-.51.13-1,.22-1.53.31s-1,.22-1.5.3a13.77,13.77,0,0,0-2.83.91,5.47,5.47,0,0,0-2.24,1.7A4.86,4.86,0,0,0,56.86,55.83Z"/><path d="M59.85,40.85a11.25,11.25,0,0,0,4.59-3.48,6.63,6.63,0,0,0,1.12-2.56,10.83,10.83,0,0,0,.22-1.44c0-.49,0-1,.06-1.51a9.43,9.43,0,0,1,.43,1.49,7,7,0,0,1,.06,1.58,5.79,5.79,0,0,1-1.08,3A6.68,6.68,0,0,1,62.84,40,6.92,6.92,0,0,1,59.85,40.85Z"/><path d="M56.86,21.38a15,15,0,0,0-2.78,2.74,8.42,8.42,0,0,0-1.59,3.35,4.12,4.12,0,0,0-.15.91,4.14,4.14,0,0,0,0,.93c0,.31,0,.62,0,.94s.13.61.18.93a4.81,4.81,0,0,0,.25.92l.3.93c.23.61.54,1.19.77,1.83-.42-.51-.82-1.06-1.21-1.61a11.22,11.22,0,0,1-.86-1.86,7.44,7.44,0,0,1-.28-4.13,7.77,7.77,0,0,1,2-3.65A9.11,9.11,0,0,1,56.86,21.38Z"/><path class="cls-3" d="M29.9,13.89c-6-7.49-19.47-3-15,9C1.44,21.38,7.43,36.36,7.43,36.36"/><path class="cls-3" d="M14.92,36.36c-7-4.13-24,9-7.49,16.47"/><path class="cls-3" d="M5.94,51.33c-4.5,4.5-3,16.48,3,16.48s12-1.5,10.49-10.49"/><path class="cls-3" d="M25.41,70.8s-6-7.49-10.49-4.49-4.49,7.49,0,12,4.14,5.12,9,7.49c3.94,1.93,7.49,2.27,13.48,0,6.26-2.38,6-4.49,6-4.49"/><path class="cls-3" d="M43.38,81.29s6,6,13.48,6,15-6,18-10.49,0-13.48-4.49-12-7.49,6-7.49,6"/><path class="cls-3" d="M68.84,57.32a6.66,6.66,0,0,0,3,7.49c4.5,3,7.49,6,10.49,1.5s3-15-3-16.48"/><path class="cls-3" d="M82.32,51.33a1.47,1.47,0,0,0,1.5,1.5c1.49,0,6-3,4.49-7.49s-7.49-13.48-15-9"/><path class="cls-3" d="M79.32,34.86s3-1.5,3-4.5-4.49-10.48-9-7.48a10.24,10.24,0,0,0-3-12s-9-6-12,4.49"/><path class="cls-3" d="M26.81,11.31S25.41.41,34.39.41s9,6,9,6,0-6,10.48-6S61.35,10.9,61.35,10.9"/><polyline class="cls-3" points="41.88 13.89 43.38 10.89 44.88 13.89"/><polyline class="cls-3" points="41.88 21.38 43.38 18.38 44.88 21.38"/><polyline class="cls-3" points="41.88 28.87 43.38 25.87 44.88 28.87"/><polyline class="cls-3" points="41.88 36.36 43.38 33.36 44.88 36.36"/><polyline class="cls-3" points="41.88 43.84 43.38 40.85 44.88 43.84"/><polyline class="cls-3" points="41.88 51.33 43.38 48.34 44.88 51.33"/><polyline class="cls-3" points="41.88 58.82 43.38 55.83 44.88 58.82"/><polyline class="cls-3" points="41.88 66.31 43.38 63.31 44.88 66.31"/><polyline class="cls-3" points="41.88 73.8 43.38 70.8 44.88 73.8"/><polyline class="cls-3" points="41.88 81.29 43.38 78.29 44.88 81.29"/><path class="cls-3" d="M32.9,21.38s7.48,4.49,1.49,13.48"/><path class="cls-3" d="M22.41,31.86s0,6,4.49,7.49"/><path class="cls-3" d="M22.41,49.83s10.49,0,10.49,6"/><path class="cls-3" d="M32.9,66.31s7.48,4.49,3,12"/><path class="cls-3" d="M55.36,66.31s-7.49,7.49-1.5,12"/><path class="cls-3" d="M56.86,55.83s-1.5-6,9-6"/><path class="cls-3" d="M59.85,40.85s7.49-1.5,6-9"/><path class="cls-3" d="M56.86,21.38s-9,4.49-3,13.48"/></g></g></svg>