<svg xmlns="http://www.w3.org/2000/svg" viewBox="0 0 163.11 174.72"><defs><style>.cls-1{fill:#fff;}.cls-2{fill:#404040;}.cls-3{fill:#5c5c5c;}.cls-4{fill:#2c2cde;}.cls-5{fill:#00aeef;}.cls-6{fill:#9c9c9c;}.cls-7{fill:#00b4c7;}.cls-8{fill:#009aab;}.cls-9{fill:#3131ad;}.cls-10{fill:#4b4bd6;}.cls-11{fill:#0090c7;}</style></defs><title>Asset 2</title><g id="Layer_2" data-name="Layer 2"><g id="Layer_1-2" data-name="Layer 1"><path class="cls-1" d="M96.06,36.7a3.62,3.62,0,0,1-5.91,2.79h0a3.55,3.55,0,0,1-.92-2.39,3.62,3.62,0,0,1,5.91-2.79,0,0,0,0,1,0,0A3.59,3.59,0,0,1,96.06,36.7Z"/><path class="cls-2" d="M83,0C62-.22,44.86,15,43.74,34a9.67,9.67,0,0,0,.79,4.18c.14.45.29.89.45,1.31,1.3-7.73,3.43-15.25,9.09-23.52C60.7,6.21,75.26,3.66,89.81,3.66a41.14,41.14,0,0,1,14,2.51A43.18,43.18,0,0,0,83,0Zm8.46,22.26-.5.22a55,55,0,0,1,9.56,2A49.62,49.62,0,0,0,91.46,22.26Z"/><path class="cls-3" d="M138.84,65.65c-1.14.34-2.27.69-3.37,1l-1.53.49-3.13,1-2.75,1c-1.43.51-2.82,1-4.18,1.53h0l-.49.18-4.33-5.44L117.9,64v9l-1.07.44-1,.44c-.86.37-1.71.73-2.54,1.1s-1.49.65-2.21,1-1.44.65-2.14,1l-2,1c-.68.32-1.34.65-2,1l-1.92,1-.3.15c-1.14.58-2.23,1.16-3.29,1.73l-.85.46-.84.46c-1.14.63-2.23,1.25-3.26,1.85L93,85.32l-1.8,1.09-1.15.71c-.75.47-1.46.92-2.12,1.36h0l-1.87,1.25-.21.14-.7.49c-.23.15-.45.31-.66.46-1.29.9-2.32,1.67-3.1,2.27l-.26.2-.27.21-.36.29L80,94.2c-2.49-3.12-7-6.31-12.46-9.39l-1.11-.62,0,0-.13-.07s0,0,0,0c-1.59-.9-3.27-1.78-5-2.65-.36-.19-.72-.37-1.09-.54-1.08-.54-2.19-1.07-3.32-1.59l-1.61-.73-1.69-.76-2.28-1-2.13-.91-.17-.07-.52-9.48L47.3,65.9l.08,1.63,0,0-.1-1.86-6.06,7-3.6-1.36-1.78-.66-.56-.21-1.19-.43-1.73-.62-1.65-.59L27.34,67.7l2-1.87,9.71-10.21s-.69-5.79,4.25-7.15c2.56-.71,4.39-.63,5.91,0l1.19,1a21,21,0,0,1,1.45,1.59s.32.15.94.39l.21.25S79.73,64,115,51.19c0,0,5.36-4.48,9.26-3h0a11.7,11.7,0,0,1,4.56,6Z"/><path class="cls-2" d="M49.21,48.5c-1.52-.66-3.35-.74-5.91,0-4.94,1.36-4.25,7.15-4.25,7.15L29.34,65.83l-2,1.87L26,67.24l2.19-2L37.9,55s-.69-5.79,4.25-7.15C45.39,46.94,47.45,47.29,49.21,48.5Z"/><path class="cls-2" d="M48.93,75.82l-1.14-.47-.41-7.82L47.3,65.9l1.11.44Z"/><path class="cls-1" d="M50.4,49.48l-1.19-1A9.65,9.65,0,0,1,50.4,49.48Z"/><path class="cls-2" d="M124.22,48.15c-3.9-1.44-9.26,3-9.26,3C79.73,64,53,51.71,53,51.71l-.21-.25c5,2,29.65,10.46,61-.91,0,0,6.3-5.27,10.21-2.55Z"/><path class="cls-1" d="M47.79,75.35c-1.77-.73-3.55-1.44-5.32-2.12l-1.27-.5,6.06-7,.1,1.86Z"/><path class="cls-1" d="M66.23,84.06A178.7,178.7,0,0,0,48.94,76v-.17l.17.07,2.13.91,2.28,1,1.69.76,1.61.73c1.13.52,2.24,1,3.32,1.59.37.17.73.35,1.09.54C63,82.28,64.64,83.16,66.23,84.06Z"/><path class="cls-2" d="M52.79,51.46c-.62-.24-.94-.39-.94-.39a21,21,0,0,0-1.45-1.59Z"/><path class="cls-4" d="M100.52,24.49a55,55,0,0,0-9.56-2l.5-.22A49.62,49.62,0,0,1,100.52,24.49Z"/><path class="cls-4" d="M96.06,36.7a3.62,3.62,0,0,1-5.91,2.79h0a3.55,3.55,0,0,1-.92-2.39,3.62,3.62,0,0,1,5.91-2.79,0,0,0,0,1,0,0A3.59,3.59,0,0,1,96.06,36.7Z"/><path class="cls-4" d="M96.06,36.7a3.62,3.62,0,0,1-5.91,2.79h0a3.55,3.55,0,0,1-.92-2.39,3.62,3.62,0,0,1,5.91-2.79,0,0,0,0,1,0,0A3.59,3.59,0,0,1,96.06,36.7Z"/><path class="cls-5" d="M96.06,36.7a3.62,3.62,0,0,1-5.91,2.79h0a3.55,3.55,0,0,1-.92-2.39,3.62,3.62,0,0,1,5.91-2.79,0,0,0,0,1,0,0A3.59,3.59,0,0,1,96.06,36.7Z"/><path class="cls-5" d="M96.06,36.7a3.62,3.62,0,0,1-5.91,2.79h0a3.55,3.55,0,0,1-.92-2.39,3.62,3.62,0,0,1,5.91-2.79,0,0,0,0,1,0,0A3.59,3.59,0,0,1,96.06,36.7Z"/><path class="cls-6" d="M158.79,70.81c-4.51.64-9,1.46-13.32,2.42-5.76,1.27-11.36,2.79-16.68,4.45-5.92,1.84-11.5,3.84-16.64,5.86a249.38,249.38,0,0,0-30,14.09c-1.16.64-1.77,1-1.77,1l-.12-.07a176.71,176.71,0,0,0-28.6-13.78,257.56,257.56,0,0,0-49-13.14C3,69.1,4.35,65.31,9.13,61.87c0,0,7.11,2.05,16.87,5.37l1.34.46,3.35,1.16,1.65.59,1.73.62,1.19.43.56.21,1.78.66,3.6,1.36,1.27.5c1.77.68,3.55,1.39,5.32,2.12l1.14.47V76a178.7,178.7,0,0,1,17.29,8.07l0,0,.13.07,0,0,1.11.62c5.5,3.08,10,6.27,12.46,9.39l.51-.41.36-.29.27-.21.26-.2c.78-.6,1.81-1.37,3.1-2.27.21-.15.43-.31.66-.46l.7-.49.21-.14L88,88.48h0c.66-.44,1.37-.89,2.12-1.36l1.15-.71L93,85.32l1.34-.79c1-.6,2.12-1.22,3.26-1.85l.84-.46.85-.46c1.06-.57,2.15-1.15,3.29-1.73l.3-.15,1.92-1c.66-.33,1.32-.66,2-1l2-1c.7-.33,1.41-.66,2.14-1s1.46-.66,2.21-1,1.68-.73,2.54-1.1l1-.44L117.9,73l1.15-.47c1.4-.56,2.85-1.12,4.33-1.68l.49-.18h0c1.36-.51,2.75-1,4.18-1.53l2.75-1,3.13-1,1.53-.49c1.1-.35,2.23-.7,3.37-1l.47-.14c4-1.19,8.15-2.32,12.54-3.38,0,0,6.13,4.08,6.9,8.42A2,2,0,0,1,158.79,70.81Z"/><path class="cls-6" d="M66.23,84.06A178.7,178.7,0,0,0,48.94,76v-.17l.17.07,2.13.91,2.28,1,1.69.76,1.61.73c1.13.52,2.24,1,3.32,1.59.37.17.73.35,1.09.54C63,82.28,64.64,83.16,66.23,84.06Z"/><path class="cls-2" d="M161.32,110.49a4.4,4.4,0,0,0-.83-.51,5.22,5.22,0,0,0-2.3-.49c-4.09,0-7.4,3.83-7.4,8.55a9.26,9.26,0,0,0,2.13,6,.12.12,0,0,0,0,0l-.32-.29c-.11-.1-.21-.21-.31-.32a7.22,7.22,0,0,1-.56-.68l-.13-.18c-.06-.09-.12-.18-.17-.27s-.16-.24-.24-.37-.24-.44-.35-.67-.17-.39-.25-.59l-.09-.24c-.08-.23-.15-.46-.22-.7s-.13-.54-.18-.82a7.9,7.9,0,0,1-.11-.85,8.19,8.19,0,0,1,0-.87c0-4.72,3.31-8.55,7.4-8.55a5.22,5.22,0,0,1,2.3.49A4.59,4.59,0,0,1,161.32,110.49Z"/><path class="cls-7" d="M149.9,117.15a8.19,8.19,0,0,0,0,.87,7.9,7.9,0,0,0,.11.85c0,.28.11.55.18.82s.14.47.22.7l.09.24c.08.2.16.4.25.59s.22.45.35.67a2.92,2.92,0,0,0,.24.37c.05.09.11.18.17.27l.13.18a7.22,7.22,0,0,0,.56.68c.1.11.2.22.31.32l.32.29a.12.12,0,0,1,0,0l0,0a1,1,0,0,1,.17.13l.05,0,.28.21a6.73,6.73,0,0,0,1,.57l.51.22a4.35,4.35,0,0,0,.61.2,3.37,3.37,0,0,0,.48.12l.15,0,.52.07a6.08,6.08,0,0,0,.61,0,5.33,5.33,0,0,0,1.79-.29l0,1.12L158.24,153s-38.22,0-78,21.63V98.57l.12.07s.61-.37,1.77-1a249.38,249.38,0,0,1,30-14.09c5.14-2,10.72-4,16.64-5.86,5.32-1.66,10.92-3.18,16.68-4.45,4.35-1,8.81-1.78,13.32-2.42l2-.26-1.19,38.54a5.22,5.22,0,0,0-2.3-.49C153.21,108.6,149.9,112.43,149.9,117.15Z"/><path class="cls-3" d="M163.11,117.09c0,4-1.21,7.34-4,8.32a5.33,5.33,0,0,1-1.79.29,6.08,6.08,0,0,1-.61,0l-.52-.07-.15,0a3.37,3.37,0,0,1-.48-.12,4.35,4.35,0,0,1-.61-.2l-.51-.22a6.73,6.73,0,0,1-1-.57l-.28-.21-.05,0a1,1,0,0,0-.17-.13l0,0a9.26,9.26,0,0,1-2.13-6c0-4.72,3.31-8.55,7.4-8.55a5.22,5.22,0,0,1,2.3.49,4.4,4.4,0,0,1,.83.51h0A10.75,10.75,0,0,1,163.11,117.09Z"/><path class="cls-2" d="M11,111.51a6.77,6.77,0,0,0-4.5-1.76,4.94,4.94,0,0,0-3.92,1.74c-1.3,1.55-1.89,4-1.89,6.75s.6,5.27,1.93,6.84l-.17-.14C.74,123.43,0,120.69,0,117.6c0-2.77.59-5.2,1.89-6.75a4.94,4.94,0,0,1,3.92-1.74A6.91,6.91,0,0,1,11,111.51Z"/><path class="cls-8" d="M80.24,98.57v76.08l-.13.07S54.58,154.55,3.26,148.43L2.4,124.94l.17.14a4.78,4.78,0,0,0,3.24,1.13c4.09,0,7.4-3.83,7.4-8.55A9.19,9.19,0,0,0,11,111.51a6.91,6.91,0,0,0-5.14-2.4,4.94,4.94,0,0,0-3.92,1.74L.45,71.32s.78.1,2.21.33a257.56,257.56,0,0,1,49,13.14A176.71,176.71,0,0,1,80.24,98.57Z"/><path class="cls-3" d="M13.21,117.66c0,4.72-3.31,8.55-7.4,8.55a4.78,4.78,0,0,1-3.24-1.13C1.24,123.51.64,121,.64,118.24s.59-5.2,1.89-6.75a4.94,4.94,0,0,1,3.92-1.74,6.77,6.77,0,0,1,4.5,1.76A9.19,9.19,0,0,1,13.21,117.66Z"/><path class="cls-3" d="M112.57,12.74a47.22,47.22,0,0,0-8.75-6.57,41.14,41.14,0,0,0-14-2.51c-14.55,0-29.11,2.55-35.74,12.26C48.41,24.19,46.28,31.71,45,39.44a21.58,21.58,0,0,0,1.41,3.14c5.49,10.13,16.93,11.21,35.93,12.23,18.61-3.07,32.85.17,40-18.89C123.62,27.59,119.41,19.27,112.57,12.74ZM80.28,46A64,64,0,0,1,61.5,43.37l-.25-.09a26.89,26.89,0,0,1-8-3.82c-2.29-1.72-3.59-3.69-3.59-5.78,0-6.78,13.68-12.27,30.57-12.27a71.61,71.61,0,0,1,11.18.85,49.62,49.62,0,0,1,9.06,2.23c6.34,2.24,10.33,5.53,10.33,9.19C110.85,40.46,97.16,46,80.28,46Z"/><path class="cls-9" d="M91.46,22.26l-.5.22a74.21,74.21,0,0,0-9.15-.56c-16.88,0-30.57,5.49-30.57,12.27a6.84,6.84,0,0,0,2.65,5,22.82,22.82,0,0,0,7.36,4.09,26.89,26.89,0,0,1-8-3.82c-2.29-1.72-3.59-3.69-3.59-5.78,0-6.78,13.68-12.27,30.57-12.27A71.61,71.61,0,0,1,91.46,22.26Z"/><path class="cls-10" d="M100.52,24.49a55,55,0,0,0-9.56-2,74.21,74.21,0,0,0-9.15-.56c-16.88,0-30.57,5.49-30.57,12.27a6.84,6.84,0,0,0,2.65,5,22.82,22.82,0,0,0,7.36,4.09l.25.09A64,64,0,0,0,80.28,46c16.88,0,30.57-5.5,30.57-12.28C110.85,30,106.86,26.73,100.52,24.49ZM65.64,40.38A3.62,3.62,0,0,1,62,36.77a3.88,3.88,0,0,1,.26-1.37,3.62,3.62,0,0,1,3.35-2.24,3.65,3.65,0,0,1,2.58,1.08,3.61,3.61,0,0,1-2.58,6.14Zm26.81-.07a3.61,3.61,0,0,1-2.3-.82h0a3.61,3.61,0,0,1,2.31-6.39,3.56,3.56,0,0,1,2.68,1.21,0,0,0,0,1,0,0,3.6,3.6,0,0,1-2.69,6Z"/><path class="cls-11" d="M95.13,34.3a3.62,3.62,0,0,0-5.91,2.79,3.55,3.55,0,0,0,.92,2.39,3.61,3.61,0,0,1,2.31-6.39A3.56,3.56,0,0,1,95.13,34.3Z"/><path class="cls-11" d="M68.22,34.24a3.48,3.48,0,0,0-1.76-.71,3,3,0,0,0-.43,0,3.59,3.59,0,0,0-3.61,3.61,3.57,3.57,0,0,0,1,2.5A3.59,3.59,0,0,1,62,36.77a3.88,3.88,0,0,1,.26-1.37,3.62,3.62,0,0,1,3.35-2.24,3.65,3.65,0,0,1,2.58,1.08Z"/><path class="cls-5" d="M69.25,36.77a3.61,3.61,0,0,1-3.61,3.61,3.36,3.36,0,0,1-2.59-5.32,3.63,3.63,0,0,1,3-1.56,3,3,0,0,1,.43,0,3.48,3.48,0,0,1,1.76.71A3.6,3.6,0,0,1,69.25,36.77Z"/></g></g></svg>