<svg xmlns="http://www.w3.org/2000/svg" viewBox="0 0 429.39 428.49"><defs><style>.cls-1{fill:#3771a2;}.cls-2{fill:#fefefe;}.cls-3{fill:#fed344;}</style></defs><title>Asset 3</title><g id="Layer_2" data-name="Layer 2"><g id="Layer_1-2" data-name="Layer 1"><path class="cls-1" d="M319.34,58.17c.14-12-3.34-22.19-11.26-31A59.14,59.14,0,0,0,292.2,15c-11.78-6.43-24.54-9.83-37.67-12a245.69,245.69,0,0,0-35.42-3h-21c-2.52.87-5.16.61-7.75.81-13.24,1-26.35,2.84-39.1,6.73-10.7,3.27-20.81,7.71-29.07,15.54-6.11,5.78-10.27,12.65-10.95,21.25-.13,1.66,0,3.34,0,5,0,14.94.11,29.88,0,44.82,0,2,.64,2.36,2.46,2.36,33.09,0,66.19,0,99.28-.07,2,0,2.85.32,2.7,2.58a82,82,0,0,0,0,10c.1,2-.61,2.27-2.37,2.26-17.52-.06-35,0-52.57,0-29.74,0-59.49.14-89.23-.08-8.56-.06-16.84.7-24.84,3.78C32.39,120.54,22,130.6,14.58,143.87,7.73,156.09,4.16,169.37,2.1,183.11a166.71,166.71,0,0,0-1.73,17.7c0,.41.06.86-.37,1.13v25.55c.83,2.39.6,4.9.82,7.36,1.39,16,4.16,31.67,10.57,46.5,5.28,12.19,12.6,22.84,23.84,30.35a46.89,46.89,0,0,0,26.94,8.39c11-.09,22.06-.06,33.09,0,1.82,0,2.34-.41,2.33-2.29q-.14-24.51,0-49a69.11,69.11,0,0,1,8.34-33.55C114,220.5,126.65,212.14,143,209.08a82.18,82.18,0,0,1,15.42-1.28c33.93,0,67.87.07,101.8,0,13,0,25.29-3.18,36.35-10.28,12.72-8.17,19.56-20.11,21.82-34.86a84.72,84.72,0,0,0,.83-12.73C319.21,119.33,319,88.74,319.34,58.17Zm-163,12.36A18.74,18.74,0,1,1,175,51.7,18.76,18.76,0,0,1,156.34,70.53Z"/><path class="cls-2" d="M156.34,70.53A18.74,18.74,0,1,1,175,51.7,18.76,18.76,0,0,1,156.34,70.53Z"/><path class="cls-3" d="M429,189.6a57.7,57.7,0,0,0-.46-7.66,140.65,140.65,0,0,0-6.38-27.47c-4.34-12.41-10.42-23.79-20.32-32.73-9-8.12-19.37-13.17-31.7-13.31-11.44-.13-22.9,0-34.34-.05-2,0-2.74.4-2.72,2.62.1,16.06,0,32.12.06,48.17a72.29,72.29,0,0,1-3.41,22.25c-5.23,16.47-15.16,28.74-31.65,35-8.26,3.16-16.9,4.16-25.68,4.16q-50.26,0-100.53,0a74.74,74.74,0,0,0-20.68,2.73c-14.22,4.08-26,11.52-33.23,24.88-4.93,9.07-6.5,18.93-6.5,29.11q0,45.87,0,91.74c0,1,0,2,0,2.93a37.27,37.27,0,0,0,5.2,21c6,10.54,15.3,17.43,26.06,22.48,18.81,8.83,39,11.56,59.44,12.59q7.41.38,14.84.37,10.59,0,21.16-.73c13.81-.94,27.5-2.71,40.79-6.73,11-3.31,21.39-7.82,29.8-15.94,6.34-6.11,10.68-13.34,10.72-22.41.07-16.2-.13-32.39-.11-48.59,0-1.92-.61-2.28-2.37-2.27q-31.95.09-63.88,0c-12,0-24,0-36,0-1.57,0-2.21-.34-2.14-2.06.14-3.28,0-6.56.05-9.84s-.38-2.83,2.74-2.83q37.28,0,74.56,0v.05c23.18,0,46.36-.12,69.54,0,16.48.11,30.74-5.3,42.34-16.92,16.39-16.4,23.08-37.29,24.67-59.63.46-6.5.61-13,.61-19.56C429.39,210.63,429,200.1,429,189.6ZM274.07,357.85a18.75,18.75,0,1,1,.55,37.49,18.53,18.53,0,0,1-18.89-16.4C254.34,366.31,263.69,358,274.07,357.85Z"/><path class="cls-2" d="M274.07,357.85a18.75,18.75,0,1,1,.55,37.49,18.53,18.53,0,0,1-18.89-16.4C254.34,366.31,263.69,358,274.07,357.85Z"/></g></g></svg>