<svg xmlns="http://www.w3.org/2000/svg" viewBox="0 0 182.16 66"><defs><style>.cls-1{fill:#fff;}</style></defs><title>Asset 1</title><g id="Layer_2" data-name="Layer 2"><g id="Layer_1-2" data-name="Layer 1"><path class="cls-1" d="M0,66,30.8,0h7.83L69.69,66H52.36l-4-8.63h-27l-4,8.63ZM28.07,42.77H41.53L34.85,28.25Z"/><path class="cls-1" d="M100.58,20.24a5.07,5.07,0,0,0-5-5,5,5,0,0,0-4.93,5,4.92,4.92,0,0,0,4.93,4.93A20.42,20.42,0,1,1,75.24,45.5h15.4a4.94,4.94,0,0,0,4.93,5,5,5,0,0,0,5-4.93,5.06,5.06,0,0,0-5-5A20.13,20.13,0,0,1,75.33,20.33a20.29,20.29,0,0,1,40.57-.09Z"/><path class="cls-1" d="M169.84,21.82a15.44,15.44,0,0,0-11.09-4.31c-9,0-15.49,6.51-15.49,15.49s6.51,15.49,15.49,15.49a15.14,15.14,0,0,0,11.09-4.4l12.32,12.14A33,33,0,1,1,158.75,0,32.66,32.66,0,0,1,182,9.59Z"/></g></g></svg>