<svg xmlns="http://www.w3.org/2000/svg" viewBox="0 0 1920 530"><defs><style>.cls-1{fill:#333;}.cls-2,.cls-4{fill:#9641ff;}.cls-3{fill:#fff;}.cls-4{font-size:159px;font-family:KRHaHa, KR Ha Ha;letter-spacing:0.04em;}.cls-5{letter-spacing:0em;}</style></defs><title>Asset 1</title><g id="Layer_2" data-name="Layer 2"><g id="Layer_1-2" data-name="Layer 1"><rect class="cls-1" width="1920" height="530"/><path d="M420.56,378.23l-3.09.35c-2.58.29-5.14.58-7.71.83,2.05-.19,4.11-.42,6.17-.65l3.09-.35,3.09-.35h0C421.59,378.11,421.07,378.16,420.56,378.23Zm-30,1.57.59.05.34,0c-.48,0-1-.07-1.43-.12ZM324.74,378c-.55,0-1.08,0-1.6,0a14,14,0,0,0,1.6,0,52.49,52.49,0,0,0,6.61-.57A54.4,54.4,0,0,1,324.74,378Z"/><path class="cls-2" d="M398,529.87H688c-37.43-11.17-71.36-21.24-105.27-31.43-11.08-3.32-19.15-9.11-22.61-21.39-1.94-6.84-7.25-13.26-12.41-18.53-5.69-5.81-7.6-11.89-2.83-17.84,4.61-5.76,11.2-9.94,16.63-14.57-.34-5.76-.81-13.05-1.2-20.35-.22-4.11.88-8.77-.67-12.27-4.75-10.63,6-21.7-1.42-32.39-.78-1.14,3.81-6.9,6.8-9.48,3.47-3,7.92-4.79,11.94-7.12,57.38-33.3,91.48-79.56,87-149.18-2.87-44.14-29.81-81.19-73.21-90.26-25.79-5.39-52.76-5.49-79.26-6.89-7.69-.41-12.24-2-16.21-8.85-9.13-15.64-19.61-30.47-28.82-46.06C453.67,21.66,434.65,11,410.05,10.48c-11.77-.27-23.62,1.15-35.36,2.51-29.89,3.48-49.57,20.59-60,47.85-5.38,14.07-8.21,29.12-12.05,43.75-1.24,4.71-2,9.51-2.94,13.7-17.5-1.9-33.4-4.29-49.37-5.19-16.47-.91-33-1-49.5-.35-39.72,1.44-62,23.27-60.79,60.7,1.07,34.82,11.75,67.23,37.17,91.53,24,22.92,50.53,43.41,77.33,63.12,16.66,12.24,31.34,23.67,28.49,47-.43,3.54,1.6,7.35,2.17,11.08,5.73,37.52,34,58.46,64,71,21.62,9,49.47,3.51,73-6.68,50.26-21.72,74.89-60.53,76.39-114.81.25-9.08,3.55-18.07,6-29.54,5.58,4.58,8,6.59,10.5,8.6.58-.52,1.16-1,1.75-1.53-3.09-6.59-6.19-13.18-9.05-19.25l16.54-13.29c3.06,1.83,6.93,5.92,9.17,5.17,7.83-2.63,12.13,1,12.68,7.27.46,5.21-2,11-4.26,16.05-3.22,7.22-9.86,13.74-10.72,21.07-2.08,17.57-11.52,27-27.27,30.47v37.9c3.2,1.47,7.4,2.25,9.75,4.75,3.92,4.18,6.67,9.46,9.9,14.3l-15.22,1.7C485.79,468,441.37,497.31,398,529.87Zm24.08-151.82h0l-3.09.35-3.09.35c-2.06.23-4.12.46-6.17.65h0c-1.53.16-3.05.29-4.58.39-1.95.14-3.9.24-5.85.27-.31,0-.61,0-.91,0-1.75,0-3.5,0-5.25-.1h-.2l-1.26-.08-.18,0-.34,0-.59-.05-.5-.05h-.15c-.9-.09-1.81-.2-2.72-.33l-.52-.08c-.67-.1-1.34-.22-2-.35a53.5,53.5,0,0,1-9-2.53c-.86-.32-1.73-.68-2.59-1.07h0c-1.16-.51-2.31-1.07-3.47-1.69a11.14,11.14,0,0,0-1.37-.6h0a14.14,14.14,0,0,0-1.49-.39,29.85,29.85,0,0,0-9.42.26l-3.86.59-.75.11-1.48.2c-6.64.82-13.23,2.66-19.83,3.59a52.49,52.49,0,0,1-6.61.57,14,14,0,0,1-1.6,0c-.41,0-.81-.08-1.2-.14a3.78,3.78,0,0,1-.57-.1,8,8,0,0,1-1.12-.26l-.53-.17a9.74,9.74,0,0,1-4.43-3,8.2,8.2,0,0,1-.65-.87c-.1-.15-.2-.31-.29-.47a10.83,10.83,0,0,1-.52-1,15,15,0,0,1-1.07-6.89,21,21,0,0,1,1-5.66c.07-.21.15-.41.22-.61a12.46,12.46,0,0,1,3-4.57c.28-.28.59-.55.9-.81s.65-.5,1-.73h0a11.57,11.57,0,0,1,1.08-.67,21.68,21.68,0,0,1,5.23-2c6.63-1.73,13.16-3.88,19.77-5.71q2.71-.78,5.46-1.45l.63-.15,1.91-.45,1.3-.28c.54-.11,1.09-.22,1.64-.31s1.09-.18,1.64-.25h0a22.12,22.12,0,0,1,4.93-.15,12.87,12.87,0,0,1,1.65.25c14.81,3.13,30.17,5.47,43.81,11.5a17.23,17.23,0,0,1,5.08,3.6c.39.38.77.78,1.15,1.19.93,1,1.83,2.16,2.7,3.34,3,4,5.64,8.61,8.71,12.36Zm64.08-90c-2.43,2.72-3,7.66-3.25,11.65-1.7,24.64-12.84,43.93-32.29,58.95-7.4,5.72-12.2,4.56-17.58-3.09-7.31-10.42-14.68-21.4-24.29-29.43a72.42,72.42,0,0,0-30.51-15.08c-13.55-2.79-18.69-15.65-30-20.1-4.81-1.89-10.08-2.64-15.14-3.9-.66,1.4-1.31,2.82-2,4.22,10.68,10.29,3.17,18.4-3.79,23.49-15.8,11.56-27.13,25.77-35.87,44.93-2.15-6.26-6.15-12.52-6.15-18.78,0-35.33.22-70.69,1.86-106,.76-16.36,10.41-22.15,29.39-19.94-4.78,11-23.8,13.33-17.76,29.38,6.69-3.56,13.43-8.24,20.9-10.85,13.35-4.71,18-.95,18.14,13,0,4.11,0,8.24,0,12.35l3.77,1.55c2.2-5.4,4.49-10.76,6.58-16.2,2.75-7.16,5-14.5,8.06-21.54a139.09,139.09,0,0,1,10.24-20.28c1.56-2.43,7.72-5.1,8.48-4.35,9.22,9.1,17.82,18.83,28.34,30.31h40.05l-17.3-17.18c.94-1.55,1.86-3.08,2.78-4.62l22.55,5.61c.62-4.18,1.27-8.52,2.57-17.3,13.42,16.57,35.42,18.57,40.37,40.88C498.54,254.66,500.39,272.2,486.19,288.07Z"/><path class="cls-2" d="M346.82,530H274.13l56-58.85C335.78,491.06,341.19,510.13,346.82,530Z"/><path class="cls-2" d="M413.58,484.91l-23.24,25.76c-2.1-12.91-2.1-12.91,20.64-28.05Z"/><path class="cls-3" d="M324.74,378a54.4,54.4,0,0,0,6.61-.56,52.49,52.49,0,0,1-6.61.57,14,14,0,0,1-1.6,0C323.66,378,324.19,378,324.74,378Z"/><path class="cls-3" d="M391.49,379.87l.18,0-.52,0-.59-.05-.65-.06h.15C390.53,379.8,391,379.84,391.49,379.87Z"/><path class="cls-3" d="M405.14,379.8c1.53-.1,3.05-.23,4.58-.39l-1.54.14-1.55.13C406.14,379.73,405.64,379.76,405.14,379.8Z"/><path class="cls-3" d="M409.76,379.41c2.57-.25,5.13-.54,7.71-.83l-1.54.18C413.87,379,411.81,379.22,409.76,379.41Z"/><path class="cls-3" d="M417.47,378.58l3.09-.35-1.54.18Z"/><path class="cls-3" d="M422.11,378.05h0l-1.55.17C421.07,378.16,421.59,378.11,422.11,378.05Z"/><path class="cls-2" d="M385.53,288.91c-.38,2.11-.75,4.23-1.12,6.34l-22.69-3.94c.16-1,.33-2,.49-2.94s.33-2,.5-2.95l11.41,1.74Z"/><text class="cls-4" transform="translate(1085.34 463.67) rotate(-7.5)">H<tspan class="cls-5" x="96.83" y="0">A</tspan></text><text class="cls-4" transform="translate(1213.48 300.05) rotate(-7.5)">H<tspan class="cls-5" x="96.83" y="0">A</tspan></text><text class="cls-4" transform="translate(1328.48 151.05) rotate(-7.5)">H<tspan class="cls-5" x="96.83" y="0">A</tspan></text></g></g></svg>