<svg xmlns="http://www.w3.org/2000/svg" viewBox="0 0 217.99 248.44"><defs><style>.cls-1{fill:#0170b7;}.cls-2{fill:#fff;}.cls-3{fill:#1d84be;}</style></defs><title>Asset 1</title><g id="Layer_2" data-name="Layer 2"><g id="Layer_1-2" data-name="Layer 1"><path class="cls-1" d="M213.37,0c-34.73.12-69.47.07-104.2.07H4.46C2,.06-.33-.63,0,3.67,2.9,36.43,5.5,69.22,8.19,102c3.21,39.08,6.5,78.14,9.57,117.23.26,3.3,1.47,4.48,4.43,5.29q42,11.56,83.85,23.4a12.62,12.62,0,0,0,7.28,0c27.07-7.85,54.15-15.67,81.29-23.27,3.39-1,4.41-2.65,4.63-5.83.73-10.27,1.61-20.53,2.51-30.79q4.27-48.9,8.61-97.8c2.5-28.46,4.83-56.93,7.55-85.37C218.32.53,217.14,0,213.37,0ZM199.14,26.7C198,36,197.29,45.4,196.43,54.75q-2,21.18-3.85,42.36c-.75,8.38-1.41,16.77-2.14,25.16-1.28,14.62-2.62,29.23-3.87,43.85-.76,8.88-1.4,17.77-2.12,26.65-.31,3.78-.78,7.55-1,11.34-.11,2-1.38,2.22-2.9,2.65q-29.07,8.36-58.11,16.81a72.39,72.39,0,0,0-7.63,2.16c-4.66,1.92-5.37-.23-5.25-4.28.21-6.63.07-13.28.07-19.93-17.7-5-35.38-10-53.12-14.8-3.24-.88-4.51-2.26-4.73-5.68-.71-11.09-1.61-22.18-2.87-33.23-.49-4.33.73-5.38,4.89-5.13,6.13.36,12.29.19,18.43,0,2.47-.06,3.47.59,3.65,3.24.34,5,1.21,9.88,1.74,14.82.17,1.6.36,2.76,2.28,3.23,8.69,2.12,17.34,4.41,26,6.56a4.33,4.33,0,0,0,3.81-.64q-.09-20.79-.19-41.58c-18.94-.1-37.88-.32-56.82-.19-4.16,0-5.91-.87-6.12-5.32a94.07,94.07,0,0,0-2.3-16.26c-.78-3.47.54-4.59,3.37-5.79,17.7-7.55,35.33-15.26,53-22.93a14.17,14.17,0,0,0,4.71-3c-1.53-.09-3.05-.26-4.57-.26-18,0-35.91-.08-53.86.09-3.34,0-4.74-.92-5-4.3-.56-6.12-1.22-12.25-2.38-18.27-.7-3.64.14-4.47,3.76-4.44,20.28.16,40.56.08,60.84.07,1.82,0,3.64-.15,5.46-.23,0-7,.19-14,0-20.93-.09-3.36.83-4.64,4.43-4.63q40.61.21,81.21,0C198.9,22,199.6,23.12,199.14,26.7Z"/><path class="cls-2" d="M176.88,69.48C177,73,176,74.69,172.56,76c-17.87,7.07-35.63,14.46-53.41,21.78-1.05.43-2.64.34-2.9,2.34,16.88,0,33.64.1,50.4-.07,3.72,0,5.3.58,4.9,4.85Q168,142.36,165,179.84c-.3,3.65-1.81,4.94-5.08,5.93-16.8,5.11-33.52,10.48-50.27,15.75-17.7-5-35.38-10-53.12-14.8-3.24-.88-4.51-2.26-4.73-5.68-.71-11.09-1.61-22.18-2.87-33.23-.49-4.33.73-5.38,4.89-5.13,6.13.36,12.29.19,18.43,0,2.47-.06,3.47.59,3.65,3.24.34,5,1.21,9.88,1.74,14.82.17,1.6.36,2.76,2.28,3.23,8.69,2.12,17.34,4.41,26,6.56a4.33,4.33,0,0,0,3.81-.64l26.4-4.58c1.77-.31,3-1,3.18-3.11,1-10.4,2-20.78,3.1-31.16.21-2-.21-3.11-2.56-3.07-10.1.18-20.21.24-30.31.34-18.94-.1-37.88-.32-56.82-.19-4.16,0-5.91-.87-6.12-5.32a94.07,94.07,0,0,0-2.3-16.26c-.78-3.47.54-4.59,3.37-5.79,17.7-7.55,35.33-15.26,53-22.93a14.17,14.17,0,0,0,4.71-3c-1.53-.09-3.05-.26-4.57-.26-18,0-35.91-.08-53.86.09-3.34,0-4.74-.92-5-4.3-.56-6.12-1.22-12.25-2.38-18.27-.7-3.64.14-4.47,3.76-4.44,20.28.16,40.56.08,60.84.07,1.82,0,3.64-.15,5.46-.23.83.08,1.65.24,2.47.24,20.1,0,40.2.08,60.29-.06,3.37,0,4.74.72,4.55,4.36C176.59,57.84,176.61,63.68,176.88,69.48Z"/><path class="cls-3" d="M199.14,26.7C198,36,197.29,45.4,196.43,54.75q-2,21.18-3.85,42.36c-.75,8.38-1.41,16.77-2.14,25.16-1.28,14.62-2.62,29.23-3.87,43.85-.76,8.88-1.4,17.77-2.12,26.65-.31,3.78-.78,7.55-1,11.34-.11,2-1.38,2.22-2.9,2.65q-29.07,8.36-58.11,16.81a72.39,72.39,0,0,0-7.63,2.16c-4.66,1.92-5.37-.23-5.25-4.28.21-6.63.07-13.28.07-19.93,16.75-5.27,33.47-10.64,50.27-15.75,3.27-1,4.78-2.28,5.08-5.93q3-37.47,6.55-74.9c.4-4.27-1.18-4.89-4.9-4.85-16.76.17-33.52.07-50.4.07.26-2,1.85-1.91,2.9-2.34C136.93,90.5,154.69,83.11,172.56,76,176,74.69,177,73,176.88,69.48c-.27-5.8-.29-11.64,0-17.44.19-3.64-1.18-4.38-4.55-4.36-20.09.14-38.48-.06-58.58-.07-.82,0-3.35,0-4.18-.11,0-7,.19-14,0-20.93-.09-3.36.83-4.64,4.43-4.63q40.61.21,81.21,0C198.9,22,199.6,23.12,199.14,26.7Z"/><path class="cls-3" d="M142.43,131.08c-1.08,10.38-2.14,20.76-3.1,31.16-.2,2.12-1.41,2.8-3.18,3.11l-26.4,4.58q-.09-20.79-.19-41.58c10.1-.1,20.21-.16,30.31-.34C142.22,128,142.64,129.06,142.43,131.08Z"/></g></g></svg>