<svg xmlns="http://www.w3.org/2000/svg" viewBox="0 0 208.36 208.36"><defs><style>.cls-1{fill:#fff;}.cls-2{fill:#231f20;stroke:#000;stroke-miterlimit:10;}</style></defs><title>Asset 2</title><g id="Layer_2" data-name="Layer 2"><g id="Layer_1-2" data-name="Layer 1"><rect class="cls-1" width="208.36" height="208.36" rx="22.65"/><g id="Layer_2-2" data-name="Layer 2"><g id="Layer_1-2-2" data-name="Layer 1-2"><path class="cls-2" d="M13.1,137.17l30.8-66h7.83l31.06,66H65.46l-4-8.63h-27l-4,8.63Zm28.07-23.23H54.63L48,99.42Z"/><path class="cls-2" d="M113.68,91.41a5.08,5.08,0,0,0-5-5,5,5,0,0,0-4.93,5,4.91,4.91,0,0,0,4.91,4.93h0a20.42,20.42,0,1,1-20.34,20.5v-.17h15.4a4.94,4.94,0,0,0,4.88,5h0a5,5,0,0,0,5-4.93,5.07,5.07,0,0,0-5-5,20.12,20.12,0,0,1-20.24-20V91.5A20.29,20.29,0,0,1,129,91.41Z"/><path class="cls-2" d="M182.94,93a15.46,15.46,0,0,0-11.09-4.31c-9,0-15.49,6.51-15.49,15.49s6.51,15.49,15.49,15.49a15.09,15.09,0,0,0,11.09-4.4l12.32,12.14a33,33,0,1,1-.16-46.64Z"/></g></g></g></g></svg>