<svg xmlns="http://www.w3.org/2000/svg" viewBox="0 0 1920 530"><defs><style>.cls-1{fill:#fbca7e;}.cls-2{fill:#9641ff;}.cls-3{fill:none;stroke:#9641ff;stroke-miterlimit:10;stroke-width:3px;}</style></defs><title>Asset 1</title><g id="Layer_2" data-name="Layer 2"><g id="Layer_1-2" data-name="Layer 1"><rect width="1920" height="530"/><ellipse class="cls-1" cx="231" cy="155" rx="51" ry="61"/><ellipse class="cls-1" cx="436.5" cy="205" rx="52.5" ry="60"/><ellipse class="cls-1" cx="1496.5" cy="177.5" rx="63.5" ry="72.5"/><path class="cls-2" d="M391.93,474.5a356.41,356.41,0,0,1-4.29,55.5H78.36a356.41,356.41,0,0,1-4.29-55.5C74.07,342.23,145.23,235,233,235S391.93,342.23,391.93,474.5Z"/><path class="cls-2" d="M599.82,523.5q0,3.25-.06,6.5H399.46a384.31,384.31,0,0,0,4-55.5c0-61.32-14.22-117.63-38-161.86C387.91,294.37,413.6,284,440.89,284,528.66,284,599.82,391.23,599.82,523.5Z"/><path class="cls-2" d="M1655.72,507.5q0,11.38-.7,22.5H1338.57q-.71-11.1-.7-22.5c0-132.27,71.15-239.5,158.92-239.5S1655.72,375.23,1655.72,507.5Z"/><rect class="cls-3" x="1437.5" y="108.5" width="114" height="140"/><rect class="cls-3" x="183.5" y="96.5" width="92" height="118"/><rect class="cls-3" x="390.5" y="148.5" width="93" height="107"/></g></g></svg>