<svg xmlns="http://www.w3.org/2000/svg" viewBox="0 0 174.65 174.66"><defs><style>.cls-1{fill:#fff;}.cls-2{fill:#f8f8f8;}.cls-3{fill:#141414;}.cls-4{fill:#464646;}</style></defs><title>Asset 2</title><g id="Layer_2" data-name="Layer 2"><g id="Layer_1-2" data-name="Layer 1"><path class="cls-1" d="M88.24,0C39.81-.49-.07,39,0,87.32c.07,48,39.07,87.17,87,87.33A87.51,87.51,0,0,0,174.65,88C175,40,136.17.49,88.24,0ZM138,90.92c-.77.92-2,1.91-2.05,2.9-.33,11.49-5.73,19.93-15.2,26-10.52,6.77-22.11,9.59-34.64,9.09-11.5.43-22.07-2.76-32.34-8.14-16-8.39-16.53-24.76-19.68-39-1.71-7.7,5.83-12.07,13.86-10.7,13.3,2.28,24-7.44,37-7.37,4.64,0,4.31-8.73,6.67-13.27,1.6-3.09,2-9.57,4.93-8.69a34.6,34.6,0,0,0,6.51,1.34l.67.07c7.25.66,14-1.13,21-4.22,3.71-1.63,7.41,2.58,8.52,6.84,1.22,4.72,0,9-4.43,11.54-3.76,2.12-7.93,2-11.23-1.07-1.69-1.58-2.2-4.58-4-5.84-3-2.13-6.6-4.86-10.11-5.2-.23,0-.45,0-.68,0a6.69,6.69,0,0,0-4.16,1.45c-4.6,3.54-5.28,10.51-6.35,16.44-.09.52.71,1.73,1.1,1.73,10.87,0,19.89,9.28,31.06,6.7,5.85-1.35,10.53-.6,14.06,4C142.5,80.55,142.16,85.91,138,90.92Z"/><path class="cls-2" d="M71.22,84a7.47,7.47,0,0,0-5.07,1.79A7.51,7.51,0,0,1,71.22,84a11.43,11.43,0,0,1,2.71.72A11.43,11.43,0,0,0,71.22,84Z"/><path class="cls-3" d="M128.9,57.32c-3.76,2.12-7.93,2-11.23-1.07-1.69-1.58-2.2-4.58-4-5.84-3-2.13-6.6-4.86-10.11-5.2-.23,0-.45,0-.68,0l.21-2.09.67.07c7.25.66,14-1.13,21-4.22,3.71-1.63,7.41,2.58,8.52,6.84C134.55,50.5,133.29,54.83,128.9,57.32Z"/><path class="cls-3" d="M138.59,75.47c-3.53-4.57-8.21-5.32-14.06-4-11.17,2.58-20.19-6.66-31.06-6.7-.39,0-1.19-1.21-1.1-1.73,1.07-5.93,1.75-12.9,6.35-16.44a6.69,6.69,0,0,1,4.16-1.45l.21-2.09a34.6,34.6,0,0,1-6.51-1.34c-2.89-.88-3.33,5.6-4.93,8.69C89.29,55,89.62,63.73,85,63.71c-13-.07-23.73,9.65-37,7.37-8-1.37-15.57,3-13.86,10.7,3.15,14.26,3.69,30.63,19.68,39,10.27,5.38,20.84,8.57,32.34,8.14,12.53.5,24.12-2.32,34.64-9.09,9.47-6.1,14.87-14.54,15.2-26,0-1,1.28-2,2.05-2.9C142.16,85.91,142.5,80.55,138.59,75.47Zm-74.54,15a6.93,6.93,0,0,1,2.1-4.7A7.47,7.47,0,0,1,71.22,84a11.43,11.43,0,0,1,2.71.73,4.31,4.31,0,0,1,.49.22,6.08,6.08,0,0,1,2,1.54,4.94,4.94,0,0,1,.69,1,3.88,3.88,0,0,1,.22.46v0l.06.16a.08.08,0,0,1,0,.05c.05.12.1.26.14.39a5.42,5.42,0,0,1,.19.84,3.85,3.85,0,0,1,.07.49,0,0,0,0,1,0,0l0,.26c0,.23,0,.48,0,.73,0,4.94-3.08,7.13-7.77,6.83C65.79,97.42,63.73,94.41,64.05,90.46Zm6.73,21.37a50.69,50.69,0,0,0,32.76-.23C93,120.47,82,119.54,70.78,111.83Zm39.84-20.6c-.21,4.62-3.29,7.16-8.1,6.44-4.18-.62-6.23-3.31-5.73-7.56s3.43-5.91,6.89-6.12C108.54,84.5,110.8,87.38,110.62,91.23Z"/><path class="cls-1" d="M77.91,90.88c0,4.94-3.08,7.13-7.77,6.83-4.35-.29-6.41-3.3-6.09-7.25a6.93,6.93,0,0,1,2.1-4.7A7.51,7.51,0,0,1,71.22,84a11.43,11.43,0,0,1,2.71.72l.49.22a6.08,6.08,0,0,1,2,1.54,4.94,4.94,0,0,1,.69,1,3.88,3.88,0,0,1,.22.46v0l.06.16a.08.08,0,0,1,0,.05c.05.12.1.26.14.39a5.42,5.42,0,0,1,.19.84,3.85,3.85,0,0,1,.07.49,0,0,0,0,1,0,0l0,.26C77.91,90.38,77.91,90.63,77.91,90.88Z"/><path class="cls-4" d="M73.93,84.7A11.43,11.43,0,0,0,71.22,84a7.51,7.51,0,0,0-5.07,1.78A7.47,7.47,0,0,1,71.22,84,11.43,11.43,0,0,1,73.93,84.7Z"/><path class="cls-1" d="M110.62,91.23c-.21,4.62-3.29,7.16-8.1,6.44-4.18-.62-6.23-3.31-5.73-7.56s3.43-5.91,6.89-6.12C108.54,84.5,110.8,87.38,110.62,91.23Z"/><path class="cls-1" d="M103.54,111.6c-10.55,8.87-21.54,7.94-32.76.23A50.69,50.69,0,0,0,103.54,111.6Z"/></g></g></svg>