<svg xmlns="http://www.w3.org/2000/svg" viewBox="0 0 70.84 70.89"><defs><style>.cls-1{fill:#fff;}.cls-2{fill:#141414;}</style></defs><title>Asset 1</title><g id="Layer_2" data-name="Layer 2"><g id="Layer_1-2" data-name="Layer 1"><path class="cls-1" d="M35.65,0A35.53,35.53,0,0,0,0,35.09v.28A35.51,35.51,0,0,0,35,70.89h.46A35.45,35.45,0,0,0,35.65,0ZM25.94,37.71c0,2.3-.06,4.6,0,6.9.1,2.74.38,4.91-3.81,4.92s-4.44-1.74-4.32-5c.21-5.24.27-10.51,0-15.75-.2-3.76,2.09-3.17,4.39-3.3,2.52-.15,4.05.27,3.79,3.37C25.75,31.79,25.94,34.76,25.94,37.71ZM21.88,21.93c-2.39-.09-4.07-1.28-4.14-3.8-.07-2.8,1.82-4.12,4.33-4.2s4.08,1.54,4.46,4.15A4.07,4.07,0,0,1,21.88,21.93Zm32.78,25.4c-.06,3.32-2.89,1.75-4.54,2s-3.4.45-3.37-2.2c0-3.77,0-7.55-.17-11.32-.1-2.5-.92-4.62-4-4.38-2.77.21-4,2-4.12,4.58a87.48,87.48,0,0,0,0,8.87c.21,3.06-.19,4.64-4,4.67-4,0-4.11-1.85-3.93-4.76.16-2.45,0-4.92,0-7.39V30.49c0-4.93,2.18-7.09,6.27-4.64,3,1.81,4.13.12,6-.53A8.47,8.47,0,0,1,54,31.14C55.33,36.45,54.75,41.93,54.66,47.33Z"/><path class="cls-2" d="M54.66,47.33c-.06,3.32-2.89,1.75-4.54,2s-3.4.45-3.37-2.2c0-3.77,0-7.55-.17-11.32-.1-2.5-.92-4.62-4-4.38-2.77.21-4,2-4.12,4.58a87.48,87.48,0,0,0,0,8.87c.21,3.06-.19,4.64-4,4.67-4,0-4.11-1.85-3.93-4.76.16-2.45,0-4.92,0-7.39V30.49c0-4.93,2.18-7.09,6.27-4.64,3,1.81,4.13.12,6-.53A8.47,8.47,0,0,1,54,31.14C55.33,36.45,54.75,41.93,54.66,47.33Z"/><path class="cls-2" d="M26,44.61c.1,2.74.38,4.91-3.81,4.92s-4.44-1.74-4.32-5c.21-5.24.27-10.51,0-15.75-.2-3.76,2.09-3.17,4.39-3.3,2.52-.15,4.05.27,3.79,3.37-.25,2.93-.06,5.9-.06,8.85C26,40,25.88,42.31,26,44.61Z"/><path class="cls-2" d="M26.53,18.08a4.07,4.07,0,0,1-4.65,3.85c-2.39-.09-4.07-1.28-4.14-3.8-.07-2.8,1.82-4.12,4.33-4.2S26.15,15.47,26.53,18.08Z"/></g></g></svg>