<svg xmlns="http://www.w3.org/2000/svg" viewBox="0 0 1920 530"><defs><style>.cls-1{fill:#fff;}.cls-2{fill:#9641ff;}</style></defs><title>Asset 5</title><g id="Layer_2" data-name="Layer 2"><g id="Layer_1-2" data-name="Layer 1"><rect width="1920" height="530"/></g><g id="Layer_2-2" data-name="Layer 2"><path class="cls-1" d="M1241.75,89.4l13.44-6.24v3L1245,90.58v0l10.16,4.45v3l-13.44-6.24Z"/><path class="cls-1" d="M1258.5,94.33a8.35,8.35,0,0,0,3.66,1c1.29,0,1.82-.44,1.82-1.14s-.42-1-2-1.57c-2.83-1-3.92-2.49-3.89-4.12,0-2.55,2.18-4.48,5.57-4.48a9.18,9.18,0,0,1,3.86.79l-.75,2.94a6.71,6.71,0,0,0-3-.79c-1,0-1.63.42-1.63,1.12s.54,1,2.22,1.57c2.6.9,3.69,2.21,3.72,4.23,0,2.55-2,4.42-5.94,4.42a9.7,9.7,0,0,1-4.42-1Z"/><path class="cls-1" d="M1281,97.72a10.54,10.54,0,0,1-3.81.61c-4.42,0-7.25-2.69-7.25-7,0-4,2.74-7.28,7.84-7.28a10.06,10.06,0,0,1,3.25.53l-.67,3.17a5.74,5.74,0,0,0-2.38-.42A3.84,3.84,0,0,0,1278,95a6.65,6.65,0,0,0,2.44-.42Z"/><path class="cls-1" d="M1283.3,88.87c0-2,0-3.33-.11-4.51h3.67l.14,2.52h.11a4.06,4.06,0,0,1,4.59-2.77v4a6.68,6.68,0,0,0-1.15-.11,2.74,2.74,0,0,0-2.91,2.16,5.52,5.52,0,0,0-.08,1v6.94h-4.26Z"/><path class="cls-1" d="M1298.34,80.55a2.14,2.14,0,0,1-2.3,2.13,2.14,2.14,0,1,1,0-4.28A2.13,2.13,0,0,1,1298.34,80.55Zm-4.4,17.5V84.36h4.26V98.05Z"/><path class="cls-1" d="M1301.61,89c0-1.79,0-3.33-.11-4.59h3.7l.19,1.9h.06a5.27,5.27,0,0,1,4.56-2.21c3,0,5.69,2.61,5.69,7,0,5-3.17,7.34-6.22,7.34a4.23,4.23,0,0,1-3.55-1.57h-.06v6.81h-4.26Zm4.26,3.22a4.7,4.7,0,0,0,.08.9,2.57,2.57,0,0,0,2.5,2c1.84,0,2.94-1.54,2.94-3.86s-1-3.84-2.89-3.84a2.68,2.68,0,0,0-2.55,2.16,3.62,3.62,0,0,0-.08.76Z"/><path class="cls-1" d="M1323.12,80.44v3.92h3.05V87.5h-3.05v5c0,1.65.39,2.41,1.68,2.41a7.62,7.62,0,0,0,1.26-.11l0,3.22a8.51,8.51,0,0,1-2.78.36,4.42,4.42,0,0,1-3.19-1.17c-.78-.82-1.17-2.13-1.17-4.06V87.5h-1.82V84.36H1319v-3Z"/><path class="cls-1" d="M1342,91.89l-13.44,6.16v-3l10.39-4.45v0l-10.39-4.46v-3L1342,89.32Z"/><path class="cls-2" d="M1278.31,165.25V154.7h-1.79v-3.14h1.79V151a6.25,6.25,0,0,1,1.74-4.59,5.54,5.54,0,0,1,3.78-1.38,8.53,8.53,0,0,1,2.27.28l-.17,3.28a4.67,4.67,0,0,0-1.37-.2c-1.4,0-2,1.1-2,2.44v.7h2.74v3.14h-2.71v10.55Z"/><path class="cls-2" d="M1300.29,160.86c0,1.79.06,3.24.11,4.39h-3.69l-.2-1.93h-.08a4.88,4.88,0,0,1-4.29,2.24c-2.77,0-4.81-1.74-4.81-6v-8h4.28v7.36c0,2,.65,3.2,2.13,3.2a2.3,2.3,0,0,0,2.13-1.49,2.41,2.41,0,0,0,.14-.92v-8.15h4.28Z"/><path class="cls-2" d="M1303.71,155.93c0-1.71-.06-3.17-.11-4.37h3.69l.2,1.88h.08a5,5,0,0,1,4.23-2.19c2.8,0,4.9,1.85,4.9,5.88v8.12h-4.26v-7.59c0-1.76-.61-3-2.15-3a2.27,2.27,0,0,0-2.16,1.59,3,3,0,0,0-.17,1.07v7.89h-4.25Z"/><path class="cls-2" d="M1330.39,164.92a10.5,10.5,0,0,1-3.81.61c-4.42,0-7.25-2.69-7.25-7,0-4,2.75-7.28,7.84-7.28a10.06,10.06,0,0,1,3.25.53l-.67,3.17a5.74,5.74,0,0,0-2.38-.42,3.84,3.84,0,0,0,.08,7.67,6.65,6.65,0,0,0,2.44-.42Z"/><path class="cls-2" d="M1338,147.64v3.92h3v3.14h-3v5c0,1.65.39,2.41,1.68,2.41a7.62,7.62,0,0,0,1.26-.11l0,3.22a8.48,8.48,0,0,1-2.77.36,4.42,4.42,0,0,1-3.19-1.17c-.79-.82-1.18-2.13-1.18-4.06v-5.6H1332v-3.14h1.82v-3Z"/><path class="cls-2" d="M1347.86,147.75a2.13,2.13,0,0,1-2.29,2.13,2.14,2.14,0,1,1,0-4.28A2.12,2.12,0,0,1,1347.86,147.75Zm-4.39,17.5V151.56h4.25v13.69Z"/><path class="cls-2" d="M1364.66,158.25a6.87,6.87,0,0,1-7.22,7.31,6.71,6.71,0,0,1-7.08-7.06c0-4.42,2.91-7.25,7.3-7.25A6.66,6.66,0,0,1,1364.66,158.25Zm-9.91.14c0,2.35,1,4.12,2.8,4.12,1.65,0,2.72-1.65,2.72-4.12,0-2-.79-4.11-2.72-4.11S1354.75,156.38,1354.75,158.39Z"/><path class="cls-2" d="M1367.3,155.93c0-1.71-.06-3.17-.12-4.37h3.7l.2,1.88h.08a5,5,0,0,1,4.23-2.19c2.8,0,4.9,1.85,4.9,5.88v8.12H1376v-7.59c0-1.76-.61-3-2.15-3a2.27,2.27,0,0,0-2.16,1.59,3,3,0,0,0-.17,1.07v7.89h-4.25Z"/><path class="cls-2" d="M1395,161.53a8.39,8.39,0,0,0,3.67,1c1.28,0,1.82-.44,1.82-1.14s-.42-1-2-1.57c-2.83-.95-3.92-2.49-3.89-4.12,0-2.55,2.18-4.48,5.57-4.48a9.14,9.14,0,0,1,3.86.79l-.75,2.94a6.67,6.67,0,0,0-3-.79c-1,0-1.62.42-1.62,1.12s.53,1,2.21,1.57c2.6.9,3.69,2.21,3.72,4.23,0,2.55-2,4.42-5.93,4.42a9.71,9.71,0,0,1-4.43-.95Z"/><path class="cls-2" d="M1415,165.25l-.25-1.37h-.08a5,5,0,0,1-3.92,1.68,4.2,4.2,0,0,1-4.43-4.2c0-3.56,3.19-5.26,8-5.24v-.19c0-.73-.39-1.77-2.49-1.77a7.68,7.68,0,0,0-3.78,1l-.79-2.74a11.19,11.19,0,0,1,5.32-1.21c4.56,0,6,2.69,6,5.91v4.76a21,21,0,0,0,.2,3.33Zm-.5-6.47c-2.24,0-4,.51-4,2.16a1.53,1.53,0,0,0,1.68,1.62,2.33,2.33,0,0,0,2.21-1.56,2.92,2.92,0,0,0,.09-.73Z"/><path class="cls-2" d="M1424.81,151.56l2,6.72c.23.81.51,1.82.67,2.55h.09c.19-.73.42-1.77.61-2.55l1.68-6.72h4.57l-3.19,9c-2,5.43-3.28,7.61-4.82,9a7.82,7.82,0,0,1-4.12,1.88l-.89-3.61a5.62,5.62,0,0,0,1.85-.73,5,5,0,0,0,1.76-1.71,1.09,1.09,0,0,0,.22-.61,1.47,1.47,0,0,0-.19-.7l-5-12.52Z"/><path class="cls-2" d="M1440.68,146.38v7.25h7v-7.25H1452v18.87h-4.26v-7.89h-7v7.89h-4.28V146.38Z"/><path class="cls-2" d="M1458.74,159.76c.14,1.77,1.88,2.61,3.87,2.61a12.21,12.21,0,0,0,3.78-.56l.56,2.88a13.53,13.53,0,0,1-5,.84c-4.65,0-7.31-2.69-7.31-7,0-3.47,2.16-7.31,6.92-7.31,4.42,0,6.1,3.45,6.1,6.83a9.59,9.59,0,0,1-.14,1.68Zm5-2.91a2.47,2.47,0,0,0-2.41-2.77,2.79,2.79,0,0,0-2.63,2.77Z"/><path class="cls-2" d="M1470.25,145.37h4.26v19.88h-4.26Z"/><path class="cls-2" d="M1478,145.37h4.26v19.88H1478Z"/><path class="cls-2" d="M1499.18,158.25a6.88,6.88,0,0,1-7.23,7.31,6.71,6.71,0,0,1-7.08-7.06c0-4.42,2.91-7.25,7.31-7.25A6.66,6.66,0,0,1,1499.18,158.25Zm-9.92.14c0,2.35,1,4.12,2.8,4.12,1.66,0,2.72-1.65,2.72-4.12,0-2-.78-4.11-2.72-4.11S1489.26,156.38,1489.26,158.39Z"/><path class="cls-2" d="M1507.94,145.9a21.34,21.34,0,0,0-2.83,11.34,21.58,21.58,0,0,0,2.83,11.26h-3a19.49,19.49,0,0,1-3.19-11.28A19.85,19.85,0,0,1,1505,145.9Z"/><path class="cls-2" d="M1510.6,155.93c0-1.71-.06-3.17-.11-4.37h3.69l.2,1.88h.08a5,5,0,0,1,4.23-2.19c2.8,0,4.9,1.85,4.9,5.88v8.12h-4.25v-7.59c0-1.76-.62-3-2.16-3a2.27,2.27,0,0,0-2.16,1.59,3,3,0,0,0-.16,1.07v7.89h-4.26Z"/><path class="cls-2" d="M1534.79,165.25l-.25-1.37h-.08a5,5,0,0,1-3.92,1.68,4.2,4.2,0,0,1-4.43-4.2c0-3.56,3.19-5.26,8-5.24v-.19c0-.73-.39-1.77-2.49-1.77a7.68,7.68,0,0,0-3.78,1l-.79-2.74a11.19,11.19,0,0,1,5.32-1.21c4.57,0,6,2.69,6,5.91v4.76a21,21,0,0,0,.2,3.33Zm-.5-6.47c-2.24,0-4,.51-4,2.16a1.53,1.53,0,0,0,1.68,1.62,2.34,2.34,0,0,0,2.22-1.56,3.47,3.47,0,0,0,.08-.73Z"/><path class="cls-2" d="M1541.79,155.93c0-1.71,0-3.17-.11-4.37h3.58l.2,1.85h.08a4.76,4.76,0,0,1,4.15-2.16,3.88,3.88,0,0,1,3.75,2.33h.06a6.26,6.26,0,0,1,1.76-1.66,5,5,0,0,1,2.61-.67c2.63,0,4.61,1.85,4.61,5.94v8.06h-4.14V157.8c0-2-.64-3.13-2-3.13a2.06,2.06,0,0,0-2,1.48,3.36,3.36,0,0,0-.17,1.09v8h-4.15v-7.67c0-1.74-.61-2.91-2-2.91a2.18,2.18,0,0,0-2,1.54,2.79,2.79,0,0,0-.16,1.06v8h-4.15Z"/><path class="cls-2" d="M1569.15,159.76c.14,1.77,1.88,2.61,3.86,2.61a12.17,12.17,0,0,0,3.78-.56l.56,2.88a13.47,13.47,0,0,1-4.95.84c-4.65,0-7.31-2.69-7.31-7,0-3.47,2.16-7.31,6.91-7.31,4.43,0,6.11,3.45,6.11,6.83a9.59,9.59,0,0,1-.14,1.68Zm5-2.91a2.47,2.47,0,0,0-2.41-2.77,2.79,2.79,0,0,0-2.63,2.77Z"/><path class="cls-2" d="M1579.93,168.5a22,22,0,0,0,2.83-11.31,21.64,21.64,0,0,0-2.83-11.29h3a19.6,19.6,0,0,1,3.19,11.29,20,20,0,0,1-3.19,11.31Z"/><path class="cls-2" d="M1594.24,156.12c1.93-.05,2.13-1.06,2.13-1.9a21,21,0,0,0-.17-2.18,19.17,19.17,0,0,1-.14-2.22c0-2.63,1.65-3.78,4.25-3.78h1v2.38h-.5c-1.26,0-1.71.76-1.71,2,0,.51.09,1,.14,1.6a17.22,17.22,0,0,1,.14,1.9c0,2.13-.84,2.91-2.38,3.25v.06c1.54.33,2.41,1.14,2.38,3.27a18.4,18.4,0,0,1-.14,2c0,.56-.14,1.09-.14,1.57,0,1.23.42,2,1.71,2h.5v2.35h-1c-2.5,0-4.23-1-4.23-3.81a18.87,18.87,0,0,1,.14-2.21,21.41,21.41,0,0,0,.17-2.19c0-.78-.2-1.84-2.13-1.9Z"/><path class="cls-2" d="M1313.84,189.67c0-2-.06-3.33-.12-4.51h3.67l.14,2.52h.11a4,4,0,0,1,3.7-2.83,4.16,4.16,0,0,1,.9.06v4a6.79,6.79,0,0,0-1.15-.11,2.73,2.73,0,0,0-2.91,2.16,4.65,4.65,0,0,0-.09.95v6.94h-4.25Z"/><path class="cls-2" d="M1327.53,193.36c.14,1.77,1.87,2.61,3.86,2.61a12.17,12.17,0,0,0,3.78-.56l.56,2.88a13.51,13.51,0,0,1-5,.84c-4.65,0-7.31-2.69-7.31-7,0-3.47,2.15-7.31,6.91-7.31,4.43,0,6.11,3.45,6.11,6.83a10.7,10.7,0,0,1-.14,1.68Zm5-2.91a2.47,2.47,0,0,0-2.41-2.77,2.79,2.79,0,0,0-2.63,2.77Z"/><path class="cls-2" d="M1343.8,181.24v3.92h3v3.14h-3v4.95c0,1.65.39,2.41,1.68,2.41a7.62,7.62,0,0,0,1.26-.11l0,3.22a8.44,8.44,0,0,1-2.77.36,4.42,4.42,0,0,1-3.19-1.17,5.71,5.71,0,0,1-1.18-4.06v-5.6h-1.82v-3.14h1.82v-3Z"/><path class="cls-2" d="M1362.22,194.46c0,1.79.06,3.24.11,4.39h-3.69l-.2-1.93h-.08a4.9,4.9,0,0,1-4.29,2.24c-2.77,0-4.81-1.74-4.81-6v-8h4.28v7.36c0,2,.64,3.2,2.13,3.2a2.31,2.31,0,0,0,2.13-1.49,2.41,2.41,0,0,0,.14-.92v-8.15h4.28Z"/><path class="cls-2" d="M1365.64,189.67c0-2-.06-3.33-.12-4.51h3.67l.14,2.52h.11a4,4,0,0,1,3.7-2.83,4.16,4.16,0,0,1,.9.06v4a6.79,6.79,0,0,0-1.15-.11A2.73,2.73,0,0,0,1370,191a4.65,4.65,0,0,0-.09.95v6.94h-4.25Z"/><path class="cls-2" d="M1376.28,189.53c0-1.71-.06-3.17-.12-4.37h3.7l.2,1.88h.08a5,5,0,0,1,4.23-2.19c2.8,0,4.9,1.85,4.9,5.88v8.12H1385v-7.59c0-1.76-.61-3-2.15-3a2.27,2.27,0,0,0-2.16,1.59,3,3,0,0,0-.17,1.07v7.89h-4.25Z"/><path class="cls-2" d="M1398.82,179.5a21.34,21.34,0,0,0-2.83,11.34,21.58,21.58,0,0,0,2.83,11.26h-3a19.49,19.49,0,0,1-3.19-11.28,19.77,19.77,0,0,1,3.19-11.32Z"/><path class="cls-1" d="M1403.8,179.2l2.41,4.25h-2.91l-3.42-4.25Z"/><path class="cls-1" d="M1414.3,180v7.25h7V180h4.25v18.87h-4.25V191h-7v7.89H1410V180Z"/><path class="cls-1" d="M1432.36,193.36c.14,1.77,1.88,2.61,3.86,2.61a12.17,12.17,0,0,0,3.78-.56l.56,2.88a13.47,13.47,0,0,1-5,.84c-4.65,0-7.31-2.69-7.31-7,0-3.47,2.16-7.31,6.91-7.31,4.43,0,6.11,3.45,6.11,6.83a9.59,9.59,0,0,1-.14,1.68Zm5-2.91a2.47,2.47,0,0,0-2.41-2.77,2.79,2.79,0,0,0-2.63,2.77Z"/><path class="cls-1" d="M1443.87,179h4.25v19.88h-4.25Z"/><path class="cls-1" d="M1451.57,179h4.25v19.88h-4.25Z"/><path class="cls-1" d="M1472.79,191.85a6.87,6.87,0,0,1-7.22,7.31,6.71,6.71,0,0,1-7.09-7.06c0-4.42,2.92-7.25,7.31-7.25A6.66,6.66,0,0,1,1472.79,191.85Zm-9.91.14c0,2.35,1,4.12,2.8,4.12,1.65,0,2.72-1.65,2.72-4.12,0-2-.79-4.11-2.72-4.11S1462.88,190,1462.88,192Z"/><path class="cls-1" d="M1485.67,201.29v-2.66a11.34,11.34,0,0,1-4.76-1.21l.84-3.27a10,10,0,0,0,4.65,1.23c1.6,0,2.69-.62,2.69-1.74s-.9-1.73-3-2.43c-3-1-5-2.41-5-5.13,0-2.46,1.74-4.39,4.73-5v-2.66h2.75v2.46a10.19,10.19,0,0,1,4.06.93l-.82,3.16a9.2,9.2,0,0,0-4-1c-1.82,0-2.41.78-2.41,1.57s1,1.51,3.36,2.41c3.34,1.17,4.68,2.71,4.68,5.23s-1.76,4.62-5,5.18v2.86Z"/><path class="cls-1" d="M1495.75,189.72c1.93-.05,2.13-1.06,2.13-1.9a18.58,18.58,0,0,0-.17-2.18,21.69,21.69,0,0,1-.14-2.22c0-2.63,1.65-3.78,4.26-3.78h1V182h-.51c-1.26,0-1.7.76-1.7,2,0,.51.08,1,.14,1.6s.14,1.2.14,1.9c0,2.13-.84,2.91-2.38,3.25v.06c1.54.33,2.4,1.14,2.38,3.27,0,.73-.09,1.37-.14,2a15.71,15.71,0,0,0-.14,1.57c0,1.23.42,2,1.7,2h.51V202h-1c-2.49,0-4.23-1-4.23-3.81a21.32,21.32,0,0,1,.14-2.21,18.91,18.91,0,0,0,.17-2.19c0-.78-.2-1.84-2.13-1.9Z"/><path class="cls-1" d="M1505.41,189.53c0-1.71-.05-3.17-.11-4.37h3.7l.19,1.88h.09a5,5,0,0,1,4.22-2.19c2.8,0,4.9,1.85,4.9,5.88v8.12h-4.25v-7.59c0-1.76-.62-3-2.16-3a2.27,2.27,0,0,0-2.15,1.59,2.76,2.76,0,0,0-.17,1.07v7.89h-4.26Z"/><path class="cls-1" d="M1529.6,198.85l-.25-1.37h-.08a5,5,0,0,1-3.92,1.68,4.21,4.21,0,0,1-4.43-4.2c0-3.56,3.2-5.26,8-5.24v-.19c0-.73-.39-1.77-2.49-1.77a7.68,7.68,0,0,0-3.78,1l-.79-2.74a11.23,11.23,0,0,1,5.32-1.21c4.57,0,6,2.69,6,5.91v4.76a21,21,0,0,0,.2,3.33Zm-.5-6.47c-2.24,0-4,.51-4,2.16a1.53,1.53,0,0,0,1.68,1.62,2.33,2.33,0,0,0,2.22-1.56,3.47,3.47,0,0,0,.08-.73Z"/><path class="cls-1" d="M1536.6,189.53c0-1.71,0-3.17-.11-4.37h3.59l.19,1.85h.09a4.73,4.73,0,0,1,4.14-2.16,3.88,3.88,0,0,1,3.75,2.33h.06a6.26,6.26,0,0,1,1.76-1.66,5,5,0,0,1,2.61-.67c2.63,0,4.62,1.85,4.62,5.94v8.06h-4.15V191.4c0-2-.64-3.13-2-3.13a2.08,2.08,0,0,0-2,1.48,3.36,3.36,0,0,0-.17,1.09v8h-4.15v-7.67c0-1.74-.61-2.91-2-2.91a2.16,2.16,0,0,0-2,1.54,2.8,2.8,0,0,0-.17,1.06v8h-4.15Z"/><path class="cls-1" d="M1564,193.36c.14,1.77,1.88,2.61,3.86,2.61a12.12,12.12,0,0,0,3.78-.56l.56,2.88a13.47,13.47,0,0,1-5,.84c-4.65,0-7.31-2.69-7.31-7,0-3.47,2.16-7.31,6.92-7.31,4.42,0,6.1,3.45,6.1,6.83a9.59,9.59,0,0,1-.14,1.68Zm5-2.91a2.47,2.47,0,0,0-2.41-2.77,2.79,2.79,0,0,0-2.63,2.77Z"/><path class="cls-1" d="M1581.71,191.88c-1.9.06-2.13,1.12-2.13,1.9a21.41,21.41,0,0,0,.17,2.19,19.07,19.07,0,0,1,.17,2.21c0,2.8-1.74,3.81-4.26,3.81h-1v-2.35h.5c1.29,0,1.71-.79,1.71-2a11.4,11.4,0,0,0-.14-1.57,18.4,18.4,0,0,1-.14-2c0-2.13.84-2.94,2.41-3.27v-.06c-1.57-.34-2.44-1.12-2.41-3.25a17.22,17.22,0,0,1,.14-1.9,11.82,11.82,0,0,0,.14-1.6c0-1.23-.45-2-1.71-2h-.5v-2.38h1c2.63,0,4.28,1.15,4.28,3.78a19.41,19.41,0,0,1-.17,2.22,21,21,0,0,0-.17,2.18c0,.84.23,1.85,2.13,1.9Z"/><path class="cls-1" d="M1586.58,179.2l2.41,4.25h-2.91l-3.42-4.25Z"/><path class="cls-2" d="M1591.93,202.1a22,22,0,0,0,2.83-11.31,21.64,21.64,0,0,0-2.83-11.29h3a19.6,19.6,0,0,1,3.19,11.29,20,20,0,0,1-3.19,11.31Z"/><path class="cls-2" d="M1599.8,202.18a49.9,49.9,0,0,0,2-8l4.29-.28a39.11,39.11,0,0,1-3.53,8Zm1.51-14.61a2.49,2.49,0,1,1,2.49,2.55A2.42,2.42,0,0,1,1601.31,187.57Z"/><path class="cls-2" d="M1284.08,225.48c-1.9.06-2.13,1.12-2.13,1.9a21.41,21.41,0,0,0,.17,2.19,21.57,21.57,0,0,1,.17,2.21c0,2.8-1.74,3.81-4.26,3.81h-1v-2.35h.51c1.29,0,1.71-.79,1.71-2a11.4,11.4,0,0,0-.14-1.57,18.4,18.4,0,0,1-.14-2c0-2.13.84-2.94,2.4-3.27v-.06c-1.56-.34-2.43-1.12-2.4-3.25a17.22,17.22,0,0,1,.14-1.9,11.82,11.82,0,0,0,.14-1.6c0-1.23-.45-2-1.71-2H1277v-2.38h1c2.64,0,4.29,1.15,4.29,3.78a22,22,0,0,1-.17,2.22,21,21,0,0,0-.17,2.18c0,.84.23,1.85,2.13,1.9Z"/><path class="cls-2" d="M1277.84,290.33c0-1.71-.06-3.17-.12-4.37h3.7l.2,1.88h.08a5,5,0,0,1,4.23-2.19c2.8,0,4.9,1.85,4.9,5.88v8.12h-4.26v-7.59c0-1.76-.61-3-2.15-3a2.27,2.27,0,0,0-2.16,1.59,3,3,0,0,0-.17,1.07v7.89h-4.25Z"/><path class="cls-2" d="M1302,299.65l-.25-1.37h-.09a4.92,4.92,0,0,1-3.92,1.68,4.2,4.2,0,0,1-4.42-4.2c0-3.56,3.19-5.26,8-5.24v-.19c0-.73-.39-1.77-2.49-1.77a7.71,7.71,0,0,0-3.78,1l-.78-2.74a11.19,11.19,0,0,1,5.32-1.21c4.56,0,6,2.69,6,5.91v4.76a21.22,21.22,0,0,0,.19,3.33Zm-.51-6.47c-2.24,0-4,.51-4,2.16a1.53,1.53,0,0,0,1.68,1.62,2.33,2.33,0,0,0,2.21-1.56,2.92,2.92,0,0,0,.08-.73Z"/><path class="cls-2" d="M1309,290.33c0-1.71-.06-3.17-.11-4.37h3.58l.2,1.85h.08a4.74,4.74,0,0,1,4.14-2.16,3.89,3.89,0,0,1,3.76,2.33h0a6.29,6.29,0,0,1,1.77-1.66,5,5,0,0,1,2.6-.67c2.63,0,4.62,1.85,4.62,5.94v8.06h-4.14V292.2c0-2-.65-3.13-2-3.13a2.08,2.08,0,0,0-2,1.48,3.65,3.65,0,0,0-.17,1.09v8h-4.14V292c0-1.74-.62-2.91-2-2.91a2.17,2.17,0,0,0-2,1.54,2.8,2.8,0,0,0-.17,1.06v8H1309Z"/><path class="cls-2" d="M1336.38,294.16c.14,1.77,1.88,2.61,3.87,2.61a12.21,12.21,0,0,0,3.78-.56l.56,2.88a13.53,13.53,0,0,1-5,.84c-4.65,0-7.31-2.69-7.31-7,0-3.47,2.16-7.31,6.92-7.31,4.42,0,6.1,3.45,6.1,6.83a9.59,9.59,0,0,1-.14,1.68Zm5-2.91a2.47,2.47,0,0,0-2.41-2.77,2.79,2.79,0,0,0-2.63,2.77Z"/><path class="cls-1" d="M1353,290.55V288h14.45v2.6Zm0,5.8v-2.61h14.45v2.61Z"/><path class="cls-2" d="M1389,286c-.06.87-.11,2-.11,4.06v7.64c0,2.64-.54,4.79-2.08,6.16a8.42,8.42,0,0,1-5.57,1.68,10.71,10.71,0,0,1-4.93-1.06l.85-3.22a8.4,8.4,0,0,0,4,1,3.28,3.28,0,0,0,3.56-3.62v-.89h-.06a4.37,4.37,0,0,1-3.7,1.79c-3.38,0-5.79-2.74-5.79-6.69,0-4.4,2.85-7.2,6.21-7.2a4.14,4.14,0,0,1,3.76,1.93h.05l.14-1.62Zm-4.37,5.57a3.67,3.67,0,0,0-.08-.78,2.34,2.34,0,0,0-2.3-1.88c-1.54,0-2.8,1.4-2.8,3.89,0,2.05,1,3.64,2.8,3.64a2.31,2.31,0,0,0,2.24-1.73,3.7,3.7,0,0,0,.14-1.12Z"/><path class="cls-2" d="M1395.55,294.16c.14,1.77,1.87,2.61,3.86,2.61a12.17,12.17,0,0,0,3.78-.56l.56,2.88a13.51,13.51,0,0,1-5,.84c-4.65,0-7.31-2.69-7.31-7,0-3.47,2.15-7.31,6.91-7.31,4.43,0,6.11,3.45,6.11,6.83a10.7,10.7,0,0,1-.14,1.68Zm5-2.91a2.47,2.47,0,0,0-2.41-2.77,2.79,2.79,0,0,0-2.63,2.77Z"/><path class="cls-2" d="M1411.82,282V286h3v3.14h-3v4.95c0,1.65.39,2.41,1.68,2.41a7.62,7.62,0,0,0,1.26-.11l0,3.22a8.44,8.44,0,0,1-2.77.36,4.42,4.42,0,0,1-3.19-1.17,5.71,5.71,0,0,1-1.18-4.06v-5.6h-1.82V286h1.82v-3Z"/><path class="cls-2" d="M1428.7,291.67h-6.94v4.48h7.75v3.5h-12V280.78h11.65v3.5h-7.36v3.92h6.94Z"/><path class="cls-2" d="M1432.4,279.77h4.25v19.88h-4.25Z"/><path class="cls-2" d="M1443.37,294.16c.14,1.77,1.88,2.61,3.87,2.61a12.21,12.21,0,0,0,3.78-.56l.56,2.88a13.53,13.53,0,0,1-5,.84c-4.65,0-7.31-2.69-7.31-7,0-3.47,2.16-7.31,6.92-7.31,4.42,0,6.1,3.45,6.1,6.83a9.59,9.59,0,0,1-.14,1.68Zm5-2.91c0-1-.44-2.77-2.4-2.77a2.8,2.8,0,0,0-2.64,2.77Z"/><path class="cls-2" d="M1454.88,290.33c0-1.71-.05-3.17-.11-4.37h3.58l.2,1.85h.08a4.75,4.75,0,0,1,4.15-2.16,3.88,3.88,0,0,1,3.75,2.33h0a6.43,6.43,0,0,1,1.77-1.66,5,5,0,0,1,2.6-.67c2.63,0,4.62,1.85,4.62,5.94v8.06h-4.14V292.2c0-2-.64-3.13-2-3.13a2.08,2.08,0,0,0-2,1.48,3.64,3.64,0,0,0-.16,1.09v8h-4.15V292c0-1.74-.62-2.91-2-2.91a2.18,2.18,0,0,0-2,1.54,2.8,2.8,0,0,0-.17,1.06v8h-4.14Z"/><path class="cls-2" d="M1482.24,294.16c.14,1.77,1.87,2.61,3.86,2.61a12.17,12.17,0,0,0,3.78-.56l.56,2.88a13.51,13.51,0,0,1-5,.84c-4.65,0-7.31-2.69-7.31-7,0-3.47,2.15-7.31,6.91-7.31,4.43,0,6.11,3.45,6.11,6.83a10.7,10.7,0,0,1-.14,1.68Zm5-2.91a2.47,2.47,0,0,0-2.41-2.77,2.79,2.79,0,0,0-2.63,2.77Z"/><path class="cls-2" d="M1493.75,290.33c0-1.71-.06-3.17-.12-4.37h3.7l.2,1.88h.08a5,5,0,0,1,4.23-2.19c2.8,0,4.9,1.85,4.9,5.88v8.12h-4.26v-7.59c0-1.76-.61-3-2.15-3a2.27,2.27,0,0,0-2.16,1.59,3,3,0,0,0-.17,1.07v7.89h-4.25Z"/><path class="cls-2" d="M1514.75,282V286h3v3.14h-3v4.95c0,1.65.39,2.41,1.68,2.41a7.62,7.62,0,0,0,1.26-.11l0,3.22a8.44,8.44,0,0,1-2.77.36,4.42,4.42,0,0,1-3.19-1.17c-.79-.82-1.18-2.13-1.18-4.06v-5.6h-1.82V286h1.82v-3Z"/><path class="cls-2" d="M1520.4,281a34.54,34.54,0,0,1,5.52-.39c2.6,0,4.2.25,5.57,1.06a4.12,4.12,0,0,1,2.27,3.7,4.26,4.26,0,0,1-3.11,4v.06a4.73,4.73,0,0,1,3.75,4.65,5,5,0,0,1-2,4c-1.37,1.09-3.67,1.71-7.42,1.71a33,33,0,0,1-4.62-.28Zm4.23,7.23h1.4c2.24,0,3.44-.93,3.44-2.33s-1.09-2.18-3-2.18a11.14,11.14,0,0,0-1.82.11Zm0,8.37a15,15,0,0,0,1.65.05c1.93,0,3.64-.72,3.64-2.71s-1.71-2.66-3.84-2.66h-1.45Z"/><path class="cls-2" d="M1540.2,286l2,6.72c.22.81.51,1.82.67,2.55h.09c.19-.73.42-1.77.61-2.55l1.68-6.72h4.57l-3.19,9c-2,5.43-3.28,7.61-4.82,9a7.82,7.82,0,0,1-4.12,1.88l-.89-3.61a5.49,5.49,0,0,0,1.84-.73,4.9,4.9,0,0,0,1.77-1.71,1.09,1.09,0,0,0,.22-.61,1.61,1.61,0,0,0-.19-.7l-5-12.52Z"/><path class="cls-2" d="M1556.07,280.78v18.87h-4.28V280.78Z"/><path class="cls-2" d="M1572.82,279.77v15.79c0,1.54,0,3.17.11,4.09h-3.78l-.2-2h0a4.78,4.78,0,0,1-4.29,2.32c-3.25,0-5.85-2.77-5.85-7,0-4.62,2.86-7.28,6.13-7.28a4.16,4.16,0,0,1,3.61,1.54h.06v-7.42Zm-4.26,12a6.32,6.32,0,0,0-.06-.76,2.55,2.55,0,0,0-2.49-2.1c-1.93,0-2.94,1.74-2.94,3.89,0,2.33,1.15,3.78,2.91,3.78a2.49,2.49,0,0,0,2.47-2,3.82,3.82,0,0,0,.11-1Z"/><path class="cls-2" d="M1582.36,280.3a24,24,0,0,0,0,22.6h-3a19.41,19.41,0,0,1-3.2-11.28,19.76,19.76,0,0,1,3.2-11.32Z"/><path class="cls-1" d="M1590,280.47a37.12,37.12,0,0,1-3.36,7.59l-2.58.22a42.6,42.6,0,0,0,1.94-7.56Z"/><path class="cls-1" d="M1590.85,290.33c0-1.71-.06-3.17-.11-4.37h3.69l.2,1.88h.08a5,5,0,0,1,4.23-2.19c2.8,0,4.9,1.85,4.9,5.88v8.12h-4.26v-7.59c0-1.76-.61-3-2.15-3a2.27,2.27,0,0,0-2.16,1.59,3,3,0,0,0-.17,1.07v7.89h-4.25Z"/><path class="cls-1" d="M1615,299.65l-.25-1.37h-.09a4.92,4.92,0,0,1-3.92,1.68,4.2,4.2,0,0,1-4.42-4.2c0-3.56,3.19-5.26,8-5.24v-.19c0-.73-.4-1.77-2.5-1.77a7.71,7.71,0,0,0-3.78,1l-.78-2.74a11.19,11.19,0,0,1,5.32-1.21c4.56,0,6,2.69,6,5.91v4.76a21,21,0,0,0,.2,3.33Zm-.5-6.47c-2.24,0-4,.51-4,2.16a1.53,1.53,0,0,0,1.68,1.62,2.33,2.33,0,0,0,2.21-1.56,2.92,2.92,0,0,0,.09-.73Z"/><path class="cls-1" d="M1622,290.33c0-1.71-.06-3.17-.11-4.37h3.58l.2,1.85h.08a4.75,4.75,0,0,1,4.15-2.16,3.88,3.88,0,0,1,3.75,2.33h0a6.29,6.29,0,0,1,1.77-1.66,5,5,0,0,1,2.6-.67c2.63,0,4.62,1.85,4.62,5.94v8.06h-4.14V292.2c0-2-.65-3.13-2-3.13a2.08,2.08,0,0,0-2,1.48,3.65,3.65,0,0,0-.17,1.09v8h-4.14V292c0-1.74-.62-2.91-2-2.91a2.17,2.17,0,0,0-2,1.54,2.8,2.8,0,0,0-.17,1.06v8H1622Z"/><path class="cls-1" d="M1649.4,294.16c.14,1.77,1.87,2.61,3.86,2.61a12.17,12.17,0,0,0,3.78-.56l.56,2.88a13.53,13.53,0,0,1-5,.84c-4.64,0-7.3-2.69-7.3-7,0-3.47,2.15-7.31,6.91-7.31,4.43,0,6.11,3.45,6.11,6.83a10.7,10.7,0,0,1-.14,1.68Zm5-2.91a2.47,2.47,0,0,0-2.41-2.77,2.79,2.79,0,0,0-2.63,2.77Z"/><path class="cls-1" d="M1665.22,280.47a37.12,37.12,0,0,1-3.36,7.59l-2.58.22a41.73,41.73,0,0,0,1.93-7.56Z"/><path class="cls-2" d="M1666.81,302.9a22,22,0,0,0,2.83-11.31,21.64,21.64,0,0,0-2.83-11.29h3a19.6,19.6,0,0,1,3.19,11.29,19.89,19.89,0,0,1-3.19,11.31Z"/><path class="cls-2" d="M1674.68,303a49.9,49.9,0,0,0,2-8l4.29-.28a38.57,38.57,0,0,1-3.53,8Zm1.51-14.61a2.5,2.5,0,1,1,2.49,2.55A2.42,2.42,0,0,1,1676.19,288.37Z"/><path class="cls-2" d="M1277.84,357.53c0-1.71-.06-3.17-.12-4.37h3.7l.2,1.88h.08a5,5,0,0,1,4.23-2.19c2.8,0,4.9,1.85,4.9,5.88v8.12h-4.26v-7.59c0-1.76-.61-3-2.15-3a2.27,2.27,0,0,0-2.16,1.59,3,3,0,0,0-.17,1.07v7.89h-4.25Z"/><path class="cls-2" d="M1302,366.85l-.25-1.37h-.09a4.92,4.92,0,0,1-3.92,1.68,4.2,4.2,0,0,1-4.42-4.2c0-3.56,3.19-5.26,8-5.24v-.19c0-.73-.39-1.77-2.49-1.77a7.71,7.71,0,0,0-3.78,1l-.78-2.74a11.19,11.19,0,0,1,5.32-1.21c4.56,0,6,2.69,6,5.91v4.76a21.22,21.22,0,0,0,.19,3.33Zm-.51-6.47c-2.24,0-4,.51-4,2.16a1.53,1.53,0,0,0,1.68,1.62,2.33,2.33,0,0,0,2.21-1.56,2.92,2.92,0,0,0,.08-.73Z"/><path class="cls-2" d="M1309,357.53c0-1.71-.06-3.17-.11-4.37h3.58l.2,1.85h.08a4.74,4.74,0,0,1,4.14-2.16,3.89,3.89,0,0,1,3.76,2.33h0a6.29,6.29,0,0,1,1.77-1.66,5,5,0,0,1,2.6-.67c2.63,0,4.62,1.85,4.62,5.94v8.06h-4.14V359.4c0-2-.65-3.13-2-3.13a2.08,2.08,0,0,0-2,1.48,3.65,3.65,0,0,0-.17,1.09v8h-4.14v-7.67c0-1.74-.62-2.91-2-2.91a2.17,2.17,0,0,0-2,1.54,2.8,2.8,0,0,0-.17,1.06v8H1309Z"/><path class="cls-2" d="M1336.38,361.36c.14,1.77,1.88,2.61,3.87,2.61a12.21,12.21,0,0,0,3.78-.56l.56,2.88a13.53,13.53,0,0,1-5,.84c-4.65,0-7.31-2.69-7.31-7,0-3.47,2.16-7.31,6.92-7.31,4.42,0,6.1,3.45,6.1,6.83a9.59,9.59,0,0,1-.14,1.68Zm5-2.91a2.47,2.47,0,0,0-2.41-2.77,2.79,2.79,0,0,0-2.63,2.77Z"/><path class="cls-2" d="M1347.14,364.58a2.46,2.46,0,0,1,2.52-2.6,2.59,2.59,0,1,1-2.52,2.6Z"/><path class="cls-2" d="M1359.12,349.35a2.13,2.13,0,0,1-2.29,2.13,2.14,2.14,0,1,1,0-4.28A2.13,2.13,0,0,1,1359.12,349.35Zm-4.39,17.5V353.16H1359v13.69Z"/><path class="cls-2" d="M1362.4,357.53c0-1.71-.06-3.17-.11-4.37H1366l.2,1.88h.08a5,5,0,0,1,4.23-2.19c2.8,0,4.9,1.85,4.9,5.88v8.12h-4.26v-7.59c0-1.76-.61-3-2.15-3a2.27,2.27,0,0,0-2.16,1.59,3,3,0,0,0-.17,1.07v7.89h-4.25Z"/><path class="cls-2" d="M1378.81,357.53c0-1.71-.06-3.17-.12-4.37h3.7l.2,1.88h.08a5,5,0,0,1,4.23-2.19c2.8,0,4.9,1.85,4.9,5.88v8.12h-4.26v-7.59c0-1.76-.61-3-2.15-3a2.27,2.27,0,0,0-2.16,1.59,3,3,0,0,0-.17,1.07v7.89h-4.25Z"/><path class="cls-2" d="M1398.49,361.36c.14,1.77,1.88,2.61,3.86,2.61a12.12,12.12,0,0,0,3.78-.56l.56,2.88a13.47,13.47,0,0,1-5,.84c-4.65,0-7.31-2.69-7.31-7,0-3.47,2.16-7.31,6.92-7.31,4.42,0,6.1,3.45,6.1,6.83a9.59,9.59,0,0,1-.14,1.68Zm5-2.91a2.47,2.47,0,0,0-2.41-2.77,2.79,2.79,0,0,0-2.63,2.77Z"/><path class="cls-2" d="M1410,357.67c0-2-.06-3.33-.12-4.51h3.67l.14,2.52h.11a4,4,0,0,1,3.7-2.83,4.16,4.16,0,0,1,.9.06v4a5.89,5.89,0,0,0-1.15-.11,2.73,2.73,0,0,0-2.91,2.16,4.65,4.65,0,0,0-.09,1v6.94H1410Z"/><path class="cls-2" d="M1423.86,351.56h-5.07V348h14.5v3.58h-5.15v15.29h-4.28Z"/><path class="cls-2" d="M1436.43,361.36c.14,1.77,1.88,2.61,3.86,2.61a12.17,12.17,0,0,0,3.78-.56l.56,2.88a13.47,13.47,0,0,1-5,.84c-4.65,0-7.31-2.69-7.31-7,0-3.47,2.16-7.31,6.92-7.31,4.42,0,6.1,3.45,6.1,6.83a9.59,9.59,0,0,1-.14,1.68Zm5-2.91a2.47,2.47,0,0,0-2.41-2.77,2.79,2.79,0,0,0-2.63,2.77Z"/><path class="cls-2" d="M1450.85,353.16l1.34,2.27c.4.7.76,1.4,1.12,2h.06c.36-.73.7-1.43,1.06-2.1l1.21-2.21h4.62l-4.51,6.52,4.56,7.17h-4.81l-1.37-2.46c-.4-.67-.73-1.37-1.07-2.07H1453c-.34.72-.7,1.4-1,2.07l-1.29,2.46H1446l4.65-7-4.54-6.72Z"/><path class="cls-2" d="M1467.26,349.24v3.92h3v3.14h-3v4.95c0,1.65.39,2.41,1.68,2.41a7.62,7.62,0,0,0,1.26-.11l0,3.22a8.51,8.51,0,0,1-2.78.36,4.42,4.42,0,0,1-3.19-1.17c-.78-.82-1.17-2.13-1.17-4.06v-5.6h-1.82v-3.14h1.82v-3Z"/><path class="cls-1" d="M1477.84,357.75v-2.6h14.45v2.6Zm0,5.8v-2.61h14.45v2.61Z"/><path class="cls-2" d="M1500.75,363.13a8.35,8.35,0,0,0,3.66,1c1.29,0,1.82-.44,1.82-1.14s-.42-1-2-1.57c-2.83-.95-3.92-2.49-3.89-4.12,0-2.55,2.18-4.48,5.57-4.48a9.18,9.18,0,0,1,3.86.79l-.75,2.94a6.71,6.71,0,0,0-3-.79c-1,0-1.63.42-1.63,1.12s.54,1,2.22,1.57c2.6.9,3.69,2.21,3.72,4.23,0,2.55-2,4.42-5.94,4.42a9.7,9.7,0,0,1-4.42-.95Z"/><path class="cls-2" d="M1520.71,366.85l-.25-1.37h-.09a4.92,4.92,0,0,1-3.92,1.68A4.2,4.2,0,0,1,1512,363c0-3.56,3.19-5.26,8-5.24v-.19c0-.73-.39-1.77-2.49-1.77a7.71,7.71,0,0,0-3.78,1l-.78-2.74a11.19,11.19,0,0,1,5.32-1.21c4.56,0,6,2.69,6,5.91v4.76a21.22,21.22,0,0,0,.19,3.33Zm-.5-6.47c-2.25,0-4,.51-4,2.16a1.53,1.53,0,0,0,1.68,1.62,2.33,2.33,0,0,0,2.21-1.56,2.92,2.92,0,0,0,.09-.73Z"/><path class="cls-2" d="M1530.57,353.16l2,6.72c.22.81.5,1.82.67,2.55h.09c.19-.73.42-1.77.61-2.55l1.68-6.72h4.56l-3.19,9c-2,5.43-3.27,7.61-4.81,9a7.85,7.85,0,0,1-4.12,1.88l-.89-3.61a5.49,5.49,0,0,0,1.84-.73,4.9,4.9,0,0,0,1.77-1.71,1.09,1.09,0,0,0,.22-.61,1.52,1.52,0,0,0-.2-.7l-5-12.52Z"/><path class="cls-2" d="M1546.44,348v7.25h7V348h4.25v18.87h-4.25V359h-7v7.89h-4.28V348Z"/><path class="cls-2" d="M1564.5,361.36c.14,1.77,1.88,2.61,3.86,2.61a12.12,12.12,0,0,0,3.78-.56l.56,2.88a13.47,13.47,0,0,1-5,.84c-4.65,0-7.31-2.69-7.31-7,0-3.47,2.16-7.31,6.92-7.31,4.42,0,6.1,3.45,6.1,6.83a9.59,9.59,0,0,1-.14,1.68Zm5-2.91a2.47,2.47,0,0,0-2.41-2.77,2.79,2.79,0,0,0-2.63,2.77Z"/><path class="cls-2" d="M1576,347h4.25v19.88H1576Z"/><path class="cls-2" d="M1583.71,347H1588v19.88h-4.25Z"/><path class="cls-2" d="M1604.93,359.85a6.87,6.87,0,0,1-7.22,7.31,6.71,6.71,0,0,1-7.08-7.06c0-4.42,2.91-7.25,7.3-7.25A6.66,6.66,0,0,1,1604.93,359.85ZM1595,360c0,2.35,1,4.12,2.8,4.12,1.65,0,2.72-1.65,2.72-4.12,0-2-.79-4.11-2.72-4.11S1595,358,1595,360Z"/><path class="cls-2" d="M1613.7,347.5a21.34,21.34,0,0,0-2.83,11.34,21.58,21.58,0,0,0,2.83,11.26h-3a19.49,19.49,0,0,1-3.19-11.28,19.85,19.85,0,0,1,3.19-11.32Z"/><path class="cls-1" d="M1621.31,347.67a36.58,36.58,0,0,1-3.36,7.59l-2.57.22a41.73,41.73,0,0,0,1.93-7.56Z"/><path class="cls-1" d="M1627.89,351.56h-5.06V348h14.5v3.58h-5.15v15.29h-4.29Z"/><path class="cls-1" d="M1643.88,348v18.87h-4.28V348Z"/><path class="cls-1" d="M1663.54,359.63c-.09-2.27-.17-5-.17-7.76h-.09c-.58,2.41-1.37,5.1-2.1,7.31l-2.29,7.36h-3.33l-2-7.3c-.62-2.22-1.26-4.9-1.71-7.37h0c-.12,2.55-.2,5.46-.34,7.81l-.34,7.17h-3.94l1.2-18.87H1654l1.85,6.3c.59,2.18,1.18,4.54,1.6,6.75h.08c.53-2.19,1.18-4.68,1.79-6.78l2-6.27H1667l1,18.87h-4.17Z"/><path class="cls-1" d="M1676.08,347.67a37.12,37.12,0,0,1-3.36,7.59l-2.58.22a42.6,42.6,0,0,0,1.94-7.56Z"/><path class="cls-2" d="M1677.68,370.1a22,22,0,0,0,2.82-11.31,21.75,21.75,0,0,0-2.82-11.29h3a19.52,19.52,0,0,1,3.2,11.29,19.88,19.88,0,0,1-3.2,11.31Z"/><path class="cls-2" d="M1685.54,370.18a49.93,49.93,0,0,0,2-7.95l4.28-.28a38,38,0,0,1-3.53,8Zm1.52-14.61a2.49,2.49,0,1,1,2.49,2.55A2.42,2.42,0,0,1,1687.06,355.57Z"/><path class="cls-1" d="M1241.75,425.4l13.44-6.24v3L1245,426.58v.05l10.16,4.45v3l-13.44-6.24Z"/><path class="cls-1" d="M1257.26,435.17l6-20.3h2.82l-6,20.3Z"/><path class="cls-1" d="M1267.76,430.33a8.43,8.43,0,0,0,3.67,1c1.29,0,1.82-.44,1.82-1.14s-.42-1-2-1.57c-2.83-1-3.92-2.49-3.9-4.12,0-2.55,2.19-4.48,5.58-4.48a9.18,9.18,0,0,1,3.86.79l-.76,2.93a6.78,6.78,0,0,0-3-.78c-1,0-1.62.42-1.62,1.12s.53,1,2.21,1.57c2.61.9,3.7,2.21,3.73,4.23,0,2.55-2,4.42-5.94,4.42a9.67,9.67,0,0,1-4.42-.95Z"/><path class="cls-1" d="M1290.22,433.72a10.58,10.58,0,0,1-3.81.61c-4.42,0-7.25-2.69-7.25-7,0-4,2.74-7.28,7.84-7.28a10.06,10.06,0,0,1,3.25.53l-.68,3.17a5.71,5.71,0,0,0-2.38-.42,3.84,3.84,0,0,0,.09,7.67,6.55,6.55,0,0,0,2.43-.42Z"/><path class="cls-1" d="M1292.57,424.87c0-2-.06-3.33-.11-4.51h3.67l.14,2.52h.11a4,4,0,0,1,3.69-2.83,4.11,4.11,0,0,1,.9.06v4a6.68,6.68,0,0,0-1.15-.11,2.73,2.73,0,0,0-2.91,2.16,4.68,4.68,0,0,0-.08.95v6.94h-4.26Z"/><path class="cls-1" d="M1307.61,416.55a2.14,2.14,0,0,1-2.3,2.13,2.14,2.14,0,1,1,0-4.28A2.13,2.13,0,0,1,1307.61,416.55Zm-4.4,17.5V420.36h4.26v13.69Z"/><path class="cls-1" d="M1310.88,425c0-1.79-.05-3.33-.11-4.59h3.7l.19,1.9h.06a5.26,5.26,0,0,1,4.56-2.21c3,0,5.69,2.61,5.69,7,0,5-3.17,7.34-6.22,7.34a4.26,4.26,0,0,1-3.56-1.57h0v6.81h-4.26Zm4.26,3.22a4.78,4.78,0,0,0,.08.9,2.57,2.57,0,0,0,2.49,2c1.85,0,2.94-1.54,2.94-3.86s-1-3.84-2.88-3.84a2.68,2.68,0,0,0-2.55,2.16,3.62,3.62,0,0,0-.08.76Z"/><path class="cls-1" d="M1332.39,416.44v3.92h3v3.14h-3v4.95c0,1.65.39,2.41,1.68,2.41a7.62,7.62,0,0,0,1.26-.11l0,3.22a8.44,8.44,0,0,1-2.77.36,4.46,4.46,0,0,1-3.19-1.17,5.71,5.71,0,0,1-1.18-4.06v-5.6h-1.82v-3.14h1.82v-3Z"/><path class="cls-1" d="M1351.26,427.89l-13.44,6.16v-3l10.39-4.45v-.05l-10.39-4.46v-3l13.44,6.15Z"/><path class="cls-2" d="M475,462.74q-194.31,0-388.62.07c-3.07,0-3.77-.69-3.77-3.76q.14-194.32.08-388.63,193.47,0,386.94,0c3.36,0,5.5,0,5.49,4.6Q474.91,268.86,475,462.74ZM382,248.23c-2.32,0-4.64-.1-7,0a42,42,0,0,0-5.68.73c-19.76,3.79-34.72,13.92-40,34-5.44,20.62-1.15,39.29,15.61,53.86,7,6.06,15.06,10.32,23.44,14,7.11,3.17,14.26,6.22,21.35,9.4a46.9,46.9,0,0,1,11.57,6.9c9.6,8.27,8.17,22-2.93,28.09a30.71,30.71,0,0,1-13.34,3.53c-16.13.92-28.19-6-36.81-19.33-1.48-2.28-2.53-2.84-5.05-1.31-7.92,4.83-16,9.45-24.08,14-2.33,1.3-2.77,2.42-1.35,4.73a74.4,74.4,0,0,0,10.08,13.37c21.12,21.62,60.73,27.81,89.19,14.4,35.8-16.86,32.61-63,14.08-80.68a87,87,0,0,0-22.46-15.53c-8.35-4-16.9-7.64-25.35-11.46-5-2.25-10-4.49-14.11-8.18-5.06-4.53-6.56-10.28-5-16.74s5.94-9.89,12.15-11.35c10.5-2.48,20,1.55,26.45,11.8,1.91,3,3.16,3,5.88,1.16,7.1-4.85,14.32-9.52,21.7-13.93,3.06-1.82,2.94-3.22,1.18-6C419.94,255.64,403.06,247.87,382,248.23Zm-85.76,69.48c0-21.16-.08-42.31.08-63.47,0-3.49-1.06-4.35-4.39-4.28-9.14.22-18.3.28-27.43,0-4-.13-5.27.81-5.25,5.1.18,39.58.1,79.17.11,118.75a44.67,44.67,0,0,1-1.67,13.76A14.54,14.54,0,0,1,247,397.84c-10.39,2.71-18.9-.23-25.28-8.83a50.44,50.44,0,0,1-4.18-6.55c-1.12-2.12-2.06-2.67-4.34-1.23q-12.28,7.74-24.86,15c-2.28,1.32-2.18,2.45-1.07,4.5,7.81,14.41,19.34,24.18,35.28,28.44a72.52,72.52,0,0,0,36.46.3c18.86-4.63,30.58-16.51,35.18-35.4a81.94,81.94,0,0,0,2.06-19.49Q296.26,346.18,296.25,317.71Z"/><path class="cls-1" d="M382,248.23c21.05-.36,37.93,7.41,49.52,25.55,1.76,2.75,1.88,4.15-1.18,6-7.38,4.41-14.6,9.08-21.7,13.93-2.72,1.85-4,1.85-5.88-1.16-6.48-10.25-15.95-14.28-26.45-11.8-6.21,1.46-10.63,5-12.15,11.35s0,12.21,5,16.74c4.13,3.69,9.13,5.93,14.11,8.18,8.45,3.82,17,7.43,25.35,11.46A87,87,0,0,1,431.11,344c18.53,17.66,21.72,63.82-14.08,80.68-28.46,13.41-68.07,7.22-89.19-14.4a74.4,74.4,0,0,1-10.08-13.37c-1.42-2.31-1-3.43,1.35-4.73,8.11-4.51,16.16-9.13,24.08-14,2.52-1.53,3.57-1,5.05,1.31,8.62,13.3,20.68,20.25,36.81,19.33a30.71,30.71,0,0,0,13.34-3.53c11.1-6.12,12.53-19.82,2.93-28.09a46.9,46.9,0,0,0-11.57-6.9c-7.09-3.18-14.24-6.23-21.35-9.4-8.38-3.72-16.48-8-23.44-14-16.76-14.57-21-33.24-15.61-53.86,5.3-20.11,20.26-30.24,40-34a42,42,0,0,1,5.68-.73C377.37,248.13,379.69,248.23,382,248.23Z"/><path class="cls-1" d="M296.25,317.71q0,28.46,0,56.92a81.94,81.94,0,0,1-2.06,19.49c-4.6,18.89-16.32,30.77-35.18,35.4a72.52,72.52,0,0,1-36.46-.3c-15.94-4.26-27.47-14-35.28-28.44-1.11-2-1.21-3.18,1.07-4.5q12.55-7.32,24.86-15c2.28-1.44,3.22-.89,4.34,1.23a50.44,50.44,0,0,0,4.18,6.55c6.38,8.6,14.89,11.54,25.28,8.83a14.54,14.54,0,0,0,10.71-10.29,44.67,44.67,0,0,0,1.67-13.76c0-39.58.07-79.17-.11-118.75,0-4.29,1.21-5.23,5.25-5.1,9.13.3,18.29.24,27.43,0,3.33-.07,4.42.79,4.39,4.28C296.17,275.4,296.25,296.55,296.25,317.71Z"/></g></g></svg>