<svg xmlns="http://www.w3.org/2000/svg" viewBox="0 0 1920 530"><defs><style>.cls-1{fill:#9641ff;}.cls-2{fill:#fff;}.cls-3{fill:#6e2fba;}.cls-4{fill:#52238c;}.cls-5{fill:none;}</style></defs><title>Asset 1</title><g id="Layer_2" data-name="Layer 2"><g id="Layer_1-2" data-name="Layer 1"><rect width="1920" height="530"/></g><g id="Layer_2-2" data-name="Layer 2"><path d="M228.93,95.8c-.16,1.75-.24,3.5-.24,5.27V98.16A11.59,11.59,0,0,1,228.93,95.8Z"/><path d="M463.73,98.16v2.91c0-1.77-.08-3.52-.24-5.27A11.59,11.59,0,0,1,463.73,98.16Z"/><path class="cls-1" d="M463.73,101.07v70A24.69,24.69,0,0,1,439,195.73H252.92a24.23,24.23,0,0,1-24.23-24.23V101.07c0-1.77.08-3.52.24-5.27,3.81-43.7,54.87-78.3,117.28-78.3S459.68,52.1,463.49,95.8C463.65,97.55,463.73,99.3,463.73,101.07Z"/><path class="cls-2" d="M445.45,92.58c0,18.39-44.73,50.92-99.89,50.92S245.67,111,245.67,92.58s44.72-33.3,99.89-33.3S445.45,74.19,445.45,92.58Z"/><path class="cls-1" d="M466.7,422.41c-1.91,6.62-5.77,11-12.77,11a17.61,17.61,0,0,1-2.63-.21l-9.12,72.67L381.4,518.25H501.59V408.75Zm34.89-211H188.22a25.46,25.46,0,0,0-1.3,50.89c.43,0,.87,0,1.3,0V377.89l35.28,13.88c2.13-4.85,5.71-7.91,11.43-8l-8.85-70.51,3.07.87,4.26,1.2,112.8,31.88L459,315.32l3.42-1,3.91-1.1-8.9,70.93c4.84,1.24,7.72,5.15,9.28,10.59l34.87-13.6V262.32a27.5,27.5,0,0,0,3.16-.18,25.51,25.51,0,0,0,21.89-20.66,26,26,0,0,0,.41-4.62A25.46,25.46,0,0,0,501.59,211.4ZM250.24,505.84,241,432.34a16.6,16.6,0,0,1-5.8,1c-7.28,0-11.17-4.72-13-11.79l-34-13.9V518.25H311Z"/><path class="cls-3" d="M466.34,313.25l-8.9,70.93a13.84,13.84,0,0,0-3.51-.42c-11.17,0-20.24,11.1-20.24,24.81,0,12.6,7.68,23,17.61,24.6l-9.12,72.67L381.4,518.25l-35.19,7.18V347.2L459,315.32l3.42-1Z"/><path d="M346.21,347.2V525.43L311,518.25l-60.78-12.41L241,432.34c8.35-3,14.44-12.54,14.44-23.77,0-13.71-9.06-24.81-20.24-24.81h-.29l-8.85-70.51,3.07.87,4.26,1.2Z"/><polygon class="cls-2" points="462.43 314.35 459.01 315.32 346.21 347.2 233.41 315.32 229.15 314.12 232.61 308.68 346.21 342.21 459.81 308.68 462.43 314.35"/><path class="cls-4" d="M468.3,408.57a50.71,50.71,0,0,1-1.6,13.84c-1.91,6.62-5.77,11-12.77,11a17.61,17.61,0,0,1-2.63-.21c-9.93-1.59-17.61-12-17.61-24.6,0-13.71,9.07-24.81,20.24-24.81a13.84,13.84,0,0,1,3.51.42c4.84,1.24,7.72,5.15,9.28,10.59A51.34,51.34,0,0,1,468.3,408.57Z"/><path class="cls-4" d="M255.46,408.57c0,11.23-6.09,20.72-14.44,23.77a16.6,16.6,0,0,1-5.8,1c-7.28,0-11.17-4.72-13-11.79a53,53,0,0,1-1.37-13c0-6.49.71-12.39,2.64-16.8,2.13-4.85,5.71-7.91,11.43-8h.29C246.4,383.76,255.46,394.86,255.46,408.57Z"/><path class="cls-1" d="M176.46,375.6a24.48,24.48,0,1,1-36.52-21.33h0a24.48,24.48,0,0,1,36.41,19A23.29,23.29,0,0,1,176.46,375.6Z"/><path class="cls-1" d="M569.49,375.6a24.48,24.48,0,1,1-49,0c0-.62,0-1.23.07-1.84a24.48,24.48,0,0,1,48.89,1.84Z"/><line class="cls-5" x1="527.59" y1="363.38" x2="526.68" y2="359.36"/><line class="cls-5" x1="504.75" y1="262.14" x2="504.2" y2="259.71"/><path class="cls-2" d="M553.15,352.51a24.17,24.17,0,0,0-8.14-1.4,24.44,24.44,0,0,0-18.33,8.25l-21.93-97.22a25.51,25.51,0,0,0,21.89-20.66Z"/><line class="cls-5" x1="555.78" y1="363.52" x2="553.15" y2="352.51"/><line class="cls-5" x1="526.64" y1="241.48" x2="524.44" y2="232.29"/><path class="cls-2" d="M501.59,381.17v27.58L466.7,422.41a50.71,50.71,0,0,0,1.6-13.84,51.34,51.34,0,0,0-1.58-13.8Z"/><line class="cls-5" x1="525.1" y1="372.01" x2="520.6" y2="373.76"/><line class="cls-5" x1="466.72" y1="394.77" x2="465.65" y2="395.19"/><path class="cls-2" d="M532.5,396.65l-30.91,12.1V381.17l19-7.41c-.05.61-.07,1.22-.07,1.84A24.47,24.47,0,0,0,532.5,396.65Z"/><line class="cls-5" x1="542.07" y1="392.9" x2="532.5" y2="396.65"/><line class="cls-5" x1="466.7" y1="422.41" x2="463.73" y2="423.58"/><path class="cls-2" d="M186.92,262.29l-18.85,94.84a24.51,24.51,0,0,0-28.13-2.86l24.3-108.8A25.49,25.49,0,0,0,186.92,262.29Z"/><polyline class="cls-5" points="137.29 366.13 139.94 354.27 139.94 354.27"/><line class="cls-5" x1="166.02" y1="237.52" x2="164.24" y2="245.47"/><line class="cls-5" x1="168.07" y1="357.13" x2="166.02" y2="367.44"/><line class="cls-5" x1="187.56" y1="259.06" x2="186.92" y2="262.29"/><path class="cls-2" d="M188.22,377.89v29.8l-25.13-10.27a24.47,24.47,0,0,0,13.37-21.82,23.29,23.29,0,0,0-.11-2.38Z"/><line class="cls-5" x1="163.09" y1="397.42" x2="153.61" y2="393.55"/><line class="cls-5" x1="228.69" y1="424.24" x2="222.23" y2="421.59"/><path class="cls-2" d="M220.86,408.57a53,53,0,0,0,1.37,13l-34-13.9v-29.8l35.28,13.88C221.57,396.18,220.86,402.08,220.86,408.57Z"/><line class="cls-5" x1="228.04" y1="393.55" x2="223.5" y2="391.77"/><line class="cls-5" x1="176.35" y1="373.22" x2="169.94" y2="370.7"/><line class="cls-5" x1="346.21" y1="530" x2="346.21" y2="525.43"/></g></g></svg>