<svg xmlns="http://www.w3.org/2000/svg" viewBox="0 0 1920 530"><defs><style>.cls-1{fill:#9641ff;}.cls-2{fill:#fff;}</style></defs><title>Asset 3</title><g id="Layer_2" data-name="Layer 2"><g id="Layer_1-2" data-name="Layer 1"><rect width="1920" height="530"/></g><g id="Layer_2-2" data-name="Layer 2"><path class="cls-1" d="M1718.51,73.15a76.72,76.72,0,0,0-23.76-13.67c-16.52-6.1-33.62-8.8-51.09-9.67-.62,0-1.37.23-1.79-.52h-33.64c-2.86,1.09-5.9.82-8.86,1.09-15.65,1.4-31.08,3.88-45.76,9.77-8.82,3.53-16.94,8.17-23.33,15.38a32.37,32.37,0,0,0-8.7,22.82c.27,15.38.22,30.78.11,46.18,0,2.82.84,3.39,3.51,3.38,32.88-.09,65.76,0,98.64,0,4.41,0,4.41,0,4.41,4.55,0,2.57-.17,5.15,0,7.7.21,2.38-.75,3-2.89,2.73a24.6,24.6,0,0,0-2.85,0c-47.13,0-94.26.17-141.39-.09-13.84-.07-26.55,2.72-38,10.64-13.17,9.14-21.19,22-26.59,36.79-4.6,12.59-6.69,25.68-7.89,39-.08.87.4,1.94-.63,2.59v31.93c1.11,2.47.82,5.14,1,7.72,1.32,14.89,4,29.47,9.8,43.31,5.62,13.42,13.41,25.26,25.91,33.38a46.86,46.86,0,0,0,26.36,8c11.11-.07,22.23-.09,33.34,0,2.47,0,3.2-.53,3.18-3.1-.13-16.24-.06-32.49-.07-48.74a73.41,73.41,0,0,1,4.22-25.76c3.31-8.9,8-16.93,15.12-23.29,7.91-7.08,17.41-10.9,27.82-12.6a114.54,114.54,0,0,1,18.69-1.18c32.59,0,65.17,0,97.75.06a78.69,78.69,0,0,0,30.51-5.92c10.38-4.24,18.61-10.84,24.41-20.39a50.26,50.26,0,0,0,7.45-25.4c.32-17.76.22-35.53.25-53.3,0-15.67-.39-31.36.12-47C1734.48,94.71,1729.56,82.62,1718.51,73.15Zm-151.42,48c-9.23,1.28-18.81-9.16-18.72-18.82a19.53,19.53,0,0,1,19.15-19.37c8.59-.15,19.38,7.41,19.21,19C1586.56,113,1578.54,121,1567.09,121.13Z"/><path class="cls-2" d="M1843.78,224.5c-3.29-15.28-8.15-29.89-17.79-42.45-7.91-10.29-18-17.57-30.73-20.72a47.45,47.45,0,0,0-11.39-1.42c-10.93,0-21.86.07-32.78,0-2.34,0-3,.61-3,3,0,18,.54,36.12-.27,54.15-.73,16.07-6.12,30.74-18.06,42.27-9,8.68-20,12.9-32.24,14.63a91,91,0,0,1-12.44.57c-34.49,0-69,0-103.47.05a68.42,68.42,0,0,0-32.57,8.08c-17.07,9.16-25.75,24-26.71,42.91-.78,15.54-.3,31.15-.34,46.73,0,18.24.38,36.49-.17,54.72-.35,11.68,2.89,21.69,10.27,30.49a60.22,60.22,0,0,0,17.55,13.88c13.68,7.51,28.59,10.87,43.85,13a259.4,259.4,0,0,0,35.73,2.37q10.71,0,21.43-.73c19-1.27,37.79-3.9,55.38-11.87,7.15-3.24,13.72-7.38,19.06-13.24,6-6.64,9.33-14.29,9.17-23.5-.26-15.1-.13-30.21-.18-45.31,0-4.73.14-4-3.92-4q-49.61,0-99.2.07c-2.73,0-3.7-.64-3.45-3.44a49.82,49.82,0,0,0,0-8.55c-.23-2.64.83-3.1,3.23-3.1,48.17.07,96.34-.12,144.51.18,16.43.09,30.85-4.41,43.19-15.24,8.86-7.78,14.68-17.72,19.17-28.42a109.49,109.49,0,0,0,7.38-27.89,17.8,17.8,0,0,1,1-3.17V235.74C1844.27,232.19,1844.59,228.23,1843.78,224.5ZM1685.92,414.62c13.18.4,21.49,7.83,21.44,19.16A19.18,19.18,0,0,1,1688,452.84c-11.19-.29-18.43-8.61-19.32-19.29C1668.69,424.67,1678.05,414.38,1685.92,414.62Z"/></g></g></svg>