<svg xmlns="http://www.w3.org/2000/svg" viewBox="0 0 1920.12 530.12"><defs><style>.cls-1{fill:#333;}.cls-2{fill:#9641ff;}</style></defs><title>Asset 1</title><g id="Layer_2" data-name="Layer 2"><g id="Layer_1-2" data-name="Layer 1"><path class="cls-1" d="M0,0V530.12H1920.12V0ZM1201.89,282a66.72,66.72,0,0,1-13.68,19.54,123.91,123.91,0,0,1-22,17.6,220.41,220.41,0,0,1-36.45,18.56c-7.78,3.17-15.7,6-23.71,8.53-.87.27-1.72.59-2.84,1,.42,2.06.78,3.84,1.16,5.62a293.2,293.2,0,0,1,5,31,216,216,0,0,1,1.32,26.42,135.13,135.13,0,0,1-3.93,31.65,74.34,74.34,0,0,1-7.1,18.07,45.94,45.94,0,0,1-12.61,14.66,40,40,0,0,1-18.31,7.46,65.7,65.7,0,0,1-26-1.81,127,127,0,0,1-28.66-11.5,228.05,228.05,0,0,1-34-22.7c-5.95-4.7-11.7-9.64-17.3-14.75-.6-.55-1.23-1.06-2-1.68-.78.69-1.46,1.27-2.13,1.88A289.25,289.25,0,0,1,924.3,459a175.1,175.1,0,0,1-30.84,16.87,98.45,98.45,0,0,1-22.73,6.57,57.82,57.82,0,0,1-19.64-.16,40.24,40.24,0,0,1-23.62-13.93,57.41,57.41,0,0,1-9.58-16.57A98.71,98.71,0,0,1,812.38,430a166.17,166.17,0,0,1-1.4-30.4A244.79,244.79,0,0,1,813.21,375q1.77-12.74,4.55-25.3c.16-.72.25-1.45.37-2.16a7.14,7.14,0,0,0-3.07-1.26A309.39,309.39,0,0,1,784,334.68a199.44,199.44,0,0,1-35.34-19.58,109.72,109.72,0,0,1-19.06-16.82,65,65,0,0,1-9.9-14.65,42.1,42.1,0,0,1-4.34-21.78,42.69,42.69,0,0,1,3.91-14.63,66.36,66.36,0,0,1,12.69-18.13,119.86,119.86,0,0,1,21.66-17.62,218.86,218.86,0,0,1,35.88-18.57c8.46-3.51,17.09-6.56,25.8-9.37.64-.21,1.27-.41,1.89-.64a2.46,2.46,0,0,0,.5-.37,8.84,8.84,0,0,0-.47-2.83A312.4,312.4,0,0,1,811.76,147a212.67,212.67,0,0,1-1.33-30.17,126,126,0,0,1,4.45-31.06,73.21,73.21,0,0,1,6-15,47.23,47.23,0,0,1,12.32-14.92A40,40,0,0,1,850.87,48a60.88,60.88,0,0,1,24.31.73,121.33,121.33,0,0,1,29.59,11.11,218.69,218.69,0,0,1,32.91,21.25c6.94,5.33,13.61,11,20.08,16.87.73.67,1.48,1.32,2.19,2,1-.07,1.5-.85,2.09-1.39,7.18-6.59,14.6-12.91,22.36-18.82a212.15,212.15,0,0,1,33.91-21.5,120.35,120.35,0,0,1,25-9.39,66.82,66.82,0,0,1,14.31-2.09c9-.2,17.75,1.24,25.63,6.1a43.49,43.49,0,0,1,12.47,11.74,65.16,65.16,0,0,1,9.09,18.8,110.24,110.24,0,0,1,4,19.27,177.38,177.38,0,0,1,.82,32.17,257.61,257.61,0,0,1-4.14,33.43c-.8,4.25-1.72,8.48-2.57,12.72-.09.48-.1,1-.15,1.5a7.39,7.39,0,0,0,2.55,1A294.52,294.52,0,0,1,1147.06,200a171.41,171.41,0,0,1,31.33,19.49,96.59,96.59,0,0,1,15.13,14.85,60.3,60.3,0,0,1,8.37,13.56A40.76,40.76,0,0,1,1201.89,282Z"/><path class="cls-2" d="M1201.89,247.9a60.3,60.3,0,0,0-8.37-13.56,96.59,96.59,0,0,0-15.13-14.85A171.41,171.41,0,0,0,1147.06,200a294.52,294.52,0,0,0-41.74-16.52,7.39,7.39,0,0,1-2.55-1c0-.52.06-1,.15-1.5.85-4.24,1.77-8.47,2.57-12.72a257.61,257.61,0,0,0,4.14-33.43,177.38,177.38,0,0,0-.82-32.17,110.24,110.24,0,0,0-4-19.27,65.16,65.16,0,0,0-9.09-18.8,43.49,43.49,0,0,0-12.47-11.74c-7.88-4.86-16.58-6.3-25.63-6.1a66.82,66.82,0,0,0-14.31,2.09,120.35,120.35,0,0,0-25,9.39,212.15,212.15,0,0,0-33.91,21.5C976.64,85.6,969.22,91.92,962,98.51c-.59.54-1,1.32-2.09,1.39-.71-.63-1.46-1.28-2.19-2-6.47-5.89-13.14-11.54-20.08-16.87a218.69,218.69,0,0,0-32.91-21.25,121.33,121.33,0,0,0-29.59-11.11A60.88,60.88,0,0,0,850.87,48a40,40,0,0,0-17.64,7.79A47.23,47.23,0,0,0,820.91,70.7a73.21,73.21,0,0,0-6,15,126,126,0,0,0-4.45,31.06A212.67,212.67,0,0,0,811.76,147a312.4,312.4,0,0,0,5.44,32.73,8.84,8.84,0,0,1,.47,2.83,2.46,2.46,0,0,1-.5.37c-.62.23-1.25.43-1.89.64-8.71,2.81-17.34,5.86-25.8,9.37a218.86,218.86,0,0,0-35.88,18.57,119.86,119.86,0,0,0-21.66,17.62,66.36,66.36,0,0,0-12.69,18.13,42.69,42.69,0,0,0-3.91,14.63,42.1,42.1,0,0,0,4.34,21.78,65,65,0,0,0,9.9,14.65,109.72,109.72,0,0,0,19.06,16.82A199.44,199.44,0,0,0,784,334.68a309.39,309.39,0,0,0,31.08,11.61,7.14,7.14,0,0,1,3.07,1.26c-.12.71-.21,1.44-.37,2.16Q815,362.27,813.21,375A244.79,244.79,0,0,0,811,399.62a166.17,166.17,0,0,0,1.4,30.4,98.71,98.71,0,0,0,5.51,21.73,57.41,57.41,0,0,0,9.58,16.57,40.24,40.24,0,0,0,23.62,13.93,57.82,57.82,0,0,0,19.64.16,98.45,98.45,0,0,0,22.73-6.57A175.1,175.1,0,0,0,924.3,459a289.25,289.25,0,0,0,34.36-27.37c.67-.61,1.35-1.19,2.13-1.88.73.62,1.36,1.13,2,1.68,5.6,5.11,11.35,10.05,17.3,14.75a228.05,228.05,0,0,0,34,22.7,127,127,0,0,0,28.66,11.5,65.7,65.7,0,0,0,26,1.81,40,40,0,0,0,18.31-7.46A45.94,45.94,0,0,0,1099.66,460a74.34,74.34,0,0,0,7.1-18.07,135.13,135.13,0,0,0,3.93-31.65,216,216,0,0,0-1.32-26.42,293.2,293.2,0,0,0-5-31c-.38-1.78-.74-3.56-1.16-5.62,1.12-.38,2-.7,2.84-1,8-2.54,15.93-5.36,23.71-8.53a220.41,220.41,0,0,0,36.45-18.56,123.91,123.91,0,0,0,22-17.6A66.72,66.72,0,0,0,1201.89,282,40.76,40.76,0,0,0,1201.89,247.9Zm-224.82-133c12.35-11.36,25.38-21.83,39.74-30.57a127.83,127.83,0,0,1,23.74-11.59,68.1,68.1,0,0,1,15-3.6,32.67,32.67,0,0,1,10.44.48,18.21,18.21,0,0,1,10.49,6.33,33.89,33.89,0,0,1,4.82,7.85,63.82,63.82,0,0,1,4.47,14.78,124.44,124.44,0,0,1,2,21.1A207.08,207.08,0,0,1,1086,150c-1,8-2.5,16-4.16,23.85-.16.81-.4,1.59-.68,2.66-.91-.18-1.56-.28-2.2-.44-12-2.83-24.08-5.22-36.26-7.06-7.73-1.17-15.51-2.1-23.27-3.06a3.5,3.5,0,0,1-2.68-1.5q-3.54-4.83-7.2-9.59a470.19,470.19,0,0,0-31.88-37.47c-.45-.47-.86-1-1.37-1.57A11.15,11.15,0,0,1,977.07,114.85Zm-117.46,179c1.65,3.08,3.25,6.18,4.91,9.26,6.2,11.49,13,22.65,20,33.67.4.63.77,1.28,1.13,1.93.07.12,0,.32,0,.63-.73-.06-1.48-.06-2.2-.17-17-2.71-33.81-6.1-38.1-7.74,3.76-13.16,8.22-25.93,13.25-38.8A8.3,8.3,0,0,1,859.61,293.81ZM845.13,198.5a9.57,9.57,0,0,1,1.51-.62c10.21-2.35,20.47-4.47,30.82-6.12l7.14-1.13a6,6,0,0,1,.95,0,2.31,2.31,0,0,1,.06.32.44.44,0,0,1,0,.23,7,7,0,0,1-.34.67c-9.46,14.78-18.15,30-26.34,46C856.3,233.32,846.32,204.71,845.13,198.5Zm26.39,69.12c-.36-.75-.68-1.51-1.1-2.45,1.65-3.44,3.21-6.76,4.83-10a540.07,540.07,0,0,1,38.25-65.48c1.76-2.57,1.77-2.57,4.82-2.76,7.64-.46,15.28-1.08,22.94-1.33,8.32-.28,16.65-.34,25-.27,7.57.06,15.15.35,22.72.66,4.91.21,9.8.67,14.71.94a3.28,3.28,0,0,1,2.81,1.7c4.82,7.39,9.78,14.69,14.49,22.15a497.74,497.74,0,0,1,28.19,51.42c.39.82.76,1.66,1.18,2.6-.22.56-.42,1.19-.7,1.78a536.94,536.94,0,0,1-42.53,74.23c-1.49,2.17-.89,2.16-4.22,2.42-14.37,1.12-28.75,1.77-43.17,1.72-9.25,0-18.49-.24-27.72-.73-4.9-.26-9.8-.69-14.71-.93a3.62,3.62,0,0,1-3-1.82q-8.32-12.15-16.07-24.69A513.16,513.16,0,0,1,871.52,267.62Zm163.72,70.95q14.16-22.33,26.29-45.85c.07-.12.27-.18.54-.36a6,6,0,0,1,.59,1c4.92,12.44,9.35,25,13.08,38a12.78,12.78,0,0,1-1.49.54c-6.74,1.47-13.46,3-20.23,4.36-5.46,1.09-11,1.93-16.45,2.87a3.87,3.87,0,0,1-2.38,0C1035.21,338.89,1035.16,338.69,1035.24,338.57Zm27.6-102.91c-.2.53-.49,1-.73,1.52-.24-.14-.45-.19-.51-.31-8.16-15.63-17.06-30.83-26.54-45.69-.07-.11,0-.31,0-.47,4.85,0,35.65,5.92,40,7.69.4.67,0,1.28-.18,1.89C1071.46,212.27,1067.34,224,1062.84,235.66ZM958.3,133.44c.49-.55,1.05-1.05,1.59-1.59,1,.14,1.42.91,2,1.48q9.06,9.48,17.45,19.56c2.39,2.88,4.74,5.8,7.1,8.71.35.44.66.92,1.29,1.79-6.45.13-12.42-.47-18.4-.47s-12-.07-18,0-12,.32-17.89.49c-.46-.82.16-1.19.49-1.59,4-4.91,7.9-9.87,12-14.67S954.16,138,958.3,133.44ZM832.85,113.87A95,95,0,0,1,836.8,90a44.67,44.67,0,0,1,3.54-8.52,40.9,40.9,0,0,1,2.68-4.2c3.68-5,8.72-7.49,14.91-7.9a52.35,52.35,0,0,1,19.17,2.74,116.9,116.9,0,0,1,22.52,10.09,214.91,214.91,0,0,1,30.31,21.1c4.18,3.43,8.22,7.05,12.31,10.59.63.54,1.21,1.14,2,1.89-.65.76-1.11,1.33-1.62,1.87a471.18,471.18,0,0,0-38.21,46.16c-.24.34-.5.66-.73,1a2.38,2.38,0,0,1-1.88,1q-4,.41-7.94.94c-6.43.88-12.87,1.69-19.28,2.72q-14.93,2.38-29.64,5.84c-1.37.33-2.74.68-4.12,1a11.49,11.49,0,0,1-1.33.11c-.21-.7-.44-1.31-.58-1.95a296.55,296.55,0,0,1-5.22-31.51A188.34,188.34,0,0,1,832.85,113.87Zm-9.28,211.65a16.07,16.07,0,0,1-1.73-.34c-16.51-5.3-32.61-11.61-47.71-20.23a127,127,0,0,1-22.42-15.8,61.57,61.57,0,0,1-8.75-9.57,31.69,31.69,0,0,1-4.8-9.27,17.89,17.89,0,0,1,0-10.81,31.4,31.4,0,0,1,4.24-8.44,56.17,56.17,0,0,1,6.79-8,105.18,105.18,0,0,1,16.22-12.85,192.49,192.49,0,0,1,30.94-16.18c8.2-3.48,16.6-6.42,25.07-9.18.54-.17,1.1-.29,1.79-.47,1.18,2.95,1.87,5.95,2.83,8.85S828,219.11,829,222s2,5.82,3,8.72,2.13,5.77,3.23,8.65,2.21,5.74,3.36,8.6,2.34,5.7,3.54,8.53,2.43,5.66,3.66,8.52c-2.73,6.61-5.54,13.19-8.14,19.85s-5.07,13.38-7.41,20.14S825.81,318.62,823.57,325.52Zm120,89.71c-13.22,12.15-27.2,23.29-42.77,32.32a114.79,114.79,0,0,1-24.08,10.84,62,62,0,0,1-14,2.63,27.46,27.46,0,0,1-9.62-1.11,17.92,17.92,0,0,1-8.63-5.7,32.36,32.36,0,0,1-4.79-7.58,64.48,64.48,0,0,1-4.9-16.46,144.23,144.23,0,0,1-1.68-30.86,265.67,265.67,0,0,1,6.1-44.22c.12-.54.35-1,.57-1.73,10.58,2.44,21.07,4.66,31.65,6.44s21.06,3.17,31.69,4.39c6.44,8.78,13.06,17.34,20,25.67s14,16.28,21.46,24.14A10.92,10.92,0,0,1,943.57,415.23Zm17.17-17c-4.91-4.18-24.54-26.78-27.33-31.4.35-.72,1-.44,1.53-.42,6.65.19,13.3.47,19.95.6,10.49.2,21-.13,31.43-.6.39,0,.78.05,1.38.09a6.46,6.46,0,0,1-.48,1A381.35,381.35,0,0,1,960.74,398.26Zm126.75,23.82a91.45,91.45,0,0,1-3.19,16.9,47.7,47.7,0,0,1-3.94,9.69,28,28,0,0,1-4.88,6.6,18,18,0,0,1-10.15,4.94,38.88,38.88,0,0,1-12.18-.29,81.24,81.24,0,0,1-20.4-6.48,162.15,162.15,0,0,1-24.89-14.23,274,274,0,0,1-30-24,16.31,16.31,0,0,0-1.44-1c.83-.95,1.3-1.53,1.81-2.07a470.83,470.83,0,0,0,37.9-45.74,8.92,8.92,0,0,0,.73-1,3,3,0,0,1,2.68-1.54c1.49-.14,3-.33,4.46-.5a446.64,446.64,0,0,0,56.25-10,5.58,5.58,0,0,1,.89-.09,5.28,5.28,0,0,1,.61,1.21c1.6,7.15,3,14.33,4.08,21.58a238.27,238.27,0,0,1,2.3,23.84A150.84,150.84,0,0,1,1087.49,422.08Zm95.87-155.19a21,21,0,0,1-1.87,6.44,38.29,38.29,0,0,1-5.33,8.42,74.79,74.79,0,0,1-11.45,11.12,148.6,148.6,0,0,1-25.29,16,256.85,256.85,0,0,1-37.88,15.43c-1.1.36-2.22.69-3.34,1a5.07,5.07,0,0,1-.82,0c-1.67-5.2-3.26-10.36-5-15.47s-3.44-10.09-5.29-15.08-3.86-10.1-5.9-15.11-4.13-9.82-6.25-14.84c2.7-6.54,5.52-13.11,8.12-19.77s5.08-13.38,7.42-20.14,4.42-13.59,6.63-20.47a4,4,0,0,1,1,.07c16,5.1,31.73,11.1,46.5,19.29A139,139,0,0,1,1166,238.07a74.31,74.31,0,0,1,9.32,9,41.07,41.07,0,0,1,6.06,9.13A19.81,19.81,0,0,1,1183.36,266.89Z"/><path class="cls-1" d="M1049.16,262.16A497.74,497.74,0,0,0,1021,210.74c-4.71-7.46-9.67-14.76-14.49-22.15a3.28,3.28,0,0,0-2.81-1.7c-4.91-.27-9.8-.73-14.71-.94-7.57-.31-15.15-.6-22.72-.66-8.33-.07-16.66,0-25,.27-7.66.25-15.3.87-22.94,1.33-3.05.19-3.06.19-4.82,2.76a540.07,540.07,0,0,0-38.25,65.48c-1.62,3.28-3.18,6.6-4.83,10,.42.94.74,1.7,1.1,2.45a513.16,513.16,0,0,0,26.68,49.12q7.72,12.54,16.07,24.69a3.62,3.62,0,0,0,3,1.82c4.91.24,9.81.67,14.71.93,9.23.49,18.47.7,27.72.73,14.42,0,28.8-.6,43.17-1.72,3.33-.26,2.73-.25,4.22-2.42a536.94,536.94,0,0,0,42.53-74.23c.28-.59.48-1.22.7-1.78C1049.92,263.82,1049.55,263,1049.16,262.16Zm-88.81,48.42A45.63,45.63,0,1,1,1005.93,265,45.58,45.58,0,0,1,960.35,310.58Z"/><path class="cls-1" d="M1183.36,266.89a21,21,0,0,1-1.87,6.44,38.29,38.29,0,0,1-5.33,8.42,74.79,74.79,0,0,1-11.45,11.12,148.6,148.6,0,0,1-25.29,16,256.85,256.85,0,0,1-37.88,15.43c-1.1.36-2.22.69-3.34,1a5.07,5.07,0,0,1-.82,0c-1.67-5.2-3.26-10.36-5-15.47s-3.44-10.09-5.29-15.08-3.86-10.1-5.9-15.11-4.13-9.82-6.25-14.84c2.7-6.54,5.52-13.11,8.12-19.77s5.08-13.38,7.42-20.14,4.42-13.59,6.63-20.47a4,4,0,0,1,1,.07c16,5.1,31.73,11.1,46.5,19.29A139,139,0,0,1,1166,238.07a74.31,74.31,0,0,1,9.32,9,41.07,41.07,0,0,1,6.06,9.13A19.81,19.81,0,0,1,1183.36,266.89Z"/><path class="cls-1" d="M944.58,414a10.92,10.92,0,0,1-1,1.23c-13.22,12.15-27.2,23.29-42.77,32.32a114.79,114.79,0,0,1-24.08,10.84,62,62,0,0,1-14,2.63,27.46,27.46,0,0,1-9.62-1.11,17.92,17.92,0,0,1-8.63-5.7,32.36,32.36,0,0,1-4.79-7.58,64.48,64.48,0,0,1-4.9-16.46,144.23,144.23,0,0,1-1.68-30.86,265.67,265.67,0,0,1,6.1-44.22c.12-.54.35-1,.57-1.73,10.58,2.44,21.07,4.66,31.65,6.44s21.06,3.17,31.69,4.39c6.44,8.78,13.06,17.34,20,25.67S937.11,406.14,944.58,414Z"/><path class="cls-1" d="M1086,150c-1,8-2.5,16-4.16,23.85-.16.81-.4,1.59-.68,2.66-.91-.18-1.56-.28-2.2-.44-12-2.83-24.08-5.22-36.26-7.06-7.73-1.17-15.51-2.1-23.27-3.06a3.5,3.5,0,0,1-2.68-1.5q-3.54-4.83-7.2-9.59a470.19,470.19,0,0,0-31.88-37.47c-.45-.47-.86-1-1.37-1.57a11.15,11.15,0,0,1,.8-1c12.35-11.36,25.38-21.83,39.74-30.57a127.83,127.83,0,0,1,23.74-11.59,68.1,68.1,0,0,1,15-3.6,32.67,32.67,0,0,1,10.44.48,18.21,18.21,0,0,1,10.49,6.33,33.89,33.89,0,0,1,4.82,7.85,63.82,63.82,0,0,1,4.47,14.78,124.44,124.44,0,0,1,2,21.1A207.08,207.08,0,0,1,1086,150Z"/><path class="cls-1" d="M845.79,265.05c-2.73,6.61-5.54,13.19-8.14,19.85s-5.07,13.38-7.41,20.14-4.43,13.58-6.67,20.48a16.07,16.07,0,0,1-1.73-.34c-16.51-5.3-32.61-11.61-47.71-20.23a127,127,0,0,1-22.42-15.8,61.57,61.57,0,0,1-8.75-9.57,31.69,31.69,0,0,1-4.8-9.27,17.89,17.89,0,0,1,0-10.81,31.4,31.4,0,0,1,4.24-8.44,56.17,56.17,0,0,1,6.79-8,105.18,105.18,0,0,1,16.22-12.85,192.49,192.49,0,0,1,30.94-16.18c8.2-3.48,16.6-6.42,25.07-9.18.54-.17,1.1-.29,1.79-.47,1.18,2.95,1.87,5.95,2.83,8.85S828,219.11,829,222s2,5.82,3,8.72,2.13,5.77,3.23,8.65,2.21,5.74,3.36,8.6,2.34,5.7,3.54,8.53S844.56,262.19,845.79,265.05Z"/><path class="cls-1" d="M1087.49,422.08a91.45,91.45,0,0,1-3.19,16.9,47.7,47.7,0,0,1-3.94,9.69,28,28,0,0,1-4.88,6.6,18,18,0,0,1-10.15,4.94,38.88,38.88,0,0,1-12.18-.29,81.24,81.24,0,0,1-20.4-6.48,162.15,162.15,0,0,1-24.89-14.23,274,274,0,0,1-30-24,16.31,16.31,0,0,0-1.44-1c.83-.95,1.3-1.53,1.81-2.07a470.83,470.83,0,0,0,37.9-45.74,8.92,8.92,0,0,0,.73-1,3,3,0,0,1,2.68-1.54c1.49-.14,3-.33,4.46-.5a446.64,446.64,0,0,0,56.25-10,5.58,5.58,0,0,1,.89-.09,5.28,5.28,0,0,1,.61,1.21c1.6,7.15,3,14.33,4.08,21.58a238.27,238.27,0,0,1,2.3,23.84A150.84,150.84,0,0,1,1087.49,422.08Z"/><path class="cls-1" d="M944.24,115.83c-.65.76-1.11,1.33-1.62,1.87a471.18,471.18,0,0,0-38.21,46.16c-.24.34-.5.66-.73,1a2.38,2.38,0,0,1-1.88,1q-4,.41-7.94.94c-6.43.88-12.87,1.69-19.28,2.72q-14.93,2.38-29.64,5.84c-1.37.33-2.74.68-4.12,1a11.49,11.49,0,0,1-1.33.11c-.21-.7-.44-1.31-.58-1.95a296.55,296.55,0,0,1-5.22-31.51,188.34,188.34,0,0,1-.84-29.18A95,95,0,0,1,836.8,90a44.67,44.67,0,0,1,3.54-8.52,40.9,40.9,0,0,1,2.68-4.2c3.68-5,8.72-7.49,14.91-7.9a52.35,52.35,0,0,1,19.17,2.74,116.9,116.9,0,0,1,22.52,10.09,214.91,214.91,0,0,1,30.31,21.1c4.18,3.43,8.22,7.05,12.31,10.59C942.87,114.48,943.45,115.08,944.24,115.83Z"/><path class="cls-1" d="M987.7,163.39c-6.45.13-12.42-.47-18.4-.47s-12-.07-18,0-12,.32-17.89.49c-.46-.82.16-1.19.49-1.59,4-4.91,7.9-9.87,12-14.67s8.22-9.17,12.36-13.73c.49-.55,1.05-1.05,1.59-1.59,1,.14,1.42.91,2,1.48q9.06,9.48,17.45,19.56c2.39,2.88,4.74,5.8,7.1,8.71C986.76,162,987.07,162.52,987.7,163.39Z"/><path class="cls-1" d="M987.7,366.53a6.46,6.46,0,0,1-.48,1,381.35,381.35,0,0,1-26.48,30.7c-4.91-4.18-24.54-26.78-27.33-31.4.35-.72,1-.44,1.53-.42,6.65.19,13.3.47,19.95.6,10.49.2,21-.13,31.43-.6C986.71,366.43,987.1,366.49,987.7,366.53Z"/><path class="cls-1" d="M1075.74,331.34a12.78,12.78,0,0,1-1.49.54c-6.74,1.47-13.46,3-20.23,4.36-5.46,1.09-11,1.93-16.45,2.87a3.87,3.87,0,0,1-2.38,0c0-.24,0-.44,0-.56q14.16-22.33,26.29-45.85c.07-.12.27-.18.54-.36a6,6,0,0,1,.59,1C1067.58,305.76,1072,318.36,1075.74,331.34Z"/><path class="cls-1" d="M885.61,191a.44.44,0,0,1,0,.23,7,7,0,0,1-.34.67c-9.46,14.78-18.15,30-26.34,46-2.61-4.48-12.59-33.09-13.78-39.3a9.57,9.57,0,0,1,1.51-.62c10.21-2.35,20.47-4.47,30.82-6.12l7.14-1.13a6,6,0,0,1,.95,0A2.31,2.31,0,0,1,885.61,191Z"/><path class="cls-1" d="M1074.93,200.29c-3.47,12-7.59,23.74-12.09,35.37-.2.53-.49,1-.73,1.52-.24-.14-.45-.19-.51-.31-8.16-15.63-17.06-30.83-26.54-45.69-.07-.11,0-.31,0-.47,4.85,0,35.65,5.92,40,7.69C1075.51,199.07,1075.11,199.68,1074.93,200.29Z"/><path class="cls-1" d="M885.59,339.3c-.73-.06-1.48-.06-2.2-.17-17-2.71-33.81-6.1-38.1-7.74,3.76-13.16,8.22-25.93,13.25-38.8a8.3,8.3,0,0,1,1.07,1.22c1.65,3.08,3.25,6.18,4.91,9.26,6.2,11.49,13,22.65,20,33.67.4.63.77,1.28,1.13,1.93C885.69,338.79,885.61,339,885.59,339.3Z"/><path class="cls-2" d="M1005.93,265a45.64,45.64,0,1,1-45.52-45.67A45.43,45.43,0,0,1,1005.93,265Z"/></g></g></svg>