<svg xmlns="http://www.w3.org/2000/svg" viewBox="0 0 499.96 480.51"><defs><style>.cls-1{fill:#828500;}.cls-2{fill:#fbff00;}.cls-3{fill:#cc9023;}.cls-4{fill:#b5b800;}.cls-5{fill:#707000;}.cls-14,.cls-6{fill:none;}.cls-6{stroke:#000;stroke-linejoin:round;}.cls-14,.cls-15,.cls-16,.cls-6{stroke-width:2px;}.cls-7{fill:#946225;}.cls-15,.cls-8{fill:red;}.cls-9{fill:#8c4513;}.cls-10,.cls-16{fill:#fff;}.cls-11{fill:#8d9425;}.cls-12{fill:#b6bf30;}.cls-13{fill:#c28031;}.cls-14,.cls-15,.cls-16{stroke:#231f20;stroke-miterlimit:10;}.cls-17{fill:#eb1b24;}.cls-18{fill:#fefefe;}</style></defs><title>Asset 6</title><g id="Layer_2" data-name="Layer 2"><g id="Brush_Stroke" data-name="Brush Stroke"><path class="cls-1" d="M403.4,41.91C390.49,57.74,390,86.7,390,86.7L63.13,448a78.91,78.91,0,0,1-8.38-17.15Z"/><path class="cls-2" d="M457.94,97.1,114.48,479.51a68.88,68.88,0,0,1-25-7.68L415.19,109A83.85,83.85,0,0,0,457.94,97.1Z"/><path d="M493,1,482,31c-5.36-8-13.26-13.41-18.8-16.44Z"/><path class="cls-3" d="M482,31l-1.35,3.71L458,97.09h0A83.85,83.85,0,0,1,415.19,109l8.4-32.25L390,86.7s.51-29,13.42-44.79L461,15.62l2.27-1C468.78,17.62,476.68,23,482,31Z"/><path class="cls-4" d="M423.59,76.71,415.19,109,89.48,471.83h0l-1.15-.62A69.37,69.37,0,0,1,63.13,448L390,86.7Z"/><polygon class="cls-5" points="204.99 263.67 215.46 278.73 240.23 304.27 259.12 317.8 271.38 305.03 215.97 250.65 204.99 263.67"/><path class="cls-6" d="M403.4,41.91C390.49,57.74,390,86.7,390,86.7L63.13,448a78.91,78.91,0,0,1-8.38-17.15Z"/><path class="cls-6" d="M457.94,97.1,114.48,479.51a68.88,68.88,0,0,1-25-7.68L415.19,109A83.85,83.85,0,0,0,457.94,97.1Z"/><path class="cls-6" d="M493,1,482,31c-5.36-8-13.26-13.41-18.8-16.44Z"/><path class="cls-6" d="M482,31l-1.35,3.71L458,97.09h0A83.85,83.85,0,0,1,415.19,109l8.4-32.25L390,86.7s.51-29,13.42-44.79L461,15.62l2.27-1C468.78,17.62,476.68,23,482,31Z"/><path class="cls-6" d="M423.59,76.71,415.19,109,89.48,471.83h0l-1.15-.62A69.37,69.37,0,0,1,63.13,448L390,86.7Z"/><path class="cls-7" d="M490.09,471.53a41.62,41.62,0,0,1-3.16,2.8,20.19,20.19,0,0,1-4.65,2.87c-4.71,2-9,.71-14.09-3.43q-90.72-73.66-181.47-147.28a542.33,542.33,0,0,1-61.66-58l13.6-13.6a566.43,566.43,0,0,0,59.7,57.46Q391,389.83,483.56,467.54A21,21,0,0,0,490.09,471.53Z"/><path class="cls-8" d="M217.58,170.81c-11.44,10.29-22.11,21.47-32.75,32.62-3.37,3.53-6.53,4-10.88,2.78-34.37-9.43-59.65-31-77.25-61C87.93,130.3,81.83,113.55,76.2,97,63.63,60.11,40.56,33,5.09,16.62c-.76-.35-1.44-.87-3-1.84C5.93,12.85,9,11,12.23,9.78c11-4.14,22.32-4.66,33.87-3.52,24.05,2.38,46.3,10.66,67.75,21.18,27.9,13.7,54.77,29.1,76.81,51.5,19.5,19.82,33.2,42.58,34.47,71.29C225.47,158.12,224.17,164.9,217.58,170.81Z"/><path class="cls-7" d="M227.69,243l-8.95,8.94-.15.15L214,256.67c-8.7-11.21-17.52-22.45-26.18-33.8-3.14-4.1-3.58-7.86-1-11.51a13.86,13.86,0,0,1,1.45-1.73q4-4.09,8-8.16a17.61,17.61,0,0,0,1.12,1.69c8.84,12,17.84,23.8,26.72,35.62Z"/><path class="cls-9" d="M213.14,144.72c-3-19.08-11.77-35.36-24.72-49.19-15.73-16.8-41.89-14.76-55.4,3.82-4.1,5.62-7.37,11.84-11.12,17.73-5,7.87-11.4,13.41-22.76,12.08,17.08,31.89,39.58,55.69,73.59,67,5,1.66,6.57-1.34,9.31-4.84-12.73-1.8-23.3-7.09-32.87-14.52s-17.67-16-23.06-27c7,6,13.89,12,20.94,17.91,10.77,9,22.84,15.43,36.72,18,1.95.37,4.15-.55,6.14-1.47-22.81-10-37.82-22.08-43-35.94,1.59,1.3,2.57,2.07,3.52,2.89s2.14,1.91,3.19,2.88a111.33,111.33,0,0,0,37.84,23c2.68,1,5.16,2,6.58-2-11.82-4.93-20.54-13.47-27.46-24.27,1.22,1,2.36,2.05,3.67,2.9q12.25,8.16,24.59,16.21c2.44,1.61,4.09.78,6.49-.95C214.09,162.69,214.65,154.27,213.14,144.72Z"/><polygon class="cls-10" points="225.06 268.49 219.32 262.72 213.97 256.67 225.06 268.49"/><path class="cls-11" d="M238.66,254.89l-13.6,13.6L214,256.67l4.62-4.62.15-.15,8.95-8.94,1.88,2.19,5.86,6.08Q237,253.08,238.66,254.89Z"/><path class="cls-12" d="M289.49,204.05l-26.4,26.41-3.72,3.72-20.71,20.71q-1.62-1.81-3.23-3.66l-7.62-8.39,49.34-49.33,7.25,6.19.51.44Z"/><path class="cls-13" d="M496.53,463.69a44.85,44.85,0,0,1-6.44,7.84,21,21,0,0,1-6.53-4Q391,389.92,298.36,312.35a566.43,566.43,0,0,1-59.7-57.46l20.71-20.71,3.72-3.72,26.4-26.41C302.8,218.49,317,232.62,329.79,248Q412.74,347.72,495,448.07C499.52,453.53,500.35,457.77,496.53,463.69Z"/><path class="cls-11" d="M235.43,251.23l-5.86-6.08L227.69,243a.68.68,0,0,1,.12-.12Z"/><path class="cls-7" d="M227.81,242.84a.68.68,0,0,0-.12.12l-3.58-4.18Z"/><path class="cls-13" d="M277.15,193.51l-49.34,49.33-3.7-4.06c-8.88-11.82-17.88-23.66-26.72-35.62a17.61,17.61,0,0,1-1.12-1.69Q212.46,185.06,229,169c2.75-2.68,6.8-4.67,10.71-2,10.56,7.31,21,14.78,31.4,22.17l.65.46Z"/><path class="cls-14" d="M496.53,463.69a45.45,45.45,0,0,1-9.6,10.64,20.19,20.19,0,0,1-4.65,2.87c-4.71,2-9,.71-14.09-3.43q-90.72-73.66-181.47-147.28a542.33,542.33,0,0,1-61.66-58l34.31-34.31,3.72-3.72,26.4-26.41C302.8,218.49,317,232.62,329.79,248Q412.74,347.72,495,448.07C499.52,453.53,500.35,457.77,496.53,463.69Z"/><path class="cls-15" d="M217.58,170.81c-11.44,10.29-22.11,21.47-32.75,32.62-3.37,3.53-6.53,4-10.88,2.78-34.37-9.43-59.65-31-77.25-61C87.93,130.3,81.83,113.55,76.2,97,63.63,60.11,40.56,33,5.09,16.62c-.76-.35-1.44-.87-3-1.84C5.93,12.85,9,11,12.23,9.78c11-4.14,22.32-4.66,33.87-3.52,24.05,2.38,46.3,10.66,67.75,21.18,27.9,13.7,54.77,29.1,76.81,51.5,19.5,19.82,33.2,42.58,34.47,71.29C225.47,158.12,224.17,164.9,217.58,170.81Z"/><path class="cls-14" d="M214,256.67c-8.7-11.21-17.52-22.45-26.18-33.8-3.14-4.1-3.58-7.86-1-11.51a13.86,13.86,0,0,1,1.45-1.73Q208.37,189.08,229,169c2.75-2.68,6.8-4.67,10.71-2,10.56,7.31,21,14.78,31.4,22.17l6.09,4.32"/><path class="cls-9" d="M213.14,144.72c-3-19.08-11.77-35.36-24.72-49.19-15.73-16.8-41.89-14.76-55.4,3.82-4.1,5.62-7.37,11.84-11.12,17.73-5,7.87-11.4,13.41-22.76,12.08,17.08,31.89,39.58,55.69,73.59,67,5,1.66,6.57-1.34,9.31-4.84-12.73-1.8-23.3-7.09-32.87-14.52s-17.67-16-23.06-27c7,6,13.89,12,20.94,17.91,10.77,9,22.84,15.43,36.72,18,1.95.37,4.15-.55,6.14-1.47-22.81-10-37.82-22.08-43-35.94,1.59,1.3,2.57,2.07,3.52,2.89s2.14,1.91,3.19,2.88a111.33,111.33,0,0,0,37.84,23c2.68,1,5.16,2,6.58-2-11.82-4.93-20.54-13.47-27.46-24.27,1.22,1,2.36,2.05,3.67,2.9q12.25,8.16,24.59,16.21c2.44,1.61,4.09.78,6.49-.95C214.09,162.69,214.65,154.27,213.14,144.72Z"/><polygon class="cls-16" points="225.06 268.49 219.32 262.72 213.97 256.67 225.06 268.49"/><path class="cls-14" d="M289.49,204.05l-26.4,26.41-3.72,3.72-34.31,34.31L214,256.67l4.62-4.62.15-.15c19.7-19.68,38.74-38.72,58.41-58.39l7.25,6.19Z"/></g><g id="Redbubble"><path class="cls-17" d="M349.72,252.28A78.06,78.06,0,0,0,326,205.69c-19.48-18.71-42.88-25.89-69.57-22.4-34.6,4.52-69.75,36.06-69.48,81.67.26,44.21,36.52,81.24,88,81.06,18.6-.31,39.46-9.59,55.65-28.29S353.18,276.91,349.72,252.28Zm-79.1,40.17a2.55,2.55,0,0,1-.37.52,1.73,1.73,0,0,1-.3.25,1.28,1.28,0,0,1-.25.15l-.09,0a2.56,2.56,0,0,1-.49.16l-.12,0h0l-.23,0-.3,0-.56,0H224.16c-.26,0-.49,0-.71,0l-.21,0a3,3,0,0,1-.45-.09,2.09,2.09,0,0,1-.44-.16l-.13-.07a1,1,0,0,1-.17-.12.27.27,0,0,1-.08-.07l-.14-.14-.09-.12a.64.64,0,0,1-.08-.14,1.66,1.66,0,0,1-.15-.33l-.06-.19c0-.11,0-.22-.07-.33s0-.45-.06-.7a1.41,1.41,0,0,1,0-.2v-.21q0-13.37,0-26.75h0V237.35c0-.13,0-.26,0-.38a5.4,5.4,0,0,1,.1-.76l0-.16a2.61,2.61,0,0,1,.16-.42,1.55,1.55,0,0,1,.12-.22,1.2,1.2,0,0,1,.17-.21.38.38,0,0,1,.09-.09l.1-.08.1-.07a1.27,1.27,0,0,1,.35-.17l.13,0,.14,0a5.07,5.07,0,0,1,1-.13h.47c7.18,0,14.35-.07,21.53,0l.51,0,.49,0c.35,0,.7,0,1,.07l.45,0,.6.07.68.1.12,0,.64.11.88.18.59.15c.34.09.68.18,1,.29l.44.14.47.16.72.27c.48.2,1,.41,1.43.64.24.11.47.23.7.36s.7.39,1,.6a15.6,15.6,0,0,1,7.24,9.6,20.94,20.94,0,0,1-1.47,15.65,14.79,14.79,0,0,1-6.89,6.58c-.15.07-.28.15-.39.21l-.07.05-.08.05-.06,0a1,1,0,0,0-.17.19l0,.06h0l0,0a.64.64,0,0,1,0,.07v0a.31.31,0,0,0,0,.09,1.78,1.78,0,0,0,.47.93c4.65,6,9.24,12.09,13.88,18.13C270.62,290.45,271.23,291.3,270.62,292.45Zm51.62-15.95c0,.47,0,.93-.06,1.38a17.48,17.48,0,0,1-.25,2,17.85,17.85,0,0,1-.45,1.85c-.06.2-.13.39-.2.59l-.21.57c-.07.19-.15.37-.23.55l-.18.38c-.07.15-.14.29-.22.43l-.22.42a14.18,14.18,0,0,1-1,1.47l-.23.31-.45.55c-.26.3-.53.6-.82.88s-.51.5-.78.73l-.22.19-.07.05-.69.54-.24.18c-.13.09-.26.19-.4.27l-.53.35c-.21.14-.43.26-.65.38s-.32.19-.48.27l-.59.31-.56.26c-.24.11-.48.22-.74.32s-.39.16-.59.24a25.3,25.3,0,0,1-5.92,1.43l-.47.06h-.08l-.48.05c-.52,0-1,.08-1.55.11l-.52,0c-.64,0-1.27.05-1.91.05l-2.21,0-3.32,0c-5,0-10.1,0-15.15,0a6.45,6.45,0,0,1-1.82-.19l-.13,0a1.33,1.33,0,0,1-.24-.1,1.61,1.61,0,0,1-.3-.21,1.7,1.7,0,0,1-.55-.91c0-.07,0-.15-.05-.24s0-.16,0-.25a1.64,1.64,0,0,1,0-.22s0-.11,0-.16,0-.3,0-.47v-.19a1.77,1.77,0,0,1,0-.24v-26.4h0v-26.4c0-.13,0-.25,0-.37s0-.22,0-.33,0-.09,0-.14,0-.08,0-.12v-.06a3.85,3.85,0,0,1,.1-.53,1.8,1.8,0,0,1,.05-.19.42.42,0,0,1,0-.1.52.52,0,0,1,.06-.13s0,0,0-.05a1.09,1.09,0,0,1,.08-.15v0a.71.71,0,0,1,.1-.14l0,0a1.36,1.36,0,0,1,.12-.12l.14-.13h0a1,1,0,0,1,.17-.1,2.09,2.09,0,0,1,.3-.14l.27-.08.16,0,.11,0a7.56,7.56,0,0,1,1.25-.08h10.34l10.34,0q.62,0,1.23,0l.61,0,.61,0,.61.07.61.08.61.11.59.11c.4.08.79.18,1.18.29l.58.17.57.19.57.21c.37.15.74.31,1.1.49l.54.27C314,239.05,316.39,243,317,248a28.51,28.51,0,0,1,.17,3.3c0,.12,0,.25,0,.37,0,.28,0,.56,0,.84s0,.37-.05.56,0,.42-.07.63c-.08.52-.17,1-.28,1.53-.05.17-.09.35-.14.52s-.12.45-.19.67a1.59,1.59,0,0,1-.07.2c0,.14-.09.28-.14.42s-.11.29-.17.43-.15.37-.23.56a1.19,1.19,0,0,0-.08.16c-.08.16-.15.33-.24.49s-.08.17-.13.25l-.13.25-.15.25-.15.25c-.11.18-.22.36-.34.54a1.33,1.33,0,0,0-.29.87v.06a.15.15,0,0,0,0,.07s0,.05,0,.07l0,.06a.94.94,0,0,0,.12.18l.1.09a1.43,1.43,0,0,0,.24.16l.54.3.51.31h0c.33.21.65.43.95.66s.59.46.87.7l.39.37a10.46,10.46,0,0,1,.73.77h0c.24.27.45.54.66.82s.39.56.56.85.35.59.5.89.21.43.3.65.1.23.15.34.12.28.17.43l.15.42a.64.64,0,0,1,0,.07c0,.11.08.23.11.34s.07.23.1.35.08.27.11.41.08.3.11.45.05.24.08.35l0,.18.07.32c0,.11,0,.22.05.33s0,.07,0,.12.05.32.07.48a.13.13,0,0,0,0,.06c0,.15,0,.29.05.44s0,.27,0,.41,0,.26,0,.4l0,.47c0,.19,0,.38,0,.58a.15.15,0,0,1,0,.07c0,.37,0,.74,0,1.12Z"/><path class="cls-18" d="M221.29,264V237.59c0-2.35.64-3,3-3,7.17,0,14.35-.07,21.52,0a22.76,22.76,0,0,1,11.81,3.24,15.6,15.6,0,0,1,7.24,9.6,20.94,20.94,0,0,1-1.47,15.65,14.83,14.83,0,0,1-6.89,6.58c-1.07.52-1.07.87-.39,1.76,4.65,6,9.24,12.09,13.88,18.13.68.89,1.29,1.74.68,2.88s-1.62,1.24-2.74,1.24H224.16c-2.2,0-2.85-.66-2.85-2.92q0-13.37,0-26.75Z"/><path class="cls-18" d="M276.43,264.06V237.65c0-2.44.65-3.09,3.07-3.09q10.35,0,20.68,0a20.2,20.2,0,0,1,9.42,2.11C314,239.05,316.39,243,317,248c.49,4.34.06,8.49-2.44,12.22-.41.61-.45,1.2.24,1.56,6,3.14,7.52,8.58,7.48,14.7-.05,7.47-4,12.76-11,15.43a31,31,0,0,1-10.93,1.73c-6.89.08-13.79,0-20.68,0-2.63,0-3.21-.59-3.21-3.22v-26.4Z"/></g></g></svg>