<svg xmlns="http://www.w3.org/2000/svg" viewBox="0 0 1920 530"><defs><style>.cls-1{fill:#333;}.cls-2{fill:#9641ff;}.cls-3{fill:#6735af;}.cls-4{fill:#fff;}.cls-5{fill:#2a1942;}.cls-6{fill:#a382d1;}.cls-7{fill:#643aa0;}</style></defs><title>Asset 2</title><g id="Layer_2" data-name="Layer 2"><g id="Layer_1-2" data-name="Layer 1"><rect class="cls-1" width="1920" height="530"/><g id="Layer_2-2" data-name="Layer 2"><g id="Layer_1-2-2" data-name="Layer 1-2"><path class="cls-2" d="M488.43,35.05c-82.92,0-150.16,57.39-150.16,128.17q0,3.06.19,6.11h0c2,36,21.4,68,51.11,90.22,26.41,19.74,61,31.7,98.86,31.7,37.51,0,71.79-11.73,98.1-31.13,30.17-22.24,49.85-54.56,51.87-90.82h0c.12-2,.18-4.07.18-6.11C638.6,92.44,571.38,35.05,488.43,35.05Zm-2.6,211.23c-17.13,0-31-6.24-31-13.92s13.88-13.9,31-13.9,31,6.2,31,13.84-13.88,14-31,14ZM489,174.62c-66.15,0-121.29-5.58-121.29-43.38s53.63-68.42,119.76-68.42S607.28,93.4,607.28,131.24s-52.09,43.38-118.23,43.38Z"/><path class="cls-3" d="M516.85,232.3c0,7.65-13.88,13.92-31,13.92s-31-6.18-31-13.92,13.88-13.9,31-13.9S516.85,224.66,516.85,232.3Z"/><path class="cls-4" d="M381.9,265.79q-2.29-2-4.59-4.08A24.09,24.09,0,0,1,381.9,265.79Z"/><path class="cls-4" d="M599.5,261.75c-.92.86-1.83,1.68-2.78,2.53A23.77,23.77,0,0,1,599.5,261.75Z"/><path class="cls-2" d="M654.85,407c-6.94-38-18.22-72.25-33.87-100.67a24.92,24.92,0,0,1-5.9.7,25.29,25.29,0,0,1-21.15-39.14l-.58-.64c-27.06,22.55-64.06,36.45-104.88,36.45-41.28,0-78.76-14.25-105.9-37.31l-.09.09a25.32,25.32,0,0,1-30.43,38.9c-31.3,50.86-48.43,120.62-48.43,197.73q0,13.62.72,26.94H662.61q.54-12.72.55-25.77A544.21,544.21,0,0,0,654.85,407Zm-54.94-16.31c-3.62,19.57-19.23,32.48-105.18,79.22-33.44,18.18-74.12,31.62-94.81,42.2,17.18-14.6,48.25-34.34,46.75-58.44-1.07-17.28-19.33-38.23-35.06-59.08-23.44-31-.16-73.09,33.12-70.13,36.36,3.25,46.33,14.91,58.42,39,12.24-27.68,38.55-42.51,60.39-37.67C590.57,331.69,604.41,366.4,599.91,390.64Z"/><path class="cls-5" d="M388.18,282.46a25.3,25.3,0,1,1-50.6,0,13.94,13.94,0,0,1,.1-2,25.3,25.3,0,0,1,39.61-18.75h0q2.29,2.08,4.59,4.08c.19.22.38.43.55.65A25.06,25.06,0,0,1,388.18,282.46Z"/><path class="cls-4" d="M381.9,265.79q-2.29-2-4.59-4.08A24.09,24.09,0,0,1,381.9,265.79Z"/><path class="cls-5" d="M255.38,405.9a23.55,23.55,0,0,1-.57,5.29,25.3,25.3,0,0,1-50-5.29,24.91,24.91,0,0,1,1.82-9.42A25.31,25.31,0,0,1,230,380.62a27.84,27.84,0,0,1,6.56.86A25.32,25.32,0,0,1,255.38,405.9Z"/><path class="cls-5" d="M640.37,281.68a19.92,19.92,0,0,1-.15,2.67h0A25.23,25.23,0,0,1,627,304a23.62,23.62,0,0,1-6,2.26,24.93,24.93,0,0,1-5.9.71,25.29,25.29,0,0,1-21.15-39.13,23.8,23.8,0,0,1,2.79-3.53h0c.95-.85,1.86-1.67,2.78-2.53h0a25.31,25.31,0,0,1,40.84,19.88Z"/><path class="cls-4" d="M599.5,261.75c-.92.86-1.83,1.68-2.78,2.53A23.77,23.77,0,0,1,599.5,261.75Z"/><path class="cls-2" d="M254.81,411.21a23.64,23.64,0,0,0,.57-5.3,25.31,25.31,0,0,0-18.75-24.46l101.05-101c0,.67-.1,1.36-.1,2a25.27,25.27,0,0,0,7.65,18.18Z"/><path class="cls-2" d="M233.07,380.79a24.07,24.07,0,0,0-3.06-.2,25.28,25.28,0,0,0-23.48,15.89l-51-148.21a39.08,39.08,0,0,0,20.94-.37,38.15,38.15,0,0,0,12.74-6.61Z"/><path class="cls-5" d="M708.31,401.14A25.34,25.34,0,0,1,683,426.5a25.93,25.93,0,0,1-5.12-.52,25.36,25.36,0,0,1-19.65-19.68,25.76,25.76,0,0,1-.52-5.11,25.1,25.1,0,0,1,4-13.67h0A25.29,25.29,0,0,1,683,375.9h1.21A25.3,25.3,0,0,1,708.31,401.14Z"/><path class="cls-2" d="M684.15,375.87h-1.21a25.27,25.27,0,0,0-21.27,11.62L627,304a25.24,25.24,0,0,0,13.26-19.65Z"/><path class="cls-2" d="M713.49,530H685.31l-7.43-104.07a25.37,25.37,0,0,0,20-4.33Z"/><path class="cls-2" d="M187.32,235.44A38.74,38.74,0,0,1,153.37,242c-16-4.27-30.12-18-35.91-37,0-.12-.09-.24-.13-.37-2.49-8.34-2.38-14.58-.38-19.43,4.59-11.16,19.33-14.88,35.75-19.77,15.15-4.59,28.08-9,37.56-4.18h0c5.23,2.63,9.42,8.11,12.35,17.93A57.46,57.46,0,0,1,204,184.9C208,205.11,201.19,224.82,187.32,235.44Z"/><path class="cls-2" d="M129,171l-3.76,1.53a4.89,4.89,0,0,1-6.39-2.6h0L112.65,155a4.88,4.88,0,0,1,2.64-6.38l0,0,3.76-1.52a4.89,4.89,0,0,1,6.36,2.67l6.2,14.94A4.88,4.88,0,0,1,129,171Z"/><path class="cls-2" d="M213,150.14,203.18,163a4.88,4.88,0,0,1-6.84.95h0l-3.25-2.48a4.88,4.88,0,0,1-.94-6.83v0L202,141.73a4.89,4.89,0,0,1,6.85-.91l3.24,2.47a4.86,4.86,0,0,1,.95,6.81Z"/><path class="cls-2" d="M223.3,120l-3.46,15.8A4.9,4.9,0,0,1,214,139.5l-4-.87a4.88,4.88,0,0,1-3.73-5.8v0L209.75,117a4.91,4.91,0,0,1,5.83-3.73l4,.87A4.89,4.89,0,0,1,223.3,120Z"/><path class="cls-2" d="M118.3,145l-3.76,1.53a4.89,4.89,0,0,1-6.39-2.61h0L102,129a4.87,4.87,0,0,1,2.64-6.37l0,0,3.76-1.53a4.89,4.89,0,0,1,6.36,2.68l6.19,14.94A4.89,4.89,0,0,1,118.3,145Z"/><path class="cls-2" d="M107.59,119l-3.76,1.53a4.88,4.88,0,0,1-6.39-2.6h0L91.32,103a4.88,4.88,0,0,1,2.6-6.39h0l3.77-1.53a4.89,4.89,0,0,1,6.36,2.67l6.19,14.94A4.88,4.88,0,0,1,107.59,119Z"/><path class="cls-2" d="M144.8,165.45l-3.9,1.22a4.9,4.9,0,0,1-6.12-3.21L129.93,148a4.89,4.89,0,0,1,3.21-6.11l3.89-1.23a4.89,4.89,0,0,1,6.11,3.22L148,159.33A4.9,4.9,0,0,1,144.8,165.45Z"/><path class="cls-2" d="M135.62,139.46l-3.9,1.22a4.89,4.89,0,0,1-6.11-3.21L120.76,122a4.9,4.9,0,0,1,3.21-6.12l3.88-1.22a4.9,4.9,0,0,1,6.12,3.21l4.83,15.43A4.9,4.9,0,0,1,135.62,139.46Z"/><path class="cls-2" d="M126.45,113.46l-3.9,1.22a4.89,4.89,0,0,1-6.12-3.21l-4.85-15.42a4.9,4.9,0,0,1,3.22-6.12l3.88-1.22a4.89,4.89,0,0,1,6.12,3.21l4.83,15.42A4.9,4.9,0,0,1,126.45,113.46Z"/><path class="cls-2" d="M163.05,159.38l-3.9,1.19a4.9,4.9,0,0,1-6.11-3.25l-4.71-15.48a4.89,4.89,0,0,1,3.24-6.11h0l3.89-1.19a4.9,4.9,0,0,1,6.12,3.25h0l4.71,15.47a4.88,4.88,0,0,1-3.21,6.11Z"/><path class="cls-2" d="M155.41,133.39l-3.9,1.19a4.92,4.92,0,0,1-6.12-3.26l-4.71-15.47a4.9,4.9,0,0,1,3.25-6.12h0l3.9-1.19a4.89,4.89,0,0,1,6.11,3.24h0l4.71,15.48a4.89,4.89,0,0,1-3.22,6.1Z"/><path class="cls-2" d="M147.76,107.39l-3.9,1.19a4.9,4.9,0,0,1-6.11-3.25L133,89.85a4.89,4.89,0,0,1,3.24-6.11h0l3.9-1.2a4.9,4.9,0,0,1,6.12,3.25h0L151,101.27a4.88,4.88,0,0,1-3.22,6.11Z"/><path class="cls-2" d="M180.09,156.21l-3.87,1.27a4.89,4.89,0,0,1-6.12-3.15L165,139a4.88,4.88,0,0,1,3.14-6.12l3.88-1.25a4.88,4.88,0,0,1,6.12,3.13l5,15.26a4.88,4.88,0,0,1-3.11,6.16Z"/><path class="cls-2" d="M171.26,130.76l-4,.87a4.9,4.9,0,0,1-5.84-3.72h0L158,112.09a4.89,4.89,0,0,1,3.73-5.83l4-.87a4.9,4.9,0,0,1,5.82,3.73L175,124.93A4.92,4.92,0,0,1,171.26,130.76Z"/><path class="cls-2" d="M164.61,103.42l-4,.7a4.9,4.9,0,0,1-5.67-4h0l-2.78-15.93a4.9,4.9,0,0,1,4-5.66l4-.69a4.88,4.88,0,0,1,5.65,4v0l2.78,15.9a4.89,4.89,0,0,1-3.94,5.67Z"/><path class="cls-6" d="M599.91,390.64c-3.62,19.57-19.23,32.48-105.18,79.22-33.44,18.18-74.12,31.62-94.81,42.2,17.18-14.6,48.25-34.34,46.75-58.44-1.07-17.28-19.33-38.23-35.06-59.08-23.44-31-.16-73.09,33.12-70.13,36.36,3.25,46.33,14.91,58.42,39,12.24-27.68,38.55-42.51,60.39-37.67C590.57,331.69,604.41,366.4,599.91,390.64Z"/><path class="cls-7" d="M487.53,62.82c-66.14,0-119.76,30.58-119.76,68.42s55.14,43.38,121.28,43.38S607.3,169,607.3,131.24,553.67,62.82,487.53,62.82Zm-60.11,75.46a15.51,15.51,0,1,1,15.5-15.51h0A15.5,15.5,0,0,1,427.42,138.28Zm114.68,0a15.51,15.51,0,1,1,15.5-15.51,15.51,15.51,0,0,1-15.5,15.51Z"/><circle class="cls-6" cx="427.42" cy="122.78" r="15.5"/><circle class="cls-6" cx="542.12" cy="122.78" r="15.5" transform="translate(334.06 638.22) rotate(-80.78)"/></g></g></g></g></svg>