<svg xmlns="http://www.w3.org/2000/svg" viewBox="0 0 499.96 480.51"><defs><style>.cls-1{fill:#828500;}.cls-2{fill:#fbff00;}.cls-3{fill:#cc9023;}.cls-4{fill:#b5b800;}.cls-5{fill:#707000;}.cls-14,.cls-6{fill:none;}.cls-6{stroke:#000;stroke-linejoin:round;}.cls-14,.cls-15,.cls-16,.cls-6{stroke-width:2px;}.cls-7{fill:#946225;}.cls-15,.cls-8{fill:red;}.cls-9{fill:#8c4513;}.cls-10,.cls-16{fill:#fff;}.cls-11{fill:#8d9425;}.cls-12{fill:#b6bf30;}.cls-13{fill:#c28031;}.cls-14,.cls-15,.cls-16{stroke:#231f20;stroke-miterlimit:10;}.cls-17{fill:#ee2962;}</style></defs><title>Asset 4</title><g id="Layer_2" data-name="Layer 2"><g id="Brush_Stroke" data-name="Brush Stroke"><path class="cls-1" d="M403.4,41.91C390.49,57.74,390,86.7,390,86.7L63.13,448a78.91,78.91,0,0,1-8.38-17.15Z"/><path class="cls-2" d="M457.94,97.1,114.48,479.51a68.88,68.88,0,0,1-25-7.68L415.19,109A83.85,83.85,0,0,0,457.94,97.1Z"/><path d="M493,1,482,31c-5.36-8-13.26-13.41-18.8-16.44Z"/><path class="cls-3" d="M482,31l-1.35,3.71L458,97.09h0A83.85,83.85,0,0,1,415.19,109l8.4-32.25L390,86.7s.51-29,13.42-44.79L461,15.62l2.27-1C468.78,17.62,476.68,23,482,31Z"/><path class="cls-4" d="M423.59,76.71,415.19,109,89.48,471.83h0l-1.15-.62A69.37,69.37,0,0,1,63.13,448L390,86.7Z"/><polygon class="cls-5" points="204.99 263.67 215.46 278.73 240.23 304.27 259.12 317.8 271.38 305.03 215.97 250.65 204.99 263.67"/><path class="cls-6" d="M403.4,41.91C390.49,57.74,390,86.7,390,86.7L63.13,448a78.91,78.91,0,0,1-8.38-17.15Z"/><path class="cls-6" d="M457.94,97.1,114.48,479.51a68.88,68.88,0,0,1-25-7.68L415.19,109A83.85,83.85,0,0,0,457.94,97.1Z"/><path class="cls-6" d="M493,1,482,31c-5.36-8-13.26-13.41-18.8-16.44Z"/><path class="cls-6" d="M482,31l-1.35,3.71L458,97.09h0A83.85,83.85,0,0,1,415.19,109l8.4-32.25L390,86.7s.51-29,13.42-44.79L461,15.62l2.27-1C468.78,17.62,476.68,23,482,31Z"/><path class="cls-6" d="M423.59,76.71,415.19,109,89.48,471.83h0l-1.15-.62A69.37,69.37,0,0,1,63.13,448L390,86.7Z"/><path class="cls-7" d="M490.09,471.53a41.62,41.62,0,0,1-3.16,2.8,20.19,20.19,0,0,1-4.65,2.87c-4.71,2-9,.71-14.09-3.43q-90.72-73.66-181.47-147.28a542.33,542.33,0,0,1-61.66-58l13.6-13.6a566.43,566.43,0,0,0,59.7,57.46Q391,389.83,483.56,467.54A21,21,0,0,0,490.09,471.53Z"/><path class="cls-8" d="M217.58,170.81c-11.44,10.29-22.11,21.47-32.75,32.62-3.37,3.53-6.53,4-10.88,2.78-34.37-9.43-59.65-31-77.25-61C87.93,130.3,81.83,113.55,76.2,97,63.63,60.11,40.56,33,5.09,16.62c-.76-.35-1.44-.87-3-1.84C5.93,12.85,9,11,12.23,9.78c11-4.14,22.32-4.66,33.87-3.52,24.05,2.38,46.3,10.66,67.75,21.18,27.9,13.7,54.77,29.1,76.81,51.5,19.5,19.82,33.2,42.58,34.47,71.29C225.47,158.12,224.17,164.9,217.58,170.81Z"/><path class="cls-7" d="M227.69,243l-8.95,8.94-.15.15L214,256.67c-8.7-11.21-17.52-22.45-26.18-33.8-3.14-4.1-3.58-7.86-1-11.51a13.86,13.86,0,0,1,1.45-1.73q4-4.09,8-8.16a17.61,17.61,0,0,0,1.12,1.69c8.84,12,17.84,23.8,26.72,35.62Z"/><path class="cls-9" d="M213.14,144.72c-3-19.08-11.77-35.36-24.72-49.19-15.73-16.8-41.89-14.76-55.4,3.82-4.1,5.62-7.37,11.84-11.12,17.73-5,7.87-11.4,13.41-22.76,12.08,17.08,31.89,39.58,55.69,73.59,67,5,1.66,6.57-1.34,9.31-4.84-12.73-1.8-23.3-7.09-32.87-14.52s-17.67-16-23.06-27c7,6,13.89,12,20.94,17.91,10.77,9,22.84,15.43,36.72,18,1.95.37,4.15-.55,6.14-1.47-22.81-10-37.82-22.08-43-35.94,1.59,1.3,2.57,2.07,3.52,2.89s2.14,1.91,3.19,2.88a111.33,111.33,0,0,0,37.84,23c2.68,1,5.16,2,6.58-2-11.82-4.93-20.54-13.47-27.46-24.27,1.22,1,2.36,2.05,3.67,2.9q12.25,8.16,24.59,16.21c2.44,1.61,4.09.78,6.49-.95C214.09,162.69,214.65,154.27,213.14,144.72Z"/><polygon class="cls-10" points="225.06 268.49 219.32 262.72 213.97 256.67 225.06 268.49"/><path class="cls-11" d="M238.66,254.89l-13.6,13.6L214,256.67l4.62-4.62.15-.15,8.95-8.94,1.88,2.19,5.86,6.08Q237,253.08,238.66,254.89Z"/><path class="cls-12" d="M289.49,204.05l-26.4,26.41-3.72,3.72-20.71,20.71q-1.62-1.81-3.23-3.66l-7.62-8.39,49.34-49.33,7.25,6.19.51.44Z"/><path class="cls-13" d="M496.53,463.69a44.85,44.85,0,0,1-6.44,7.84,21,21,0,0,1-6.53-4Q391,389.92,298.36,312.35a566.43,566.43,0,0,1-59.7-57.46l20.71-20.71,3.72-3.72,26.4-26.41C302.8,218.49,317,232.62,329.79,248Q412.74,347.72,495,448.07C499.52,453.53,500.35,457.77,496.53,463.69Z"/><path class="cls-11" d="M235.43,251.23l-5.86-6.08L227.69,243a.68.68,0,0,1,.12-.12Z"/><path class="cls-7" d="M227.81,242.84a.68.68,0,0,0-.12.12l-3.58-4.18Z"/><path class="cls-13" d="M277.15,193.51l-49.34,49.33-3.7-4.06c-8.88-11.82-17.88-23.66-26.72-35.62a17.61,17.61,0,0,1-1.12-1.69Q212.46,185.06,229,169c2.75-2.68,6.8-4.67,10.71-2,10.56,7.31,21,14.78,31.4,22.17l.65.46Z"/><path class="cls-14" d="M496.53,463.69a45.45,45.45,0,0,1-9.6,10.64,20.19,20.19,0,0,1-4.65,2.87c-4.71,2-9,.71-14.09-3.43q-90.72-73.66-181.47-147.28a542.33,542.33,0,0,1-61.66-58l34.31-34.31,3.72-3.72,26.4-26.41C302.8,218.49,317,232.62,329.79,248Q412.74,347.72,495,448.07C499.52,453.53,500.35,457.77,496.53,463.69Z"/><path class="cls-15" d="M217.58,170.81c-11.44,10.29-22.11,21.47-32.75,32.62-3.37,3.53-6.53,4-10.88,2.78-34.37-9.43-59.65-31-77.25-61C87.93,130.3,81.83,113.55,76.2,97,63.63,60.11,40.56,33,5.09,16.62c-.76-.35-1.44-.87-3-1.84C5.93,12.85,9,11,12.23,9.78c11-4.14,22.32-4.66,33.87-3.52,24.05,2.38,46.3,10.66,67.75,21.18,27.9,13.7,54.77,29.1,76.81,51.5,19.5,19.82,33.2,42.58,34.47,71.29C225.47,158.12,224.17,164.9,217.58,170.81Z"/><path class="cls-14" d="M214,256.67c-8.7-11.21-17.52-22.45-26.18-33.8-3.14-4.1-3.58-7.86-1-11.51a13.86,13.86,0,0,1,1.45-1.73Q208.37,189.08,229,169c2.75-2.68,6.8-4.67,10.71-2,10.56,7.31,21,14.78,31.4,22.17l6.09,4.32"/><path class="cls-9" d="M213.14,144.72c-3-19.08-11.77-35.36-24.72-49.19-15.73-16.8-41.89-14.76-55.4,3.82-4.1,5.62-7.37,11.84-11.12,17.73-5,7.87-11.4,13.41-22.76,12.08,17.08,31.89,39.58,55.69,73.59,67,5,1.66,6.57-1.34,9.31-4.84-12.73-1.8-23.3-7.09-32.87-14.52s-17.67-16-23.06-27c7,6,13.89,12,20.94,17.91,10.77,9,22.84,15.43,36.72,18,1.95.37,4.15-.55,6.14-1.47-22.81-10-37.82-22.08-43-35.94,1.59,1.3,2.57,2.07,3.52,2.89s2.14,1.91,3.19,2.88a111.33,111.33,0,0,0,37.84,23c2.68,1,5.16,2,6.58-2-11.82-4.93-20.54-13.47-27.46-24.27,1.22,1,2.36,2.05,3.67,2.9q12.25,8.16,24.59,16.21c2.44,1.61,4.09.78,6.49-.95C214.09,162.69,214.65,154.27,213.14,144.72Z"/><polygon class="cls-16" points="225.06 268.49 219.32 262.72 213.97 256.67 225.06 268.49"/><path class="cls-14" d="M289.49,204.05l-26.4,26.41-3.72,3.72-34.31,34.31L214,256.67l4.62-4.62.15-.15c19.7-19.68,38.74-38.72,58.41-58.39l7.25,6.19Z"/></g><g id="Teespring"><path class="cls-17" d="M246.65,291.76h0c0-.07.05-.13.06-.19S246.69,291.69,246.65,291.76Z"/><path class="cls-17" d="M411.32,258.47c-16.54,23-40.79,34.13-57.4,26.28.6-1.24,1.16-2.48,1.79-3.69,8.68-16.92,10.81-34.7,7-53.26-2.75-13.38-15.44-28.12-37.14-26.28-14.83,1.27-28.21,14.51-29.25,30.37-1.25,19.43,5.35,36.19,18.61,50.33,3.17,3.4,6.81,6.35,10.26,9.51-22.21,20.07-58.11,19-78.52,0,0-.07.05-.13.06-.19A1.21,1.21,0,0,1,247,291c1.37-1.16,2.8-2.27,4.15-3.44,16.35-14.21,24.77-32,24.37-53.76-.3-16.14-12.53-30-27.89-32.15-17.59-2.43-33.52,7.31-37.93,23.88-5.16,19.27-2.66,37.87,6.32,55.63.65,1.28,1.21,2.6,2.13,4.56-26.94,3.66-46.06-6.39-58.8-29.42L144.23,263c.62,1.47,1,2.61,1.58,3.69,14.59,28.35,47.68,42.92,78.6,34.64,2.75-.74,5.11-1.65,7.94.92,31,28.27,75.76,28.29,106.91.16,2.13-1.91,3.9-2.25,6.66-1.46a66.89,66.89,0,0,0,40.52-.78c17.78-5.95,30.89-17.44,39.89-34.25C421.1,263.35,416.17,260.88,411.32,258.47Zm-177,19.9a54.66,54.66,0,0,1-9.84-28.08,77.32,77.32,0,0,1,1.37-19,16,16,0,0,1,17.35-13c8.57.78,15.33,7.41,15.49,16.21C259,250.22,250.92,268.71,234.36,278.37Zm103,.42c-13.55-9.24-21.46-21.08-23.73-36.46a34.61,34.61,0,0,1,0-11.08c1.34-7.28,7.51-12.29,14.92-12.9,6.83-.57,14.12,3.27,16.28,9.92C350.54,246,347.11,262.54,337.35,278.79Z"/></g></g></svg>