<svg xmlns="http://www.w3.org/2000/svg" viewBox="0 0 550.43 132.67"><defs><style>.cls-1{fill:#c70c00;}.cls-2{fill:#8c0800;}.cls-3{fill:#ff8e87;}</style></defs><title>Asset 2</title><g id="Layer_2" data-name="Layer 2"><g id="Layer_1-2" data-name="Layer 1"><path class="cls-1" d="M349.84,26.71l-.28-.12c-12.4-5-25.45-10.46-31.56-12.69l-.57-.32c-2.09-.77-2.3-1.4-2.3-1.4a5.51,5.51,0,0,1-2.87-1.28s-.13.25-.14.24c-.36-.34-.77-.7-1.19-1.06h0a15.52,15.52,0,0,0-4.86-3C302.64,6,286,4,286,4c-45.28-5.78-88.85,3.75-93.62,4.77-3.83.82-4.81,3-5,3.76,0,.06,0,.11,0,.15l0,.17-1,.1h0c-15.5,1.51-31.14,3.89-45.32,6.45-4.85.89-9.59,1.8-14,2.66-24.21,4.87-41.46,9.52-41.46,9.52l0,0C82,25.34,70.8,9.08,68.09,4.66S43.92,1.94,43.92,1.94c-4.43-4.08-33.37-.68-38.81.68S0,75.81,0,82.62a18.23,18.23,0,0,0,.65,5.26,6.69,6.69,0,0,0,1.19,2.4,2.22,2.22,0,0,0,.54.51c-4.76,1.36.68,19.75,1.36,26.9s48,14.29,51.07,15,6.9-30,10.54-40.89c.12-.35.23-.67.35-1,3.75-9.87,17.36-17,19.07-18.72s24.17-11.92,45.61-.34,25.19,41.53,27.24,48-.34,12.93,10.89,12.25,209.7-1.7,213.11-2.38,5.1-2.38,6.81-21.79,11.91-32.34,24.85-39.15,28.93-6.12,48,4.43c5.38,3,9.13,8.39,11.74,14.72.16.38.32.76.46,1.14,6.17,16,5.5,37,5.5,39.63,0,3.74,18,2.38,37.79,2.38s26.89-2,31.32-4.42,1.7-1.71-1-12.26a101.23,101.23,0,0,1-2.47-14.13l-.29-3.27c-.07-.85-.12-1.64-.16-2.36-.06-1-.09-1.83-.11-2.52s0-1.2,0-1.55c0-2.38,4.77-3.06-24.85-15.66s-54.81-18.38-78.3-26.55c-21-7.3-58.54-10.25-66.31-10.8h0l-1.41-.09c-.6-.39-1.33-.82-2.17-1.27h0Z"/><path class="cls-2" d="M64,90.11l-4.17.07c-10.12.19-35.37.64-38.89.78-3.94.15-15-1.31-19.1-.68a6.69,6.69,0,0,1-1.19-2.4C2.2,88.49,5,89,10,89.09,22.64,89.26,64,90.11,64,90.11Z"/><path class="cls-2" d="M40,8.24S62.64,5.52,66.05,6.37c0,0-7.83,18-9,25,0,0-3.92,1.53-4.94.17S44.6,16.92,40,8.24Z"/><path class="cls-2" d="M209.37,69.69s-4.6-15.49-1.2-15.49,15.83,0,22.47-.17l-.17,2.89-21.95-.17C207.66,56.75,207.66,61,209.37,69.69Z"/><path class="cls-2" d="M232.86,54.37l81,5.28s-11.07.17-21.28-.34-49.87-1.54-53.28-2.22S232.69,56.07,232.86,54.37Z"/><path class="cls-2" d="M233.88,86l134,3.23s-15.14.51-22.12.34S237.28,87.73,233.88,86Z"/><path class="cls-2" d="M182.3,110.54s-2.21-7.83-2.21-14.13c0,0,9.19-1,16.17.51s21.11,4.94,38,4.94c0,0-18.56.68-28.94-1.87s-23.15-3.75-23.83-2S182.3,110.54,182.3,110.54Z"/><path class="cls-2" d="M231.66,69s-1.53,19.57,10.9,36.25,7,11.41,7,11.41l115.91.17a19.56,19.56,0,0,0,1.36-6.64c0-3.4-.85-17.53,1.19-24s0-24.51,0-24.51,3.41,8.34.86,31.15c0,0-1,3.06-1,13.61s.69,11.58-3.23,11.92-18.89-.51-28.77-.51-86.12.34-86.12.34-16.85-15.83-18.9-35.75-.68-13.78-.68-13.78Z"/><path class="cls-2" d="M544.59,100.15c-.47,1.2-.67,3.36-1.44,5.79-1.19,3.75-1-2.38-1.36-5.45a3.57,3.57,0,0,1,2.51-3.61Z"/><path class="cls-2" d="M538.7,94.07a16.1,16.1,0,0,1-3.38.64c-1.47,0-46.55-4.07-61.84-5.76-.14-.38-.3-.76-.46-1.14a9.73,9.73,0,0,0,3.24.77c3.4.34,54.63,5.62,60.59,5.11C540,93.41,539.82,93.72,538.7,94.07Z"/><path class="cls-2" d="M544.14,94.52a17.72,17.72,0,0,1-5.42,1.38,2.87,2.87,0,0,1,2-1.77l.36-.1A6.43,6.43,0,0,0,544,92C544.05,92.69,544.08,93.54,544.14,94.52Z"/><path class="cls-3" d="M370.92,36.07h0c.82.29,2.09.76,3.58,1.36h0c5.35,2.14,13.54,5.85,14.06,8.76.76,4.34-10.22,2.8-10.22,2.8S367.66,43.64,361,40.07c-4.88-2.63-30.35-17.83-43.47-25.68h0l-5.37-3.22,0,0L309.7,9.69c.3.08.71.21,1.2.38h0c5.84,2.05,24,10,38.63,16.51l.28.12Z"/><path class="cls-3" d="M251.49,48.24l-16.08-2h0s-7.66-30.13-4.34-30.89,61.53-2.81,71.74,3.06,37.28,18.89,46.73,26.81l1.78,10.47a301.91,301.91,0,0,1-43.15-1.54C283.92,51.56,251.49,48.24,251.49,48.24Z"/><path class="cls-3" d="M196.6,43.9l-37.79-2.55s-1.78-4.09,6.13-7.92,37-16.85,55.4-19.91c0,0,4.86,24,3.58,31.15Z"/><path class="cls-3" d="M187.92,12.5S123.32,29.09,113.37,35s-48,2-48,2,29.36-8.17,38.29-10.21S171.83,12.75,187.92,12.5Z"/><path class="cls-3" d="M5.37,3.31s2.55,0,5.1.25,10.47,1,13,1,12.77-1,14.56,2.56S51.83,33.69,53.88,36.75c0,0-4.09-4.08-8.17-12.76S39.58,6.11,32.17,6.11,11.24,7.14,5.37,3.31Z"/></g></g></svg>