<?xml version="1.0" encoding="utf-8"?>
<!-- Generator: Adobe Illustrator 24.0.1, SVG Export Plug-In . SVG Version: 6.00 Build 0)  -->
<svg version="1.1" id="Layer_1" xmlns="http://www.w3.org/2000/svg" xmlns:xlink="http://www.w3.org/1999/xlink" x="0px" y="0px"
	 viewBox="0 0 743.9 131.3" style="enable-background:new 0 0 743.9 131.3;" xml:space="preserve">
<style type="text/css">
	.st0{fill:#FEFEFE;}
	.st1{fill:#5C5C5C;}
	.st2{fill:#5D5D5D;}
	.st3{fill:#4C4C4C;}
	.st4{fill:#4E4E4E;}
	.st5{fill:#959595;}
	.st6{fill:#5A5A5A;}
	.st7{fill:#494949;}
	.st8{fill:#4F4F4F;}
	.st9{fill:#505050;}
	.st10{fill:#4D4D4D;}
	.st11{fill:#616161;}
	.st12{fill:#4A4A4A;}
	.st13{fill:#575757;}
	.st14{fill:#515151;}
	.st15{fill:#4B4B4B;}
	.st16{fill:#525252;}
	.st17{fill:#707070;}
	.st18{fill:#535353;}
	.st19{fill:#5F5F5F;}
	.st20{fill:#B3B3B3;}
	.st21{fill:#A1A1A1;}
	.st22{fill:#AEAEAE;}
	.st23{fill:#7C7C7C;}
	.st24{fill:#B2B2B2;}
	.st25{fill:#7D7D7D;}
	.st26{fill:#929292;}
	.st27{fill:#545454;}
	.st28{fill:#464646;}
</style>
<title>Asset 2</title>
<g id="Layer_2_1_">
	<g id="Layer_1-2">
		<path class="st0" d="M742.9,107.7L742.9,107.7c-0.3-2-0.2-3.9-0.5-5.7c-0.5-3.1-0.3-6.2-0.5-9.3c-0.3-3.4-1-7-0.9-10.3
			c0.1-3.3-0.6-6.5-0.7-9.8c-0.2-4.3-1.1-8.5-0.8-12.8c0.1-1.8-0.4-3-2.3-3.4c0,0,0,0,0,0s0,0,0,0c-0.1-5.6,0.7-11.3-0.5-17
			c-0.1-0.6,0.4-1.5-0.9-1.3c-1.3,0.1-0.6,1.1-0.6,1.6c0,4.4,0.1,8.7,0.1,13c0,3.5,0,3.5-3.4,3.6c-0.5-4.9-0.1-9.8-0.2-14.8
			c0-1,0.4-2.3-1.3-2.2c-1.5,0.1-1.1,1.3-1.1,2.2c-0.1,4.9-0.1,9.7-0.1,14.7c0,0.1,0,0.1-0.1,0.2c-1.3,0.6-0.9,1.8-1,2.8
			c-1.2,17.5-2.4,34.9-3.6,52.4c-0.1,0.8,0.3,1.8-0.8,2.2c-0.7-0.4-0.6-1.1-0.6-1.6c0.9-9.9-1.1-19.7-1.3-29.6
			c-0.1-2.6-1.6-4.1-3-5.9c-0.3-0.3-0.8-0.9-1.3-0.1c-1,1.8-2.9,3.3-2.9,5.5c-0.2,7.6-2,15.1-1.8,22.8c0.1,2.4,0,4.9,0,7.3
			c0,0.7,0.1,1.4-0.7,1.8c-0.5,0.3-1.1,0.5-1.7,0.5c-1.7,0-3.1-1.5-3-3.2c-0.3-5.6,0-11.2-0.6-16.8V94l-0.1-2c0,0.2-0.1,0.3-0.2,0.5
			c0-0.2,0.1-0.4,0.1-0.6c-0.1-5.3,0.1-10.6-0.4-15.9c-0.2-1.8,1-5-2.8-5.3c-0.7,0-0.5-1.2-0.6-1.8c-0.4-2.8-0.7-5.7-1-8.5
			c-0.1-0.7-0.5-1.8-1-1.3c-1.7,1.8-1.9-0.3-2.9-0.8l-1,2c-0.8-0.1-0.6-1.6-1.7-1.2c-0.9,0.3-0.4,1.3-0.7,1.8
			c-1.3,2.1-1,4.4-0.8,6.6c0.2,2.2-0.2,3.8-2.8,4c0,0.1,0,0.2,0,0.3c-0.4,9.1-0.1,18.2,0,27.3c0,0,0,0,0,0.1
			c-0.1,4.2-0.2,8.3-0.1,12.5c0,1.9-0.5,2.6-2.5,2.6s-2.3-0.9-2.3-2.5c-0.2-10.9-0.4-21.8-0.6-32.6c0-1.3,0-2.5-1.9-2.4
			c-1.6,0.1-1.5-1.2-1.5-2.2c-0.1-4.8-0.1-9.6-0.2-14.4c0-0.9,0.2-2-0.7-2.7c-1.1-0.8-1.2,1.3-2.2,1c-0.4-1.5,0.7-3.7-2.2-3.9
			c-3.3-0.3-2.8,2.2-3,4.3c-0.8-0.7-0.9-1.6-1.8-1.3c-0.7,0.3-0.8,1-0.8,1.5c-0.2,1.7-0.2,3.3-0.2,5v11.2c0,0.6,0.3,1.6-0.8,1.6
			c-0.7,0-0.7-0.8-0.7-1.4c0-1.1-0.1-2.3,0-3.4c0.1-2.1-0.7-3-2.8-2.2c0,0,0,0.1,0,0.1c0,0,0,0,0-0.1c0,0,0,0,0,0
			c-0.6,1-0.3,2.1-0.3,3.1c0,14.5-0.1,29.1,0.1,43.6c0,3.2-1.8,5.5-2.4,8.4c-0.1-5.4-1.1-10.7-1.5-16c-0.3-4.6-0.3-9.2-0.5-13.8
			c0-1-0.2-2.3-1.3-2.2c-1.1,0.1-1.1,1.2-1.3,2.2c-0.5,2.1-0.1,4.2-0.1,6.2c-0.1,5.3-0.5,10.6-1.2,15.9c-0.3,2.5,0.2,5.1-0.7,7.6
			c-1.5-1.2,0-3.5-2.2-4.4c-0.4,1.7-0.7,3.4-0.6,5.2c0,0.7,0.5,1.9-1,1.9c0-8.8,0.3-17.6-0.1-26.4c0,0,0,0,0,0v0
			c-5.1-8.1-11-15.7-16.5-23.5c-1.1-1.5-1.2-0.1-1.7,0.3c0-0.1,0-0.2-0.1-0.3c0,0,0,0,0,0.1c0,0,0,0,0-0.1c-1.7-0.8-0.8,0.8-0.8,1.1
			c0,8.1-0.1,16.2,0,24.2c0,2-0.6,2.7-2.7,2.6c-1.8-0.1-3.6-0.5-5.3,0.3h0l0,0c-0.6,1.9-0.2,3.9-0.4,5.9c-0.1,0.7,0.2,1.9-0.8,1.9
			c-1.4,0-1-1.2-1-2c0-3.1,0.1-6.2,0.1-9.3c0-2.8,0.4-5.6-0.5-8.3c0-0.1,0-0.1,0-0.2c-0.5-0.2-1.1-0.3-1.7-0.3
			c-2.2-0.4-3.4-0.5-4.1,0.1c-0.7,0.2-0.8,0.8-0.8,1.6v0.1c-0.2,0.9-0.2,2.2-0.2,3.9c-0.1,0.5,0,1,0,1.5c0,0,0-0.1,0-0.1
			c0,0,0,0.1,0,0.1c-0.6,5.3-0.8,10.7-0.6,16c0,0.1,0,0.1,0,0.2c0-0.1,0-0.1,0-0.2c0,0.2-0.1,0.5-0.1,0.7c-0.4,2.6-0.5,5.3-0.4,7.9
			c0-0.1,0-0.1,0.1-0.2c0,0.1,0,0.2,0,0.2v2.4c-0.1,0-0.1,0-0.2,0.1c0,0,0.1,0,0.1-0.1c-2.5,0.5-5.2,0.5-7.7,0.1c0,0,0,0-0.1,0
			c0-0.1,0-0.2-0.1-0.3h-0.1c0-12.7,0-25.5,0-38.3c0-8,0.2-16-0.1-24c-0.1-1.5-0.5-2.3-2.1-2.1c-1.2,0.1-2.1-0.3-1.9-1.8
			c0.3-2-0.9-2-2.5-2.2c-4.7-0.6-6.8,3-9.5,5.6c0,0.1,0,0.1,0.1,0.2c-0.1,0.4-0.1,0.8-0.1,1.2v58.5c0,0,0,0.1-0.1,0.1
			c-0.4,0.2-0.8,0.5-0.9-0.2c-0.2-1.3-0.4-2.6-0.5-3.9c-0.4-12.9-0.8-25.7-1.1-38.6c0-1.6,0-1.6-1.6-1.5c-0.4,0-0.8-0.2-0.8-0.5
			c0.3-3.9-4.3-5.7-4.3-9.5c0-0.2-0.6-0.3-1.3-0.7c1.2,4-2.1,6.6-2.4,10c0,0.4-0.1,1-0.7,0.7c-1.9-1-1.3,0.6-1.3,1.2
			c0,3.7,0.1,7.3,0.1,11c0,0.9,0.4,1.9-0.6,2.6c-1.2,0.8-0.7-1.5-1.8-0.9c-0.4,0.2-0.8,0.4-1.1,0.6c-0.2,0-0.3-0.1-0.5-0.4v0
			c0-0.3,0-0.5,0-0.8c-0.1-0.3-0.5-0.3-0.5,0c-0.2,0.8-0.3,1.5-0.3,2.3c-0.1,6.4-0.1,12.8-0.1,19.2c0,0,0,0-0.1,0.1
			c-1.1-0.1-2.3-0.1-3.4,0c-2.5,0.3-3.1-0.8-3.1-3.1c0-7.3-0.2-14.6-0.3-21.9c0.1-1.9-0.3-3.8-1-5.5c-0.3-0.6-0.5-1.2-1.2-1.2
			c-0.6,0.1-0.9,0.6-1,1.1c-0.1,0.7-0.4,1.3-0.8,1.9c-1.1,1.5-2.8,0.8-4.1,0.8s-1-1.3-1-2.1c0.1-2.9-1-5.5-1-8.4
			c0-1.8-0.8-4.9-2.2-5.1c-3.1-0.6-6.5-1-9.7,0.8c0-0.7,0-1.4,0-2.1c-0.4-3.3,1.4-7.2-2.5-9.6c-0.1-0.1-0.1-0.1-0.1-0.2
			c-1.6-4.5-5.5-5.4-9.6-6c-1.6-0.2-2.2,0.3-2.2,2c0.1,6,0.1,12,0.1,18c0,0,0,0.1,0,0.1c-0.1,15.6-0.1,31.2-0.2,46.8c0,0,0,0,0,0
			c-0.8-0.9-2.7,0-2.8-1.4c-0.2-1.9-1.4-3.4-1.6-5.2c-0.2-1.2-0.3-1.9-1.8-1.9s-2,0.9-2.2,2c-0.2,1.1-0.2,2.2-0.2,3.4
			c0,0.7-0.3,1.1-1.1,1.2c-0.8,0-1.4-0.3-1.4-1.2v-2.1c0-12.2,0-24.4,0.1-36.6c0-3.6-0.4-6.9-2.4-10.2c-0.5-0.8-1.3-1.3-2.2-1.6
			c-0.6-0.2-0.2,1.1-0.7,1.6c-1.6,1.7-1.3,4.1-2.3,6c0,0,0,0,0,0.1c0,0,0,0,0,0c0,0.3,0,0.5,0,0.9c-0.5,8.5-0.3,17-0.5,25.5
			c-0.1,2.3,0,4.5-0.1,6.8c0,0.9,0.4,2.3-1.3,2.3c-1.7-0.1-1.1-1.5-1.2-2.4c0-0.6,0-1.2,0-1.8c0-9-0.1-18.1,0-27.1
			c0-1.9-0.6-2.8-2.5-2.6c-1.9,0.2-2.3-0.7-2.3-2.5c0.1-8.5,0.1-17,0-25.6c0-2.1,0.2-4.3-0.5-6.4v0l0,0c0,0,0,0,0,0c0,0,0,0,0,0
			c0,0,0,0,0,0c-0.8-0.5-1.8-0.9-1.7-1.9c-1.8,1.8-4.2,3.1-6.7,3.6c-1.9,0.4-2.7,1.2-2.7,3.3c0,7.3-0.2,14.6-0.3,21.9
			c-0.1,8.2-0.2,16.4-0.2,24.5c0,1.1,0.3,2.3-1.5,2.5c-1.3,0.1-2,0.1-2.8-1.4c-1.8-3.4-4.2-6.5-6.4-9.9l-2.5,3.7
			c-0.3-14.1-0.6-27.6-0.7-41.1c0-2.4-0.4-3.7-3.1-3.2c-2.1,0.4-2.7-0.5-2.7-2.6c0.1-4.8-0.1-9.6-0.1-14.4c0-1-0.2-1.9-0.6-2.8
			c-2.7,1.4-0.9-1.2-1.5-1.7c0,0,0,0-0.1-0.1v-4.1c0.2-2.4,0.1-4.8-0.2-7.2h-0.7v4.1c0,2.4,0,4.8,0,7.3h0.1l0,0
			c-0.4,0.8,0.5,2.3-1.1,2.4c-1.4,0.1-2.9,0.6-4.2-0.4h0c0-3.8-0.1-7.5-0.1-11.3c0,0,0,0,0,0c0-1.9,0.5-3.8-0.9-5.6v9.7c0,0,0,0,0,0
			c-0.1,1.9-0.1,3.8,0,5.6c0.1,1-0.4,2-1.2,2.5c-0.2,0-0.3,0.1-0.5,0.2c0,0,0,0,0,0c-0.1,0.4-0.2,0.8-0.3,1.2
			c0.1,18,0.2,36.1,0.3,54.1c-0.7,1-0.4,2.2-0.5,3.3c0,13.4,0,26.8,0.1,40.1c0,2-0.3,3.3-2.8,2.3c1,0.5,1.8,0.8,2.2,0.6
			c-0.4,0.2-1.1,0-2.3-0.5c0.4-5.8,0.1-11.7,0-17.5c-0.1-0.3-0.1-0.5-0.2-0.8c0.1,0.2,0.2,0.4,0.2,0.7c-0.1-12.6-0.1-25.2-0.2-37.8
			c0-0.3,0-0.5,0-0.8v-0.3c0-0.4-0.1-0.8-0.3-1.3v0.2c0,0,0-0.1,0-0.1c-0.1-0.1-0.3-0.2-0.4-0.2c-0.6-0.1-1.2-0.1-1.8-0.2h1.8
			c-3.2-0.5-6.5-0.5-9.7,0h1.7c-0.6,0-1.2,0.1-1.8,0.2c-1.1,0.1-1,1-1,1.7c0,1.5,0.1,3,0.1,4.5v0c-0.2,0.5-0.2,1.3-0.9,1
			c-0.7-0.3-0.5-1-0.5-1.6c-0.1-5.2,0-10.5-0.1-15.7c0-0.8,0-1.6-0.8-2.1c-1.1-0.6-1,0.9-1.9,1.1c-0.1-1.8,0.7-4-2.4-4.2
			c-3.4-0.2-2.3,2.4-2.8,4.1c-1,0-0.9-1.5-1.9-1.2c-1,0.3-0.8,1.3-0.9,2c-0.1,0.8-0.1,1.6-0.1,2.3c0,4.3-0.1,8.5-0.2,12.8
			c0,0.8,0.3,2.2-0.9,2.1c-2.7-0.1-2.4,1.7-2.4,3.3c-0.2,10.6-0.4,21.2-0.6,31.9c0,1,0.3,2.4-1.3,2.4c-1.3,0-3.1,1-3.6-1.3
			c-0.1-0.1-0.1-0.2-0.2-0.3c0.1-8.6,0.3-17.1,0.3-25.6c0-4.8,0.4-9.6-0.1-14.3c0-0.4,0-0.8,0.1-1.1c-0.1,0-0.1,0-0.2,0
			c0,0,0-0.1,0-0.1c-0.2,0-0.3,0-0.5,0c0,0,0,0,0,0c-2-0.3-2.3-1.8-2.2-3.9c0.1-2.3,0.3-4.7-0.9-6.8c-0.3-0.5,0.1-1.3-0.7-1.5
			c-1.1-0.4-0.9,1.1-1.7,1.3c-0.5-0.6-0.3-1.7-1.2-1.9c-0.9-0.2-0.7,3-2.5,0.7c-0.6-0.7-1.2,0.4-1.3,1.3c-0.3,2.8-0.6,5.7-1,8.5
			c-0.1,0.7,0.1,1.9-0.9,1.9c-1.9,0-1.8,1.2-2.1,2.5c-0.8,3.7-0.7,7.4-0.8,11.2c-0.3,9-0.5,18.2-0.7,27.2c0,1.9-0.8,2.5-2.5,2.3
			c-1.3-0.2-3.1,0.6-3-1.8c0.2-8.6-0.7-17.1-1.5-25.7c-0.4-4.2-1.3-7.9-4.3-11.3c-0.4,2.4-2.9,3.6-3.1,6c-0.5,7.2-1.1,14.3-1.5,21.5
			c-0.2,2.9,0,5.8,0,8.6c0,0.8,0.4,1.8-0.6,2.4c-1.1-0.7-0.7-1.8-0.8-2.8c-1-13.8-2-27.6-2.8-41.4c-0.6-9.4-2.6-18.7-1.9-28.2
			c0-0.8,0.2-1.9-1.1-2c-1.6-0.1-1.3,1.1-1.3,2v12c0,3.4-0.4,3.6-3.9,2.5c0,0-0.1,0-0.1,0v0c0.1-5.4,0.3-10.8,0.3-16.1
			c0-0.8,0.4-1.9-1-1.9c-1.2,0-0.9,1.1-0.9,1.8c-0.1,5.5-0.1,11.1-0.1,16.6c0,0,0.1,0,0.1,0.1c-1.4,0.2-1.9,0.9-2,2.4
			c-0.4,6.7-1,13.3-1.5,20c-0.7,9-1.4,18-2.1,27c0,0.6,0.1,1.5-0.6,1.8c-0.8,0.3-0.9-0.6-1.4-0.9c-1.2-0.8-2.5-2-3.9-1.9
			c-1.6,0.2-1.5-0.7-1.5-1.7c0-3.7,0.1-7.5,0-11.2c-0.1-1.9,0.6-3.8-0.4-5.6c-0.1,0.1-0.1,0.2-0.1,0.3v-0.3l-0.4-0.1c0,0,0,0,0-0.1
			l-0.4-0.6c-0.1-0.1-0.1-0.1-0.1-0.2c0.1-7.4,0.2-14.8,0.2-22.2c0-3.5,0.3-7-0.1-10.5c0-0.3,0-0.6,0-1c-1.3-0.9-3.4,0.1-4.2-0.9
			c-1.8-2.3-4-1.1-6-1.4c-1.2-0.2-1.7,0.6-1.7,1.7c-0.2,6.9-0.7,13.8-1,20.6c-0.7,14.7-0.5,29.5-0.7,44.3c0,0.8,0.4,2.1-0.7,2.1
			s-0.9-1.3-1-2.1c-0.5-3.9-1.1-7.7-1.2-11.7c-0.1-4.6-0.5-9.2-0.8-13.8c0,0-0.1,0.1-0.1,0.1v-0.1l-0.1-15.4c0-0.7,0.1-1.5,0.1-2.2
			c0.6-1.3-0.9-1.7-1.2-2.6c-0.8-2-2.7-0.8-4.1-1s-1.2,1.2-1.5,2c-0.1,0.1-0.1,0.1-0.2,0.2c0-0.1,0-0.2,0.1-0.3
			c-1.2,0-1.1,0.9-1.1,1.7v18.5c-0.1,0.6-0.2,1.3-0.2,2c-0.2,8.4-0.8,16.9-2,25.2c0,0.9-0.2,1.8-0.6,2.6c-0.6-0.2-0.6-0.6-0.6-0.9
			c-1.5-11-2.2-22.2-2.3-33.3c-0.1-4.6-0.1-9-0.2-13.6c-0.1-2.8-1.3-4.1-4-4.1c-2.7,0-4.1,1.5-4.1,4.5c0,14.2-0.1,28.4-2,42.5
			c-0.1,0.7,0.2,1.9-0.9,1.8c-1.1,0-0.7-1.2-0.7-1.9c-0.3-20.6-0.3-41.1-1.6-61.7c-0.1-1-0.1-2.1,0-3.1c0.1-1.7-0.7-2.1-2.3-2.3
			c-3.6-0.4-6.3,2.1-9.6,2.4h0c-0.1,0-0.1,0-0.2,0c-0.3,11.3-0.1,22.6,0,33.9c0.2-0.1,0.3-0.2,0.4-0.4c0,0.2-0.1,0.3-0.3,0.5
			l-0.5,0.6c0,0.5-0.1,1-0.1,1.5v-1.6l-0.5,0.1v0.2c-0.5,0.7-0.3,1.6-0.3,2.4v11.8c0,2,0.8,4.5-2.8,4.6c-1.2,0.2-2.3,0.9-3,2
			c-0.5,0.6-1,0.6-1.6,0.4c-0.1,0-0.1,0-0.2,0c0,0,0.1,0,0.1,0c-0.3-1.8-0.3-3.6-0.6-5.4c-0.6-3.2-0.2-6.4-0.5-9.6
			c-0.3-3.4-0.9-7-0.9-10.3c0-3.3-0.6-6.5-0.7-9.8c-0.1-4.2-1-8.3-0.9-12.6c0-1,0.5-2.5-0.8-3c-1.5-0.5-1.4-1.6-1.4-2.7
			c0-4.5,0.1-9,0-13.5c0-1,0.8-3-1-2.9c-1.6,0-0.8,2-0.8,3c-0.1,4.4,0,8.9,0.1,13.3c0.1,1.6-0.5,2.3-2,2.3c-0.1,0.1-0.1,0.1-0.2,0.2
			c-1.3-0.1-1.4-1-1.4-2.2c0-4.4,0-8.7,0-13.1c0-0.9,0.1-1.9-1.2-1.9c-1.3,0-1.3,1-1.3,1.8c-0.3,6.1-0.4,12.2-1,18.3
			c-1.7,17.3-2.6,34.7-3.8,52.1c0,0.8,0.3,1.8-0.8,2.2c-0.4-0.2-0.7-0.7-0.6-1.2c-0.1-6.4,0.5-12.7-0.6-19c-0.7-4-0.5-8.1-0.9-12.2
			c-0.2-2.1-1.8-3.5-3.1-5c-0.3-0.3-0.7-0.5-1.1,0.1c-1,1.8-2.9,3.3-2.9,5.5c-0.2,7.7-2,15.3-1.8,23.1c0.1,2.3,0,4.7,0,7
			c0,0.7,0.1,1.4-0.7,1.8c-0.5,0.3-1.1,0.5-1.7,0.5c-1.7-0.1-3.1-1.5-3-3.2c-0.3-5.6,0-11.1-0.6-16.7c0,0.1,0,0.1-0.1,0.2v-0.2
			c0-0.7,0-1.4-0.1-2.1c0-0.1,0-0.3,0-0.4c-0.1-5.3,0.1-10.6-0.4-15.9c-0.2-1.8,0.9-5-2.9-5.3c-0.7-0.1-0.5-1.2-0.6-1.9
			c-0.3-2.8-0.7-5.7-1-8.5c-0.1-0.7-0.5-1.8-1.1-1.2c-1.6,1.7-1.9-0.3-2.8-0.8l-1.1,2c-0.6-0.3-0.6-1.6-1.6-1.3
			c-0.9,0.3-0.4,1.3-0.7,1.8c-1.3,2.1-1,4.4-0.9,6.6c0.2,2.2-0.2,3.8-2.8,4c0,0,0,0,0,0h0c-0.4,9.2-0.1,18.5,0,27.7
			c0.2-0.4,0.3-0.7,0.4-1.1c0,0.4-0.1,0.7-0.3,1c-0.1,4.2-0.2,8.4-0.1,12.5c0,1.9-0.5,2.6-2.5,2.6c-2,0-2.3-0.9-2.3-2.5
			c-0.2-10.9-0.4-21.7-0.6-32.6c0-1.3,0-2.5-1.9-2.4c-1.6,0.1-1.5-1.2-1.5-2.2c-0.1-4.9-0.1-9.7-0.2-14.6c0-0.9,0.1-1.9-0.6-2.4
			c-1.2-0.9-1.2,1.3-2.2,1c-0.4-1.7,0.6-3.9-2.5-4c-3.3-0.1-2.5,2.3-2.7,4.4c-1.4-1.9-2.3-1.9-2.6,0.1c-0.1,1-0.2,2.1-0.2,3.1v12.5
			c0,0.9,0.4,2.2-1.1,2.5c0,0,0,0.1,0.1,0.1c0,0-0.1,0-0.1-0.1c-0.7-1.4-0.3-2.8-0.4-4.2c-0.1-1.1,0.3-2.4-1.1-3.1
			c-0.2,0-0.3,0-0.5-0.1h0.5c-3.2-0.5-6.5-0.5-9.7,0h0.5c-0.2,0-0.3,0-0.5,0.1c-1.3,2.6-0.5,5.4-0.5,8.1c-0.1,0.3-0.2,0.6-0.3,1v0.1
			c-0.1,0.6-0.1,1.2,0,1.8v6.9c-0.1,11.6-0.1,23.2-0.2,34.8c0,0,0,0.1,0,0.1v5c-0.4,0.1-0.7,0.3-1,0.3c-1.3,0.1-1.6-0.8-1.6-2.5
			V83.2c-0.1,0.3-0.2,0.6-0.3,0.9c0-0.4,0.1-0.7,0.2-1v-0.5c0,0,0,0,0,0c0,0,0,0.1,0.1,0.1c0-16.5,0-33,0.1-49.5
			c0-1.6-0.1-3.3-0.3-4.9c0.1-0.5,0.1-1-0.2-1.4c-0.3-2.5-0.8-4.9-1.2-7.4v6.6c0,0,0,0-0.1,0c-1-2.5-0.3-5.1-0.6-7.7h0.1v-4.7
			c0-1.7,0.5-3.5-0.9-5v5.1c0,1.5,0,3,0,4.6c0,0,0,0.1-0.1,0.1c-0.1,1.7-0.2,3.4-0.2,5.2c0.1,1.8-0.3,2.7-2.4,2.6
			c-1.8-0.1-3-0.3-2.8-2.6c0.1-1.3,0-2.7-0.1-4c0,0,0-0.1,0.1-0.1v-7c-0.8,3.4-1.1,6.9-0.9,10.4c0,0.1,0,0.1-0.1,0.1
			c-0.3,0.9,0.2,2.6-0.4,2.6c-2.8-0.1-1.7,1.9-1.7,3c-0.2,4.4-0.3,8.9-0.1,13.3c0.1,2.5-0.8,3.3-3.1,2.9c-2-0.3-2.7,0.5-2.7,2.6
			c-0.1,12.9-0.4,25.7-0.7,38.6c0.2,0.8,0.1,1.7-0.2,2.5c-0.6,0.1-0.8-0.5-0.9-0.8c-0.9-2.2-1.8-2.1-2.9-0.1
			c-1.7,2.9-3.6,5.6-5.2,8.4c-0.3,0.5-0.8,0.9-1.4,0.8c-2.3,0.2-2.7-1-2.7-3c-0.1-15.3-0.3-30.6-0.5-45.9c0-1,0.5-2.5-0.8-2.7
			c-2.8-0.4-4.9-2.5-7.6-2.9c-0.2-2.1-0.4-4.3-0.7-6.4h-0.6v6.3c0,0,0,0-0.1,0c-0.5,0.1-1.1,0.1-1.4,0.6c0,0,0,0.1,0,0.1
			c-0.3,1.1-0.4,2.3-0.1,3.4l0,0c-0.4,0.9-0.6,2-0.4,3v22.9c0,4.3,0,4.3-4.1,5.3c-0.1,0-0.1,0.1-0.2,0.1c0,0,0,0.1,0.1,0.1v0
			c0,0,0-0.1-0.1-0.1c-0.7,0.9-0.4,2-0.4,3v28.4c0,0.9,0.3,2-1.3,2.1c-1.5,0-1.3-1.2-1.3-2.1c-0.1-5.8,0-11.7-0.2-17.5
			c-0.2-5.3,0.3-10.6-0.4-15.9v-0.2c0-0.1,0-0.3-0.1-0.4c0,0.2-0.1,0.3-0.1,0.5c0-0.2,0-0.4,0.1-0.6c-0.6-2.2-1.7-4.3-2.4-6.5
			c-0.5-1.4-1.5,0.8-1.6-0.6c0-0.2-0.5,0-0.7,0.4c-1.8,3.6-2.8,7.5-2.8,11.5c0.2,8.1,0.1,16.2,0.1,24.2v13.3c0,0.9,0.3,2.1-1.2,2.1
			s-1.3-1.1-1.3-2c0-1-0.1-2.1-0.3-3.1c-0.4-1.4-1.2-1.4-2.4-1.4c-1.2,0-1.1,0.8-1.5,1.7c-1.1,2.5-0.5,6.2-4.5,6.8
			c0-5.5,0-11.1,0-16.6c0-15.9-0.1-31.9-0.1-47.8c0-1.5,0-2.9-2-2.4c0,0-0.1,0-0.2,0c-4.6,0.2-7.2,2.8-10.2,6.3
			c-3.5,4-0.5,8-2.3,11.5c-0.9-0.8-8.4-1.7-9.4-1c-0.3,0.2-0.4,0.8-0.6,1.1c-2.3,3.7-1.9,8-2.4,12c-0.3,2.5-1.1,3-3.3,2.9
			c-1.7-0.1-2.2-1.2-2.6-2.4c-0.2-0.7-0.4-1.5-1.2-1.4c-0.8,0.1-0.8,0.9-1.1,1.5c-1,1.9-0.9,3.8-0.9,5.8c-0.1,6.8-0.2,13.6-0.4,20.4
			c-0.1,4.1-0.1,4-4.3,4c-1.9,0-2.3-0.7-2.3-2.4c0.1-5.8,0-11.5,0-17.2c0-0.7,0.4-1.6-0.6-2.3c-0.2,2-1.8,0.3-2.3,1
			c-0.4,0.5-0.6,1.1-1.3,0.8c-0.7-0.3-0.5-1-0.5-1.6V83.3c0-1.7,0-1.7-1.7-2.6c-0.1-0.1-0.3-0.3-0.3-0.3c0.4-1.9-1-3.2-1.7-4.7
			c-0.7-1.6-0.6-3.4-1.6-5.4c-0.7,2-0.8,3.9-2.8,4.4c-0.1,0-0.2,0.5-0.2,0.7c-0.2,1.8-2.5,2.8-1.8,4.9c0,0.1-0.3,0.4-0.5,0.4
			c-1.8,0.2-1.8,0.2-1.8,2.1l-1.1,38.4c0,1.3-0.3,2.6-1,3.7c-0.2-0.9-0.3-1.9-0.2-2.8V68.2c0-1.1,0.3-2.3-0.3-3.3c0,0,0,0,0,0v0
			c0,0,0,0,0,0c-0.8-1.6-3.2-1.9-3.3-4.1c0-0.3-1-0.6-1.6-0.8c-1.7-0.5-3.4-0.7-5.2-0.7c-1.3-0.1-2,0.4-1.9,1.8
			c0,0.9,0.1,2.3-1.3,2.1c-2.9-0.3-2.7,1.7-2.9,3.5c-0.1,1.3-0.1,2.6-0.1,3.9c-0.1,19.2-0.1,38.3-0.1,57.5c-2.6-0.2-5.4,1-7.8-0.8
			c0.5,0.5,1,0.8,1.5,1.1c-0.2,0-0.4,0-0.5,0c-0.6,0-0.9-0.5-1-1c0.2-1.3,0.2-2.6-0.1-3.9c-0.1-0.2-0.1-0.5-0.1-0.7
			c0.1,0.2,0.1,0.5,0.2,0.7c0.2-2.7,0-5.4-0.5-8.1c0,0.2,0,0.4,0,0.5c0-0.2-0.1-0.3-0.1-0.5c0.2-1.5,0.2-3-0.1-4.4
			c-0.1-0.2-0.1-0.5-0.1-0.7c0.1,0.2,0.1,0.5,0.2,0.7c0-2.7,0.2-5.4-0.5-8.1c0,0.2,0,0.4,0,0.6c0-0.2-0.1-0.4-0.1-0.5
			c0.2-0.9,0.2-1.9,0-2.9c-0.1-0.2-0.2-0.5-0.2-0.7v-0.1c0.1,0.3,0.2,0.5,0.3,0.8c0.2-6.4-0.1-7-5.8-6c0,0,0,0,0,0
			c-0.2,0-0.4,0-0.6,0c-0.1,0-0.3,0.1-0.4,0.2c0,0,0,0,0,0c0,0.1,0,0.3,0,0.4c-0.8,5.3-0.5,10.7-0.1,16.1c0,0,0,0.1,0,0.1
			c0,0.1,0,0.2,0,0.3c0,0.6,0.1,1.1,0.1,1.7l-0.1,1.1c-2.1,0.8-2-0.7-2-1.9c-0.2-5.9-0.3-6-6-6c-1.8,0-2.4-0.5-2.4-2.4
			c0-7.5,0-14.9,0-22.4c0.1-1,0.1-2.1,0-3.1c-0.2-1-0.6-0.5-0.9,0v0c0,0,0,0,0,0c-0.1,0.1-0.2,0.2-0.2,0.3c-0.5-0.3-0.6-1.8-1.7-0.3
			c-5.5,7.8-11.3,15.4-16.5,23.5v0.1c0,0,0-0.1,0-0.1c0,8.9-0.1,17.7-0.1,26.6c0.1-0.2,0.2-0.5,0.3-0.7v0.3c0,0.1-0.2,0.3-0.3,0.4
			l-0.5-0.1c-0.2,0-0.3-0.1-0.5-0.1c0.2-2.3-0.1-4.7-1-6.9c-0.7,1.2-1,2.6-1,4c-1,0.6-1-0.3-1-0.8c0.4-6.6-1.4-13-1.4-19.5
			c0-3.1,0.3-6.2-0.3-9.3c-0.2-1-0.2-2.1-1.4-2.1c-1,0-1.2,1.1-1.2,2c-0.1,4.3-0.4,8.5-0.4,12.7c-0.2,2.5-0.5,4.9-0.9,7.3
			c-0.3,2.9-0.2,5.9-0.3,8.8c0,0.6,0.1,1.6-1.1,0.9c0,0,0,0,0,0c-0.2-0.8-0.3-1.6-0.4-2.4c0-1.3-0.7-1.3-1.6-1.3v0
			c1.3,1.1,0.4,3.1,1.7,4.2c0,0,0.1,0.1,0.1,0.1c0.1,0,0.2,0.1,0.3,0.1c1.9,0.5,2.3-0.8,2.3-2.2c0.1-5,1.1-10,1.2-15
			c0.1-3.4,0.6-6.9,0.5-10.3c0.3,2.4,0.5,4.8,0.5,7.3c-0.4,6.1,1.2,12.1,1.2,18.2c0,1.4,0.5,2.5,2.2,2.3c0,0,0.1,0,0.1,0
			c0.3-0.1,0.5-0.2,0.6-0.2c0.3,0,0.5,0.2,0.5,0.8v0c0,0.3,0,0.6,0.1,0.9c0.1,0.6,0.4,1.1,1.3,1.1c0,0,0,0,0,0
			c0.3,0,0.5-0.2,0.6-0.3c0.1-0.1,0.2-0.2,0.3-0.4c0.2-0.6,0.3-1.2,0.2-1.8c0-7.6-0.3-15.3,1-23c0-1.7,0.7-3.3,1.7-4.6
			c3.9-5.5,7.9-11,11.9-16.5c0.5-0.6,0.8-1.6,1.9-1.6c0.2,0.1,0.4,0.2,0.5,0.2c0.2,0.2,0.3,0.4,0.5,0.6c0.2,0.4,0.3,0.8,0.3,1.3v0
			c0,0.1,0,0.2,0,0.3v0.1c0,0.4,0,0.8,0,1.1c0,2.7,0,5.4,0,8.2v1.6c0,1.6,0,3.2,0,4.9c0,0,0,0.1,0,0.1v0.4c0,1.5,0,2.9,0,4.4
			c0,1.8,0.4,2.7,2.2,2.9c0.1,0,0.3,0,0.4,0c0.8,0,1.5,0.1,2.2,0.2h0c2.1,0.4,3,1.4,3.4,3.7c0.1,0.6,0.2,1.2,0.2,1.9
			c0,0.2,0,0.3,0,0.5c0,0,0,0,0,0c0.2,1.9,0.8,2.2,2.9,1.6c0.1,0,0.2,0,0.3-0.1c0.1-0.1,0.1-0.2,0.2-0.3c0.3-0.4,0.4-1,0.3-1.5
			c-0.8-4.6-0.4-9.3-0.4-13.9c0-0.5,0.1-1,0.3-1.4c0.2-0.3,0.4-0.6,0.7-0.9c0.2-0.2,0.3-0.4,0.4-0.7c0.3-0.4,0.6-0.8,1-1
			c0.3-0.2,0.7-0.2,1.1,0c0,0,0.1,0,0.1,0c0.8,0.3,1.5,0.9,1.8,1.7c0,0,0,0,0,0c0.1,0.2,0.1,0.4,0.2,0.6c0.1,1.1,0.1,2.3,0,3.4
			c-0.2,1-0.1,1.9,0.1,2.9c0.5,2.5,0.6,5.1,0.3,7.7c0.2,0.8,0.1,1.5,0,2.3c-0.1,0.8-0.1,1.6,0.2,2.4c0.2,0.8,0.3,1.6,0.4,2.4
			c0,0.1,0,0.1,0,0.2c0.2,1.8,0.1,3.6-0.1,5.5c0.1,1.4-0.3,2.9,0.5,4.2c0.6,0.7,1.6,1.1,2.5,1c1.9,0.1,3.8,0,5.7-0.1
			c0.2-0.1,0.3-0.2,0.5-0.3c0.1-0.1,0.2-0.2,0.3-0.3c0.1-0.1,0.1-0.2,0.1-0.3c0.7-1.2,0.5-2.5,0.5-3.8c0.1-17.7,0-35.4,0-53.1
			c0-2.9-0.1-5.7,3.2-7c0.4-0.1,0.5-0.6,0.8-1c0.2-0.4,0.6-0.8,0.9-1.1c1.7-1.4,4.2-1.1,5.6,0.6c0.9,1,1.7,2,2.4,3.1
			c0.1,0.3,0.3,0.5,0.4,0.8c0.6,0.5,0.9,1.2,1.1,1.8c0.3,1,0.2,2,0.2,3v50.6c0,0.8,0,1.7,0.1,2.5c0,0,0,0.1,0,0.1
			c0.1,0.5,0.3,1,0.9,1.1c0.1,0,0.1,0,0.2,0c0.5,0,0.9-0.3,1.1-0.7c0.6-1.1,0.9-2.3,0.8-3.5c0.3-11.8,0.7-23.6,1.1-35.4
			c0-1.1-0.2-2.3,0.6-3c1.5-1.3,1.8-3.2,2.9-4.6c0.6-0.9,0.6-2.6,1.9-2.5c1.4,0,1.2,1.7,1.7,2.6c2,3.5,3.5,7.1,2.9,11.3
			c-0.1,1.5-0.1,3,0.1,4.4c0.2,1.4,0.9,2.4,2.4,2.2c1.4-0.1,2.1,0.2,2.4,0.9c0.3,0.5,0.3,1.3,0.3,2.1v14.1c0,0.2,0,0.3,0,0.5
			c0,0,0,0,0,0c0.1,2.3,0.6,2.7,3.2,2.8c0.8,0,1.6,0,2.4,0c0.1,0,0.1,0,0.2,0c1.4,0,2.5-1.2,2.5-2.6c0.2-2.5,0.7-5,0.7-7.5
			c-0.1-5.1,0-10.3,0-15.4c0-3,0.2-3.1,3.2-2.4c3.7,1,5.1-0.1,5.8-3.9c0.4-2.3,0.8-4.6,1.2-6.9c0.7-4.5,3.6-6.1,8-4.7
			c3.3,1,4.1,0.7,3.8-2.7c-0.3-4.2,1.2-7.6,3.5-10.8c1.7-2.4,4.2-3.3,6.7-2.4c1.7,2.6,1.9,5.6,1.9,8.5c0.2,17.8,0,35.7,0.3,53.5
			c0,0.7,0,1.5,0,2.2c0.8,0.7,1.6,1,2.4,1c1.1,0,2-0.7,2.5-2.1c0.3-1.1,0.6-2.2,1.1-3.2c0.3-0.5,0.6-1,1.2-0.9s0.8,0.7,0.9,1.1
			c0.1,0.4,0.1,0.9,0.3,1.3c0,0,0,0,0,0.1c0.3,1.2,1.5,2,2.7,1.8c1.2,0,2.1-1,2.2-2.2c0.1-1.2,0.2-2.4,0.1-3.7
			c0-11.8,0.1-23.7,0-35.5c0.1-2.3,0.5-4.5,1.2-6.6c0.2-0.7,0.5-1.4,1.4-1.4c0.8,0,1.1,0.8,1.3,1.5c0.3,1.1,0.5,2.2,0.5,3.3
			c0,0.3,0.1,0.6,0.2,0.9c0.4,0.6,0.7,1.3,1,2c0.1,0.2,0.1,0.5,0.2,0.7c0,0,0,0,0,0.1c0.1,0.7,0.2,1.4,0.1,2.1c0,0.5,0,1-0.1,1.5
			v0.1c0,0.2,0,0.4,0,0.6c0,0.2,0,0.3,0,0.5c-0.3,7.3-0.5,14.7-0.4,22c0,1.2,0,2.4,0.2,3.6v0c0.1,1.2,1.2,2.1,2.3,2
			c0.1,0,0.2,0,0.3,0c1.1-0.1,1.9-1.1,1.8-2.2V85c-0.1-0.8,0-1.5,0.2-2.2c0.2-0.9,0.6-1.7,1.2-2.4c0.2-0.3,0.4-0.5,0.5-0.8
			c1.7-0.8,2.5-2,2.7-3.5c0.2-0.9,0.2-1.8,0.2-2.9c-0.1-5.5,0-11.1,0-16.7c0-2.6-0.2-5.3,0.2-7.8c0-0.4,0.1-0.8,0.2-1.3
			c0.5-1.2,0.9-2.4,1.3-3.6c0.2-0.5,0.2-1,0.2-1.5c0-0.1,0-0.2,0-0.2V42c0,0,0-0.1,0-0.2c0,0.1,0,0.2,0.1,0.3c0,0.1,0,0.1,0,0.2
			c0.1,0.2,0.1,0.5,0.3,0.7c1.4,1,3,1.8,4.6,2.5c1.5,0.5,2.6,1.9,2.7,3.6c0.3,2.5,0.5,5,0.6,7.5v34.4c0,1.3,0,2.6,0.1,3.9
			c0.1,1.6,0.8,2.6,2.5,2.8c1.7,0.2,3.3,0.7,4.2-1.4c0.9-1.9,2.1-3.6,3.3-5.3c0.8-1.1,1.7-1.9,3.3-1.5c1.8,0.5,2.5-0.6,2.7-2.2
			c0.1-1.1,0.1-2.3,0.1-3.4c-0.4-11.1,0.8-22.2,0.5-33.4v-0.8c0-2,0.9-3.4,3-3.6c2.1-0.3,2.7-1.6,2.7-3.5V31.5
			c0-1.1-0.2-2.3,0.4-3.3c0.7-1.1,0.9-2.2,0.9-3.4c0.1,2.1,0.8,2.6,3.2,2.6c1.6,0,2.9-0.3,3-2.1c0,0.5,0.3,0.9,1,1l0,0
			c0,0,0.1-0.1,0.1-0.1c0.5-0.6,0.3-1.3,0.4-2v1.6c0,0.2,0,0.4,0,0.6v0.1c0,0.1,0,0.1,0,0.2c0,0.1,0,0.2,0,0.2
			c0.5,17.5,0.1,35.1,0.2,52.7c0,1-0.1,2.1-0.3,3.1c-0.1,0.3-0.2,0.6-0.2,0.9c0.2,6.5,0.6,13,0.5,19.5c-0.1,7.6,0,15.1,0,22.7
			c0,2.8,0.7,3.3,3.6,2.5c1.1-1.7,0.4-3.7,0.6-5.5V85.5c-0.1-2,0-4,0.3-6c0-0.2,0-0.4,0.1-0.6c0.7-2.4,0.6-4.9,1.7-7.2
			c0.5-0.6,1.1-1,1.6-1.3c1.8-0.8,3.7,0,5.6,0.6c1.1,1.2,0.5,2.8,0.6,4.1c0.1,1.1-0.1,2.3,1.4,2.7c0.1,0,0.2,0,0.3,0
			c0.2,0,0.4,0,0.5-0.1c1.3-0.3,1.4-1.6,1.4-2.8c0.3-3.5,0.3-7.1,0-10.7c-0.3-3.2,2.3-4.4,3.7-6.5c0,0,0.1-0.1,0.1-0.1
			c0.3-0.3,0.8-0.2,1.1,0.1c1.3,2,3.9,3.1,3.7,6.2c-0.2,3.6-0.2,7.1,0,10.7c0,1-0.1,2.3,0.9,2.9c2.7,1.6,2.7,4,2.7,6.6
			c0.1,9.3-0.4,18.6,0.5,27.9c0.3,2.9,0.8,3.6,3.6,3.6c2.8,0,3.5-0.7,3.7-3.5c0.2-4.3-0.3-8.7,0.4-13c0-5.3-1.3-10.5-0.9-15.9
			c0.2-2.1,0.1-4.2-0.2-6.3c-0.1-0.5-0.1-1,0-1.5c0.1-0.7,0.5-1.3,0.9-1.9c2.9-2.3,2.4-5.5,2.5-8.6c0-0.4,0.1-0.9,0.2-1.3
			c0.5-1.9,1.9-2.5,3.6-2.4c0.1,0,0.2,0,0.3,0c1.4,0.1,2.4,1.4,2.2,2.7c0,1.8,0.6,3.6,0.6,5.4c-0.1,0.9,0.3,1.9,1,2.5
			c1.6,1.2,2.5,3,2.4,5c0.1,5.1,0.4,10.3-0.2,15.4c-0.1,0.9,0,1.8,0.3,2.6c0.5,0.6,0.7,1.2,0.8,1.9c0.1,0.8,0.1,1.5,0.2,2.3v0.1
			c0.1,4-0.8,7.9-0.5,11.9c0.3,3.4,0.7,4,4.1,4c3.4,0,4.3-0.6,4.2-3.8c-0.3-9.2,0.8-18.2,1.7-27.3c0-0.9,0.2-1.7,0.5-2.6
			c0.4-0.9,0.8-1.8,2-1.8c1.2,0,1.6,0.9,1.9,1.9c0.3,1.1,0.4,2.2,0.4,3.4c0.3,4.7,0.4,9.4,1.3,14c0.5,2.8,0.5,5.6,0,8.3
			c-0.2,1.5-0.3,3.1-0.2,4.7c0.1,1.3,0.4,2.5,2,2.6c1.6,0,1.9-1.3,2-2.5c0.9-10,1.4-20.1,2.2-30.2c0.5-6.6,0.7-13.2,1.5-19.8
			c0.5-3.9,1-7.9,1.2-11.8c0,1.2,0,2.5-0.1,3.7c-0.1,1.7,0.4,2.8,1.6,3.4v0c0.4,0.2,0.8,0.3,1.3,0.4c0.5,0,1-0.1,1.3-0.2
			c1-0.3,1.5-1,1.6-2c0.1,0.8,0.3,1.6,1,2.2c0.1,0.1,0.2,0.2,0.3,0.2c0.6,0.4,0.5,1,0.3,1.6c0,0,0,0,0,0c-0.4,1.5-0.3,3.1,0.3,4.6
			c0,0.2,0.1,0.3,0.1,0.5c0,0,0,0,0,0c0.5,1.9,0.5,3.8,0.6,5.8c0,0.9,0.1,1.9,0.1,2.8c0,0.6,0.1,1.1,0.1,1.7
			c0.1,0.6,0.1,1.1,0.2,1.7c0.3,3,0.5,6,0.7,9c0,0.1,0,0.3,0,0.4c0.1,2.6,0.7,5.1,0.5,7.7c0,0,0,0.1,0,0.1c-0.2,1.7-0.1,3.5,0.3,5.1
			c0,0.1,0.1,0.2,0.1,0.3c0.3,1,0.5,2.1,0.4,3.2c0,0.1,0,0.3,0,0.4c-0.1,0.9,0,1.8,0.2,2.7c0.2,0.8,0.5,1.5,0.9,2.2
			c0,0.1,0.1,0.2,0.2,0.3c0.8,0.7,2.1,0.7,2.9,0c1-0.8,2.1-1.3,3.2-1.7c1.6-0.3,2.2-1.3,2.3-2.6c0-0.3,0-0.5,0-0.8
			c0-3.4,0.1-6.8,0-10.2c-0.1-0.9,0-1.7,0.2-2.6c0,0,0,0,0-0.1c0-0.1,0.1-0.3,0.1-0.4c0.2-0.7,0.6-1.4,1-2.1
			c0.1-0.3,0.2-0.6,0.3-0.9c0.1-0.5,0.1-1,0-1.4c-0.1-7.8-0.1-15.6,0-23.4c0-2.8,0.5-5.5,1.5-8.1c0.9-1.3,2.5-1.5,3.8-2.1
			c2.6-1.1,4.6,0,4.5,2.8c-0.2,6.7,1.1,13.3,1.1,20c0.1,13.6,0,27.2,0.6,40.7c0,0.9,0.1,1.7,0.3,2.6c0.2,0.7,0.7,1.2,1.4,1.4
			c1,0.2,2-0.4,2.2-1.4c0.1-0.5,0.2-1,0.3-1.5c1.7-11.1,1.8-22.3,2.1-33.5c0-2.3-0.1-4.5,0-6.8c0.1-2.6,1.3-4.3,2.7-4.1
			c2.3,0.3,2.4,2.3,2.4,4c0,6.3,0.8,12.6,0.6,19c-0.2,4.5,0.4,9,0.7,13.5c0.2,4,0.8,8,1.5,11.9c0.2,1,0.7,1.9,1.8,1.8
			s1.4-0.9,1.6-1.8c0.5-1.9,0.6-3.9,0.9-5.9c0.9-4.9,0.9-9.9,1.2-14.8c0.1-2.8-0.5-5.7,0.1-8.5c-0.2-6.1,0.3-12.1,1.5-18.1
			c0.4-1,0.8-2,2.1-1.8c1,0.2,1.7,1,1.8,2c0.1,0.4,0.1,0.9,0.1,1.3c0.8,5.5,1.1,11,1,16.5c0,0.1,0.1,0.3,0.1,0.4
			c0.2,1,0.3,2.1,0.3,3.2c0,0.1,0,0.3,0,0.4c-0.6,7.3,0.4,14.5,1.3,21.7c0.2,1.3,0.7,2.5,2.2,2.4s1.8-1.3,1.8-2.5
			c0-3.8,0.7-7.4,0.7-11.2c-0.1-6.9,0.2-13.8-0.1-20.6c-0.5-9.7,1.4-19.3,1.2-28.9c0-1,0.2-1.9,0.6-2.8c0.5-1.3,1.9-2,3.2-1.6
			c1.7,0.6,3.6,0.9,4.9,2.3c0.4,0.6,0.9,1.1,1.2,1.8c0.2,0.4,0.4,0.9,0.4,1.4c0.1,7.9,0.2,15.8-0.3,23.7c-0.1,1.6-0.3,3.1-0.4,4.7
			c0,0.5,0,1,0.2,1.5c0.1,0.3,0.3,0.6,0.4,0.9c0.4,0.6,0.7,1.2,0.9,1.8c0.3,0.7,0.4,1.4,0.4,2.1c0,0.2,0,0.5,0,0.7
			c0,0.5,0,0.9,0,1.3V94c0,2.6,0.1,5.2,0,7.8c0,0.7,0,1.4,0.1,2c0.2,1.5,1,2.6,3.2,2.9c0.7,0.2,1.3,0.5,1.8,1c2.7,1.6,3.9,1,4.4-2.1
			c0.6-3.7,0.8-7.4,1-11.2c0.7-10.5,1.7-20.9,2.3-31.4c0-2.1,0.6-4.2,1.7-5.9c0-0.2,0-0.4,0-0.5c0-0.2,0-0.3,0-0.5
			c0.1-0.8,0.1-1.6,0.2-2.5c0,0.8,0.1,1.6,0.2,2.4c0,0.1,0,0.2,0,0.3c0,0.1,0,0.1,0,0.2c1.1,1.7,2.7,1.5,4.2,1
			c1.2-0.4,1.4-1.3,1.5-2.3c0.1,0.4,0.1,0.8,0.2,1.2c1.6,7.7,1.5,15.6,2.1,23.3c0.7,8.9,1.4,17.8,1.8,26.8c0.1,2.1,0.3,4.2,0.6,6.2
			c0,0.9,0.8,1.7,1.7,1.8c1,0.1,2-0.7,2.1-1.7c0.1-0.6,0.2-1.2,0.2-1.8c0.1-6.1-0.1-12.2,0.5-18.3c0.4-3.5,0.4-7.1,0.9-10.7
			c0.2-1.1,0.5-2.4,1.9-2.5c1.5,0,1.8,1.4,2.2,2.5c0.2,0.7,0.3,1.4,0.3,2.1c-0.1,1.5,0,3,0.2,4.4c1,5.2,1.5,10.5,1.4,15.8
			c0,2.6-0.1,5.2,0.1,7.8c-0.1,1.1,0.5,2.1,1.4,2.6c3.5,1.7,6.7-0.2,6.9-4v-1.6c-0.2-9.3,0.8-18.6,0.6-27.9c0-2.7-0.2-5.8,1.5-8.1
			c1.3-1.7,2.1-3.7,2.3-5.9c0.2-1.4,0.5-2.7,0.9-4.1c0.5-1.6,1.7-2.1,3.3-1.6c2.1,0.6,2.3,2.4,2.3,4.2c0,2.7,0,5.4,2.2,7.5
			c0.5,0.5,0.9,1.2,1.1,1.9c0.2,0.5,0.3,1.1,0.3,1.7c-0.2,7.5,0.2,14.9-0.3,22.4c0,0.1,0,0.3,0,0.4c-0.3,4.3-0.7,8.7-0.9,13.1
			c0.1,0.4,0.2,0.7,0.4,1c1,2.1,2.9,1.9,4.7,1.8s2.1-1.4,2.5-2.8c0.4-2,0.5-4,0.4-6c0.2-8.3-0.5-16.5,0.5-24.8
			c0.1-1.2-0.1-2.7,1-3.4c2.1-1.4,2.1-3.4,2.1-5.5c0-2.7,0.3-5.4-0.1-8.1c-0.5-3.5,2.2-5,3.7-7.3c0-0.1,0.1-0.2,0.2-0.2
			c0.4-0.3,0.9-0.2,1.2,0.2c1.3,2.2,3.9,3.6,3.6,6.9c-0.3,3.7-0.3,7.3,0,11c0,1,0.3,2,1.4,2.3c0.1,0,0.1,0.1,0.2,0.1
			c0.6,0.2,1.3-0.1,1.6-0.5c0.1-0.2,0.2-0.3,0.3-0.5c0,0,0,0,0-0.1c0.2-1.3-0.1-2.8,0.6-4c0.2-0.4,0.5-0.7,1-1
			c0.1-0.1,0.2-0.2,0.3-0.3c0.4-0.3,0.8-0.6,1.3-0.8c1-0.4,2.2-0.4,3.2,0c0.7,0.2,1.3,0.7,1.8,1.3c0.2,0.2,0.3,0.4,0.5,0.7
			c0.5,0.4,0.8,0.9,1,1.4c0.4,1,0.3,2.1,0.3,3.2c0,11.1,0.2,22.3-0.4,33.4c0.3,4.3,0,8.5,0.2,12.8c0.1,1.7-0.5,3.5,0.8,5.1
			c3,0.8,3.6,0.3,3.6-2.7V89.5c0-1.8,0-3.7,0.2-5.5c0.1-0.6,0.2-1.2,0.2-1.8c0.1-9.4,0-18.8,0-28.2c0-3.5-0.1-6.9-0.2-10.4
			c0-0.7-0.1-1.4-0.1-2.1c-0.2-3.9-0.8-7.9,0.2-11.8c0.1-0.6,0.3-1.3,0.6-1.9c0.1-0.1,0.2-0.3,0.2-0.4c0,0,0,0,0,0c0,0,0,0,0,0
			c0.1-0.2,0.2-0.5,0.3-0.7c0,0,0-0.1,0.1-0.2c0-0.1,0.1-0.3,0.1-0.4c0,0,0,0,0,0c0-0.1,0.1-0.2,0.1-0.3c0.1-0.4,0.1-0.9,0.2-1.3
			c0,0.4,0,0.8,0.1,1.2c0,0.2,0,0.3,0,0.5c0,0,0,0,0.1,0.1c1.3,1.7,3.2,1.2,4.9,0.8c0.8-0.2,1-0.7,1.2-1.2c0,0.3,0.1,0.5,0.3,0.8
			c1.6,2.2,1,4.7,1.1,7.1c0.1,3.2,0,6.4,0.1,9.7c0.1,1.5,0.6,2.6,2.3,3c3,0.7,3.4,1.3,3.4,4.3c0.1,10.9,0.9,21.7,0.5,32.6
			c0,1.6,0.1,3.3,0.3,4.9c0.1,1.1,0.8,2,1.9,1.7c2.5-0.8,3.5,0.8,4.5,2.4c1,1.4,1.9,2.9,2.7,4.5c0.7,1.7,2,1.9,3.7,1.6
			c1.7-0.3,2.9-0.9,3-2.9c0.1-1.4,0.1-2.8,0.1-4.2c0-13.6-0.2-27.1,0.5-40.7c0-0.7,0.1-1.4,0.2-2.1c0.5-1.9,5.4-4.5,7.5-4.1
			c0.2,0.2,0.3,0.5,0.4,0.7c0.5,0.5,0.8,1.1,1,1.7c0.3,0.9,0.3,1.9,0.3,2.9v25.6c0,0.3,0,0.7,0,1c0,1,0.2,1.9,1.4,2.3
			c2.3,1,2.8,2.9,2.8,5.1v12.5c0,4.5-0.2,9,0.1,13.6c0.1,1.6,0.9,2.6,2.6,2.6c0.1,0,0.2,0,0.3,0c1.3-0.1,2.2-1.3,2-2.6
			c0.1-6.2,0.3-12.3-0.1-18.5c0-0.8-0.1-1.6-0.2-2.5c0,0,0,0,0,0c-0.2-2.4-0.5-4.9,0-7.2c0,0,0,0,0,0c0.1-0.5,0.2-0.9,0.3-1.4
			c0.2-0.7,0.5-1.5,0.9-2.2c0.1-0.5,0.2-0.9,0.2-1.4c0.2-1.2,0.4-2.4,0.7-3.6c0.2-0.7,0.3-1.7,1.3-1.7c0.9,0,1.2,0.9,1.5,1.7
			c0.7,2,1,4.1,0.9,6.2v36c0,1.2,0,2.4,0.2,3.6c0.1,1.2,1.1,2.1,2.3,2c1.2,0.1,2.3-0.7,2.5-1.8c0.3-0.9-0.1-2.5,1.4-2.4
			c1.3,0.1,1.4,1.6,1.8,2.6c0.2,0.4,0.2,0.9,0.3,1.3c0.5,1.4,1.5,2.1,2.5,2.1c0.8,0,1.7-0.4,2.5-1.2c0-0.7,0-1.3,0-2
			c0.4-14.7-0.6-29.4,1-44c-0.7-4.7-0.3-9.4-0.3-14.1c0-1.6-0.3-3.6,1.4-4.4c1.8-0.8,3.4,0.3,4.9,1.1c0.8,0.5,1.5,1.1,2,1.9
			c2.3,3.2,3.9,6.6,3.5,10.8c-0.3,3.3,0.5,3.5,3.8,2.7c5.7-1.4,8.1,0.6,8.1,5.5c0,2.8,1.2,5.4,1.3,8.2c0.1,1,0.9,1.8,1.9,1.8
			c1.5,0.2,3,0.4,4.4-0.4c1.7-1,2.2-0.1,2.3,1.3c0.1,1,0.1,1.9,0.1,2.9c0,6.9-0.3,13.7,0.6,20.6c0.2,1.3,0.1,2.9,1.7,3.2
			c2.1,0.4,4.3,0.9,6.3-0.6c0.3-0.8,0.4-1.6,0.4-2.4v0c0-0.1,0-0.3,0-0.4V99.9c0-0.8-0.2-1.6,0.2-2.4c0.1-0.2,0.3-0.4,0.5-0.6
			c0.3-0.2,0.7-0.3,1.1-0.3c3.2-0.1,4-0.9,3.8-3.8c0-0.6-0.3-1.2-0.3-1.8c-0.1-2.6-0.9-5.4,0.3-7.7c1.4-2.8,2.7-5.7,4.2-9.2
			c1,2.5,2.2,4.3,3,6.3c0.6,1.5,2.5,2.2,2.4,4.2c-0.2,3,0.5,5.9,0.5,8.8c-0.2,8.9,0.8,17.7,0.6,26.6c-0.1,1.5,0.2,3,0.6,4.4
			c0.2,0.7,0.6,1.3,1.4,1.4c0.1,0,0.2,0,0.2,0c0.8,0,1.2-0.5,1.4-1.3c0.1-14.9,0-29.9,0-44.9c0-4.5,0.9-8.8,1.3-13.2
			c0.6-1.7,2-2.8,3.1-4.1c1.6-1.9,4.3-1.4,5.7,0.8c0.3,0.4,0.5,1,0.9,1.2c3.1,1.2,3.1,3.8,3.1,6.5c0,17.8-0.1,35.7,0,53.5
			c0,1.1-0.3,2.4,0.3,3.5c0.1,0.2,0.2,0.3,0.3,0.5c0.1,0.1,0.1,0.1,0.2,0.2c0.2,0.1,0.3,0.3,0.6,0.3c2.7,0.2,5.3,0.6,8-0.3
			c0.8-0.8,0.5-1.8,0.6-2.8c-0.1-1.2-0.1-2.3,0-3.5c0.1-1.7,0.2-3.4,0.5-5c0-0.7,0-1.4,0.1-2c0-1.2,0-2.3,0-3.5c0-1.4,0-2.8,0.1-4.3
			c0.1-1.8,0.2-3.7,0.5-5.6c-0.2-1.5-0.2-3.1,0-4.6c0-0.1,0.1-0.3,0.1-0.4c0,0,0,0,0,0c0.6-2,2.3-2.3,3.9-0.8
			c0.2,0.2,0.3,0.4,0.5,0.6c0.4,0.3,0.7,0.8,0.8,1.2c0.3,0.7,0.3,1.6,0.3,2.4v12.2c0,0.7,0,1.5,0.5,1.9c0.2,0.2,0.6,0.3,1,0.4
			c1.4,0,1.6-1.1,1.6-2.2c0,0,0,0,0,0c-0.1-0.6,0-1.3,0.2-1.9c0,0,0,0,0,0c0.2-0.7,0.6-1.4,1.2-1.9l0.5-0.7c0.5-0.7,1.2-1.1,2-1.2
			c0,0,0,0,0,0c0.5-0.1,1-0.1,1.5-0.1c0.2,0,0.3,0,0.5,0h0c2.1-0.1,2.5-0.3,2.5-2.1c0-0.3,0-0.7,0-1.1V83.6c0-0.2,0-0.4,0-0.6
			c0,0,0,0,0,0c0-0.4,0-0.8,0-1.2c0,0,0,0,0,0c0-0.4,0.1-0.7,0.3-1.1c0.1-0.1,0.1-0.2,0.2-0.3c0.2-0.1,0.3-0.2,0.5-0.3
			c0.8-0.2,1.1,0.4,1.4,0.8c4.4,6.2,9,12.3,13.2,18.6c0.7,1,1.1,2.2,1.1,3.4c0,4.1,1.2,8.2,1,12.4c-0.3,4.2-0.2,8.3,0.2,12.5
			c0,0,0,0.1,0.1,0.1c0,0,0,0,0,0c0,0.1,0.1,0.1,0.1,0.2c0.1,0.1,0.3,0.2,0.4,0.3c0,0,0.1,0,0.2,0c0.1,0,0.3,0,0.4,0
			c0.2,0,0.3,0,0.5-0.1c0.5-0.2,0.9-0.6,1-1.2c0.2-0.5,0.1-1.2,0.8-1.2c2.8,0,2.6-2.1,2.6-3.9c0.2-5.8,1.2-11.6,1.2-17.4
			c0-2.1,0.2-4.3,0.4-6.5c-0.3,3.3,0.6,6.6,0.5,9.9c-0.2,5.2,1.1,10.4,1.1,15.6c0,1,0.2,2,1.5,2.2c1.3,0.2,1.9-0.8,2.2-1.8
			c0.5-1.5,0.7-3.1,0.9-4.6l0,0c0-0.4,0-0.9,0.1-1.3v-41c0-0.1,0-0.3,0-0.4c0-0.7-0.1-1.4,0-2.1c0-0.3,0.1-0.6,0.3-0.9v0
			c0.1-0.1,0.1-0.3,0.2-0.4c0.2-0.1,0.3-0.1,0.4-0.2c0.7,0.8,0.4,1.8,0.4,2.7c0.1,1.2,0.3,2,1.6,2.2c1.3,0.2,1.9-0.7,2.1-1.8
			c0.2-0.9,0.2-1.8,0.2-2.7c0.2-3,0.2-5.9-0.1-8.9c-0.4-3.3,2.3-4.6,3.7-6.8c0,0,0.1-0.1,0.1-0.1c0.3-0.3,0.8-0.2,1,0.1
			c1.3,2.1,4.1,3.2,3.8,6.4c-0.2,3.5-0.2,7,0,10.4c0,1-0.1,2.3,0.9,2.9c2.7,1.6,2.7,4,2.7,6.6c0.1,9.3-0.4,18.6,0.5,27.9
			c0.3,3,0.9,3.7,3.9,3.6c2.5-0.1,3.2-0.7,3.3-3.3c0.3-4.4-0.3-8.9,0.4-13.3c0.4-4.2-1.2-8.2-0.9-12.4c0.3-3.3,0.2-6.6-0.2-9.9
			c0-0.1,0-0.1,0-0.2c0-0.2,0-0.4,0-0.7v0c0.1-0.8,0.4-1.6,1-2.3c1-1.8,3-3.2,2.5-5.7c-0.2-1.3-0.1-2.6,0.1-3.9
			c0.2-1.6,1.6-2.9,3.3-2.8c0.2,0,0.4,0,0.5,0c1.5,0.2,2.5,1.5,2.4,3c0,1.8,0.6,3.6,0.6,5.4c-0.1,1,0.4,1.9,1.2,2.5
			c1.6,1.2,2.4,3,2.3,5c0.1,5.1,0.4,10.2-0.2,15.3c-0.1,0.7,0,1.5,0.3,2.2c0.3,0.5,0.5,1,0.7,1.5c0.1,0.2,0.2,0.5,0.2,0.7
			c0,0,0,0,0,0v0c0.3,1.3,0.3,2.7,0.2,4c-0.1,0.9-0.2,1.7-0.3,2.5c-0.3,2.9-0.3,5.9-0.1,8.8c-0.1,1,0.4,1.9,1.2,2.4
			c3.4,1.8,6.8-0.1,6.9-3.8c0.2-5.4-0.2-11,0.5-16.4c0.6-4,1-8.1,1.4-12.2c0.2-1.2,0.6-2.6,2.2-2.6c1.5,0,1.8,1.4,2.1,2.6
			c0.1,1,0.2,1.9,0.2,2.9c0.4,3.9,0.2,7.8,0.9,11.7c0.7,3.5,0.8,7.1,0.3,10.7c-0.2,1.5-0.2,3-0.1,4.4c0.1,1.2,0.4,2.4,1.9,2.4
			c1.6,0.1,2-1.2,2.1-2.5c0.8-7.2,1.1-14.4,1.6-21.6c0.6-8.9,1.3-17.9,1.8-26.8c0.1-2.2,0.1-4.6,1.3-6.6c0.1-4.2-1.2-8.4,0.1-11.9
			c-0.1,1.1,0.6,2.7,0.6,4.5s0,3.6,0,5.5c0,0.8-0.1,1.6,0.7,2.1c3.7,1,4.5,0.3,4.5-3.3V43.2c0,3.8,0.2,8.8,0,13.7
			c0.3,1.2,0.6,2.3,1,3.5c0,0,0,0,0,0c0.4,1.6,0.8,3.1,1.1,4.7c0.2,1.2,0.4,2.3,0.4,3.5c0,0.4,0,0.7,0,1.1c0,2.1-0.3,4.4,0.2,6.4
			c0.1,0.5,0.2,0.9,0.3,1.4c0.2,1.3,0.4,2.7,0.5,4c0.2,2.6,0.2,5.2,0.5,7.7c0.3,2.5-0.6,5,0.2,7.2c1.2,3.6,0.4,7.5,1.6,11.1
			c0,0.2,0.1,0.4,0.2,0.6c0.5,3.9,0.6,7.7,0.5,11.6c0,1.5-0.1,3.1-0.1,4.6c0,0.5,0,1,0,1.5c-0.1,2.8-1.2,3.6-3.9,4
			c-2,0.1-4,0.2-6,0.1H2.7c-0.3,0-0.5,0-0.8,0c-0.4,0-0.8,0.2-1.1,0.3c-0.2,0.1-0.5,0.3-0.7,0.4H738c0.9,0,1.8,0,2.6,0
			c1,0.1,1.7,0,2.1-0.4c0.1-0.1,0.1-0.1,0.2-0.2c0,0,0,0,0,0c0.3-0.4,0.4-1,0.4-1.9c-0.1-6,0-12,0-18
			C743.5,109.2,743.3,108.4,742.9,107.7z M167.3,38.8c0.1,0.5,0.2,1,0.2,1.6C167.4,39.8,167.2,39.3,167.3,38.8z M200,13.9
			c-0.1,0.7-0.2,1.4-0.3,2.2C199.7,15.3,199.8,14.6,200,13.9z M289.5,43.1v9.6C289.4,49.5,289.5,46.3,289.5,43.1z M377.6,46.8
			c0-1,0.1-2,0.1-3.1C377.7,44.7,377.6,45.8,377.6,46.8z M383.3,47c0-0.7,0-1.4,0-2C383.4,45.6,383.4,46.3,383.3,47z M460.9,19v-3.9
			c0,0.7,0,1.3,0,2C461,17.7,461,18.3,460.9,19c0,0.9,0,1.7,0,2.6C460.9,20.7,460.8,19.8,460.9,19z"/>
		<path class="st1" d="M743.1,129.2c0,0.3,0,0.6-0.2,0.8c0,0,0,0,0,0c-0.2,0.3-0.6,0.4-1.1,0.4H3.8c-0.6,0-1.2-0.1-1.8,0
			c-0.5,0-0.9,0-1.2-0.2c-0.4-0.3-0.5-0.7-0.5-1.4c0-1.4,0.3-3-0.2-4.3c0,0,0,0,0,0v-3.2c0.9-0.1,1.7,0,1.6,1.3
			c0,0.8,0.2,1.6,0.4,2.4c0,0,0,0,0,0c0,0.2,0,0.4,0.1,0.6c0.4,2.2,1.6,2.8,4.6,2.8c2.4-0.1,3.1-0.5,3.3-2.5c0-0.3,0-0.5,0-0.9
			c0-1.4,0.3-2.8,1-4c0.9,2.2,1.3,4.5,1,6.9c0.2,0,0.3,0.1,0.5,0.1c0.3,0.1,0.6,0.1,0.8,0.2c1.2,0.2,2.5,0.3,3.7,0.1
			c8.6,0.1,17.3,0,25.9,0c3.7,0,3.9-0.3,4.6-4c0.6-2.8,1.5-5.7,0.7-8.5c-0.9-2.8-1-5.8-0.5-8.6c0.2-1,0.1-1.9-0.4-2.8
			c-0.9-1.6-1.1-3.5-0.5-5.3c0.2-0.7,0.3-1.8-0.7-1.9C45.2,97,45,98.2,45,99c0,4.3-0.6,8.5,0.4,12.7c0.2,0.9,0.4,1.8-0.3,2.4
			c-0.6,0.6-1.5,1.3-2,0.1c-0.1-0.1-0.1-0.3-0.2-0.5v0l0.1-1.1c0-0.6-0.1-1.1-0.1-1.7c0-0.1,0-0.2,0-0.3c0,0,0-0.1,0-0.1
			c-0.3-5.3-0.3-10.7,0.1-16.1c0-0.1,0-0.3,0-0.4c0,0,0,0,0,0c0.2-0.1,0.3-0.2,0.4-0.2c0.2,0,0.4,0,0.6,0c0,0,0,0,0,0
			c5.1-0.5,5.2-0.3,5.5,5.2v0.1c0,0.3,0.1,0.5,0.2,0.7c0.2,0.9,0.2,1.9,0,2.9c0.1,0.2,0.1,0.4,0.1,0.5c0.4,2.3-0.1,4.6,0.2,6.8
			c0,0.2,0.1,0.5,0.1,0.7c0.3,1.5,0.3,3,0.1,4.4c0,0.2,0.1,0.3,0.1,0.5c0.4,2.3-0.1,4.6,0.2,6.9c0,0.2,0.1,0.5,0.1,0.7
			c0.3,1.3,0.3,2.6,0.1,3.9c0.1,0.5,0.4,1,1,1c0.2,0,0.4,0,0.5,0c1.6,0,3.3,0.2,4.9,0c0.5-0.1,1-0.1,1.5-0.3h0c0,0,0,0,0,0
			c0.3,0,0.5-0.1,0.8-0.1c1.9-0.2,3.8,0.5,5.7,0.5c3.6,0,7.1,0,10.7,0c21.3,0,42.6,0,63.9,0c20,0,39.9,0,59.9,0c0.8,0,1.6,0,2.4-0.1
			c2.5-0.3,3.6-1.3,3.8-3.8c0.2-2,0.1-4,0.1-6V99.7c0.2-3.6-0.1-7.2-0.8-10.7c-0.5-2-0.5-4,0-6c0.9-3.3,0.8-6.7,0.8-10.1
			C206,58,206.2,43.1,206,28.2c0-1,0-1.8,1.2-1.9c0.1,0,0.2,0,0.3,0h0c0,0,0,0,0.1,0c0.3,0.1,0.5,0.3,0.6,0.5
			c0.3,0.4,0.2,0.9,0.2,1.4c0,0.3-0.1,0.6-0.1,0.9c0,16.8,0,33.7,0,50.6c-0.1,0.9-0.1,1.9,0.2,2.8c0,0,0,0,0,0v0.5
			c-0.1,0.3-0.2,0.7-0.2,1c0,0.2,0,0.3,0,0.5V126c0,2.1,0.2,2.6,1.8,2.1c0.3-0.1,0.6-0.2,1-0.3v-5c0,0,0-0.1,0-0.1
			c0.3-0.9,0.3-1.8,0.2-2.7V81c-0.1-0.6,0-1.2,0-1.8c0.1-0.3,0.2-0.7,0.3-1c0-2.7-0.8-5.5,0.5-8.1c0.2,0,0.3,0,0.5-0.1
			c2.9-0.3,5.8-0.3,8.7,0c0.2,0,0.3,0,0.5,0.1c1.4,0.7,1,2,1.1,3.1c0.1,1.4-0.3,2.9,0.4,4.2c0,0,0.1,0,0.1,0.1
			c0.2,0.1,0.5,0.2,0.7,0.4c0.1,0.1,0.2,0.3,0.2,0.5c-0.1,0.5-0.5,1-1.1,1c-1.6,0.2-2.4-0.7-3-2c-0.2-0.7-0.4-1.3-0.4-2
			c-0.3-1.8-1.2-3.1-3.2-3.1c-1.8,0-2.8,1.2-3,3.6c-0.1,0.6,0,1.2,0,1.8v41.5c0,2,0.2,4,0.5,6c0.1,1.8,1.7,3.3,3.5,3.2
			c1,0.1,2.1,0.1,3.1,0.1h227.7c3-0.2,4.1-1.1,3.9-4c-0.5-13.5,1.7-26.9,1.1-40.4c-0.1-2.7,0-5.4-0.1-8.1c-0.1-1.5-0.5-3-2.1-3.5
			c-2.1-0.7-4.6,0.4-4.4,3.2c0.2,0.9-0.3,1.8-1.2,2.1c-0.5,0.1-0.7,0-0.9-0.2c-0.2-0.3-0.3-0.7-0.5-1v-0.1c0-1.5-0.1-3-0.1-4.5
			c0-0.8-0.1-1.6,1-1.7c0.6-0.1,1.2-0.1,1.8-0.2c2.1-0.2,4.1-0.2,6.2,0c0.6,0,1.2,0.1,1.8,0.2c0.2,0,0.3,0,0.4,0.2c0,0,0,0.1,0,0.1
			c0.2,0.4,0.2,0.9,0.3,1.3v0c0,0.3,0,0.5,0,0.8c0,0.2,0,0.4-0.1,0.6v34.4c-0.1,0.7-0.1,1.4,0,2.1c0.1,0.3,0.1,0.5,0.2,0.8
			c0.1,5.8,0.4,11.6,0,17.5c1.2,0.5,1.9,0.7,2.3,0.5c0,0,0,0,0,0c0.5-0.2,0.6-0.9,0.6-2.1V84.9c-0.1-1,0-2,0.3-2.9
			c-0.1-18-0.2-36-0.3-54.1c0-0.4,0.1-0.8,0.3-1.2c0,0,0,0,0,0c0.2-0.1,0.3-0.2,0.5-0.2c0.4-0.1,0.9-0.1,1.4,0.1
			c0.1,0,0.2,0.1,0.3,0.2c0,0,0,0,0,0c0.1,0,0.1,0.1,0.2,0.1c0.1,2.7-0.5,5.3-0.5,8c0.1,11.8,0,23.5,0.1,35.2
			c0.2,17.1-0.2,34.2,0,51.3c0,1.1,0,2.3,0.1,3.4c0.1,1.9,1.6,3.5,3.6,3.5c1,0.1,2.1,0.1,3.1,0.1c19.8,0,39.6,0,59.4,0
			c21.4,0,42.9,0,64.3,0c3.1,0,6.2,0,9.3,0c2.2,0,4.4-0.6,6.6-0.8c0.3,0,0.5,0,0.8,0h0.1c0.1,0.1,0.1,0.2,0.1,0.3c0,0,0,0,0.1,0
			c2.5,0.8,5.1,0.7,7.6,0c0.1,0,0.1,0,0.2-0.1v-2.4c0-0.1,0-0.1,0-0.2c0.5-2.5-0.1-5.1,0.3-7.7c0-0.2,0-0.3,0.1-0.5
			c0-0.1,0-0.1,0-0.2c-0.2-5.3,0-10.7,0.6-16c0,0,0-0.1,0-0.1c0.5-1.7,0.2-3.5,0.2-5.3v-0.1c0-0.8,0.1-1.4,0.8-1.6
			c0.2,0,0.4-0.1,0.6,0c1.2,0.1,2.3-0.1,3.5,0c0.5,0,1.1,0.1,1.7,0.3c0,0.1,0,0.1,0,0.2c0.2,2.8,0.3,5.2,0.3,7.6
			c0,3.9-0.1,7.8,0,11.7c0,0.2,0,0.3,0,0.5c0,0.2-0.1,0.3-0.3,0.4c-0.4,0.1-0.9-0.1-1.1-0.5c-0.5-0.8-0.6-1.8-0.5-2.8
			c-0.1-3.7,0-7.5-0.1-11.2c0-1.1,0.1-2.8-1.3-2.7c-1.7,0.2-1.2,1.9-0.8,3c0.5,1.3,0.4,2.8-0.3,4c-0.5,0.7-0.7,1.5-0.6,2.3
			c1.3,5.3-1.3,10.4-0.7,15.6c0,1,0.2,2.1,0.4,3.1c0.3,1.7,1.8,3,3.5,3c9.4,0.1,18.9,0.2,28.3,0c0.9,0,1.7-0.5,2.6-0.5
			c0.1,0,0.1,0,0.2,0c0,0,0,0,0.1,0c0,0,0,0,0,0c0.2,0,0.4,0.1,0.6,0.3v0l0,0l0,0c0.1,0.1,0.2,0.2,0.4,0.3c0,0,0,0,0,0
			c0.2,0.1,0.4,0.1,0.6,0c0.2,0,0.5,0,0.7,0c26.7,0.1,53.5,0,80.2,0c4.5,0,5.4-1,5.5-5.6c0.1-6.2-0.2-12.3-0.9-18.4
			c-0.6-6.7-1.1-13.3-1.5-20c-0.1-1.8-1.4-3.3-1.1-5c0.4-2.3,0.4-4.7,0.1-7c-0.1-1.6-0.3-3.3-0.8-4.8c-0.2-0.4-0.3-0.8-0.2-1.3
			c0.6-1.9,0.8-3.8,0.6-5.8c0,0,0,0,0,0c-0.1-0.9-0.3-1.8-0.6-2.7c-0.1-0.5,0.1-1.1,0.6-1.3c0,0,0,0,0,0c1.9,0.4,2.4,1.7,2.3,3.4
			c-0.3,4.3,0.7,8.6,0.8,12.8c0.1,3.3,0.8,6.5,0.7,9.8c-0.1,3.3,0.6,6.8,0.9,10.3c0.3,3.1,0,6.2,0.5,9.3c0.3,1.8,0.2,3.7,0.5,5.6
			v0.1C743.4,114.8,743,122,743.1,129.2z"/>
		<path class="st2" d="M743.3,110.1c0,6-0.1,12,0,18c0,0.9-0.1,1.5-0.4,1.9c0,0,0,0,0,0c-0.1,0.1-0.1,0.1-0.2,0.2
			c-0.4,0.4-1.1,0.6-2.1,0.4c-0.9,0-1.8,0-2.6,0H0v-6.2c0,0,0,0,0,0c0.2,0.5,0.3,0.9,0.5,1.4c0.3,2.6,0.4,3.6,1.4,4
			c0.6,0.3,1.6,0.3,3.3,0.3h734.5c2.2,0.2,3.1-0.7,3.1-3c-0.1-6.5,0-13.1,0-19.6c0,0,0,0.1,0,0.1
			C743.3,108.4,743.5,109.2,743.3,110.1z"/>
		<path class="st2" d="M453.6,123.1c-0.3-15.5,1.8-30.9,1.1-46.4v-2.1c0-0.2,0-0.5,0-0.7c0-3.1-0.2-3.3-3.3-3.3c-0.3,0-0.5,0-0.8,0
			c-1,0-1.8,0-2.4,0c-1.9,0.1-2.5,0.5-2.6,2.2c-0.1,0.7,0,1.7,0,3c0,1-0.2,1.2-0.6,1.1c-0.2-0.1-0.4-0.3-0.7-0.5v0
			c-0.2,0.5-0.2,1.3-0.9,1c-0.7-0.3-0.5-1-0.5-1.6c-0.1-5.2,0-10.5-0.1-15.7c0-0.8,0-1.6-0.8-2.1c-1.1-0.6-1,0.9-1.9,1.1
			c-0.1-1.8,0.7-4-2.4-4.2c-3.4-0.2-2.3,2.4-2.8,4.1c-1,0-0.9-1.5-1.9-1.2c-1,0.3-0.8,1.3-0.9,2c-0.1,0.8-0.1,1.6-0.1,2.3
			c0,4.3-0.1,8.5-0.2,12.8c0,0.8,0.3,2.2-0.9,2.1c-2.7-0.1-2.4,1.7-2.4,3.3c-0.2,10.6-0.4,21.2-0.6,31.9c0,1,0.3,2.4-1.3,2.4
			c-1.3,0-3.1,1-3.6-1.3c-0.1-0.1-0.1-0.2-0.2-0.3c-0.3-0.7-0.1-1.5-0.1-2.2c-0.1-9.6,0.4-19.1,0.3-28.7c-0.1-3-0.1-6,0-9.1
			c0-0.4,0-0.8,0.1-1.1c-0.1,0-0.1,0-0.2,0c-0.2,0-0.3,0-0.5-0.1c0,0,0,0,0,0c-2-0.3-2.3-1.8-2.2-3.9c0.1-2.3,0.3-4.7-0.9-6.8
			c-0.3-0.5,0.1-1.3-0.7-1.5c-1.1-0.4-0.9,1.1-1.7,1.3c-0.5-0.6-0.3-1.7-1.2-1.9c-0.9-0.2-0.7,3-2.5,0.7c-0.6-0.7-1.2,0.4-1.3,1.3
			c-0.3,2.8-0.6,5.7-1,8.5c-0.1,0.7,0.1,1.9-0.9,1.9c-1.9,0-1.8,1.2-2.1,2.5c-0.8,3.7-0.7,7.4-0.8,11.2c-0.3,9-0.5,18.2-0.7,27.2
			c0,1.9-0.8,2.5-2.5,2.3c-1.3-0.2-3.1,0.6-3-1.8c0.2-8.6-0.7-17.1-1.5-25.7c-0.4-4.2-1.3-7.9-4.3-11.3c-0.4,2.4-2.9,3.6-3.1,6
			c-0.5,7.2-1.1,14.3-1.5,21.5c-0.2,2.9,0,5.8,0,8.6c0,0.8,0.4,1.8-0.6,2.4c-1.1-0.7-0.7-1.8-0.8-2.8c-1-13.8-2-27.6-2.8-41.4
			c-0.6-9.4-2.6-18.7-1.9-28.2c0-0.8,0.2-1.9-1.1-2c-1.6-0.1-1.3,1.1-1.3,2v12c0,3.4-0.4,3.6-3.9,2.5c0,0-0.1,0-0.1,0h0
			c-0.1,0-0.3,0-0.4,0c-0.1,0-0.3,0-0.4,0.1c-0.3,0.1-0.5,0.2-0.8,0.4c0,0,0,0,0,0c-1.4,0.2-1.9,0.9-2,2.4c-0.4,6.7-1,13.3-1.5,20
			c-0.7,9-1.4,18-2.1,27c0,0.6,0.1,1.5-0.6,1.8c-0.8,0.3-0.9-0.6-1.4-0.9c-1.2-0.8-2.5-2-3.9-1.9c-1.6,0.2-1.5-0.7-1.5-1.7
			c0-3.7,0.1-7.5,0-11.2c-0.1-1.9,0.6-3.8-0.4-5.6c-0.1,0.1-0.1,0.2-0.1,0.3c-0.3,0.9-0.1,1.8-0.1,2.7v0.9c0-1.3-0.1-2.7-0.3-4
			c0,0,0,0,0-0.1l-0.4-0.6c-0.1-0.1-0.1-0.1-0.1-0.2c-0.5-0.7-0.2-1.5-0.2-2.3c0.2-4.7,0.3-9.3,0.3-14c0-5.5-0.1-11,0.1-16.4
			c0-0.3,0-0.6,0-1c-1.3-0.9-3.4,0.1-4.2-0.9c-1.8-2.3-4-1.1-6-1.4c-1.2-0.2-1.7,0.6-1.7,1.7c-0.2,6.9-0.7,13.8-1,20.6
			c-0.7,14.7-0.5,29.5-0.7,44.3c0,0.8,0.4,2.1-0.7,2.1s-0.9-1.3-1-2.1c-0.5-3.9-1.1-7.7-1.2-11.7c-0.1-4.6-0.5-9.2-0.8-13.8
			c0,0-0.1,0.1-0.1,0.1c-0.3,0.3-0.2,0.7-0.2,1.1c0.2-5.5-0.2-11,0.1-16.6c0-0.7,0.1-1.5,0.1-2.2c0.6-1.3-0.9-1.7-1.2-2.6
			c-0.8-2-2.7-0.8-4.1-1s-1.2,1.2-1.5,2c-0.1,0.1-0.1,0.1-0.2,0.2c-0.7,0.9-0.6,1.9-0.6,3v17.1c0-0.1,0-0.1,0-0.2
			c0-0.3-0.2-0.6-0.3-0.8c0,0.3-0.1,0.6-0.1,0.8c-0.1,0.6-0.2,1.3-0.2,2c-0.2,8.4-0.8,16.9-2,25.2c0,0.9-0.2,1.8-0.6,2.6
			c-0.6-0.2-0.6-0.6-0.6-0.9c-1.5-11-2.2-22.2-2.3-33.3c-0.1-4.6-0.1-9-0.2-13.6c-0.1-2.8-1.3-4.1-4-4.1c-2.7,0-4.1,1.5-4.1,4.5
			c0,14.2-0.1,28.4-2,42.5c-0.1,0.7,0.2,1.9-0.9,1.8c-1.1,0-0.7-1.2-0.7-1.9c-0.3-20.6-0.3-41.1-1.6-61.7c-0.1-1-0.1-2.1,0-3.1
			c0.1-1.7-0.7-2.1-2.3-2.3c-3.6-0.4-6.3,2.1-9.6,2.4h0c0.3,0.6,0.4,1.3,0.3,2v30.5c0,0.3,0,0.7,0,1c0,0.2-0.1,0.3-0.3,0.5l-0.5,0.6
			c0,0.5-0.1,1-0.1,1.5c-0.1,0.7-0.1,1.5-0.1,2.2c0-1.2-0.1-2.4-0.3-3.6c0,0-0.1,0.1-0.1,0.1c-0.5,0.7-0.3,1.6-0.3,2.4v11.8
			c0,2,0.8,4.5-2.8,4.6c-1.2,0.2-2.3,0.9-3,2c-0.5,0.6-1,0.6-1.6,0.4c-0.1,0-0.1,0-0.2,0c-0.3-0.1-0.6-0.3-0.6-0.5
			c0.3-2.5-1.2-4.9-0.7-7.3c0.8-3.8-0.5-7.5-0.6-11.2c-0.1-3-0.1-6.2-1.2-9.2c-0.2-0.8-0.2-1.6,0.2-2.4c0.3-0.9,0.4-1.9,0.2-2.8
			c-0.7-3.8-1.4-7.5-1-11.4c0.1-0.8,0.1-1.6,0-2.4c-0.1-1.7-0.6-2.6-1.8-2.9c-0.5-0.1-1.1-0.2-1.8-0.1c-0.3,0.1-0.5,0-0.8,0
			c-0.5-0.1-0.9-0.5-1.1-0.9c-0.1,0-0.2,0-0.3,0c-1.3-0.1-1.4-1-1.4-2.2c0-4.4,0-8.7,0-13.1c0-0.9,0.1-1.9-1.2-1.9
			c-1.3,0-1.3,1-1.3,1.8c-0.3,6.1-0.4,12.2-1,18.3c-1.7,17.3-2.6,34.7-3.8,52.1c0,0.8,0.3,1.8-0.8,2.2c-0.4-0.2-0.7-0.7-0.6-1.2
			c-0.1-6.4,0.5-12.7-0.6-19c-0.7-4-0.5-8.1-0.9-12.2c-0.2-2.1-1.8-3.5-3.1-5c-0.3-0.3-0.7-0.5-1.1,0.1c-1,1.8-2.9,3.3-2.9,5.5
			c-0.2,7.7-2,15.3-1.8,23.1c0.1,2.3,0,4.7,0,7c0,0.7,0.1,1.4-0.7,1.8c-0.5,0.3-1.1,0.5-1.7,0.5c-1.7-0.1-3.1-1.5-3-3.2
			c-0.3-5.6,0-11.1-0.6-16.7c0,0.1,0,0.1-0.1,0.2c-0.2,0.7-0.3,1.4-0.3,2.2c0-1.5,0-3,0.3-4.5c0-0.1,0-0.3,0-0.4
			c-0.1-5.3,0.1-10.6-0.4-15.9c-0.2-1.8,0.9-5-2.9-5.3c-0.7-0.1-0.5-1.2-0.6-1.9c-0.3-2.8-0.7-5.7-1-8.5c-0.1-0.7-0.5-1.8-1.1-1.2
			c-1.6,1.7-1.9-0.3-2.8-0.8l-1.1,2c-0.6-0.3-0.6-1.6-1.6-1.3c-0.9,0.3-0.4,1.3-0.7,1.8c-1.3,2.1-1,4.4-0.9,6.6
			c0.2,2.2-0.2,3.8-2.8,4c0,0,0,0,0,0c0.3,8.4,0.4,16.8,0.3,25.2c0,0.5,0.1,1,0.1,1.5c0,0.4-0.1,0.7-0.3,1
			c-0.1,4.2-0.2,8.4-0.1,12.5c0,1.9-0.5,2.6-2.5,2.6c-2,0-2.3-0.9-2.3-2.5c-0.2-10.9-0.4-21.7-0.6-32.6c0-1.3,0-2.5-1.9-2.4
			c-1.6,0.1-1.5-1.2-1.5-2.2c-0.1-4.9-0.1-9.7-0.2-14.6c0-0.9,0.1-1.9-0.6-2.4c-1.2-0.9-1.2,1.3-2.2,1c-0.4-1.7,0.6-3.9-2.5-4
			c-3.3-0.1-2.5,2.3-2.7,4.4c-1.4-1.9-2.3-1.9-2.6,0.1c-0.1,1-0.2,2.1-0.2,3.1v12.5c0,0.9,0.4,2.2-1.1,2.5c0,0,0,0.1,0.1,0.1
			c0.1,0.1,0.2,0.3,0.2,0.4c0.1,0.1,0.1,0.2,0.1,0.3c-0.2,0.4-0.6,0.2-0.9,0.1c-1.6-0.8-1.6-2.3-1.6-3.8c-0.1-3.5-0.5-3.9-4-3.9
			h-2.4c-1.9-0.1-2.6,0.8-2.6,2.7c0,2.1,0,4.2,0,6.3c0,15.5-0.5,30.9,0.4,46.4c0.2,3.6,0.3,3.6,3.8,3.6h234c3.5,0,3.5,0,3.3-3.4
			C453.6,125.2,453.6,124.1,453.6,123.1z M304.4,102.4v-2.7c0-1.5,0-3,0-4.5C304.4,97.6,304.4,100,304.4,102.4z M362.7,94.3v7
			C362.5,99.2,362.6,96.8,362.7,94.3z M336.9,93v1.4C336.8,93.9,336.9,93.5,336.9,93z M259.7,101.2c0,0.4,0,0.8-0.1,1.2
			C259.7,101.9,259.7,101.5,259.7,101.2c0-0.4,0-0.7,0-1C259.7,100.5,259.7,100.9,259.7,101.2z"/>
		<path class="st2" d="M207.4,26.8c0,0,0-0.1,0.1-0.2c0-0.1,0-0.2,0-0.3c0-0.1,0-0.1-0.1-0.2c-0.1-0.1-0.2-0.2-0.4-0.2
			c0,0-0.1,0-0.1,0c0,0,0,0-0.1,0c-1-2.5-0.3-5.1-0.6-7.7v-0.1c-0.3-0.3-0.5-0.4-0.8-0.1c0,0,0,0.1-0.1,0.1
			c-0.1,1.7-0.2,3.4-0.2,5.2c0.1,1.8-0.3,2.7-2.4,2.6c-1.8-0.1-3-0.3-2.8-2.6c0.1-1.3,0-2.7-0.1-4c0-0.1,0-0.1,0-0.2
			c-0.1,0.1-0.3,0.2-0.3,0.2c-1,0.9,0.1,2.3-0.5,3.2c0,0.1,0,0.1-0.1,0.1c-0.3,0.9,0.2,2.6-0.4,2.6c-2.8-0.1-1.7,1.9-1.7,3
			c-0.2,4.4-0.3,8.9-0.1,13.3c0.1,2.5-0.8,3.3-3.1,2.9c-2-0.3-2.7,0.5-2.7,2.6c-0.1,12.9-0.4,25.7-0.7,38.6c0.2,0.8,0.1,1.7-0.2,2.5
			c-0.6,0.1-0.8-0.5-0.9-0.8c-0.9-2.2-1.8-2.1-2.9-0.1c-1.7,2.9-3.6,5.6-5.2,8.4c-0.3,0.5-0.8,0.9-1.4,0.8c-2.3,0.2-2.7-1-2.7-3
			c-0.1-15.3-0.3-30.6-0.5-45.9c0-1,0.5-2.5-0.8-2.7c-2.8-0.4-4.9-2.5-7.6-2.9c0,0,0,0-0.1,0c-0.1-0.1-0.2-0.2-0.4-0.2
			c0,0,0,0-0.1,0c-0.3,0-0.5,0-0.8,0.2c0,0,0,0-0.1,0c-0.5,0.1-1.1,0.1-1.4,0.6c0,0,0,0.1,0,0.1c0.2,0.9,0.3,1.8,0.2,2.7v1.2
			c-0.1-0.2-0.2-0.4-0.3-0.5l0,0c-0.4,0.9-0.6,2-0.4,3v22.9c0,4.3,0,4.3-4.1,5.3c-0.1,0-0.1,0.1-0.2,0.1c0,0,0,0.1,0.1,0.1
			c0,0.1,0.1,0.1,0.1,0.2c0,0-0.1-0.1-0.1-0.2c0,0,0-0.1-0.1-0.1c-0.7,0.9-0.4,2-0.4,3v28.4c0,0.9,0.3,2-1.3,2.1
			c-1.5,0-1.3-1.2-1.3-2.1c-0.1-5.8,0-11.7-0.2-17.5c-0.2-5.3,0.3-10.6-0.4-15.9c0-0.1,0-0.2,0-0.2c-0.2,1-0.3,1.9-0.4,2.9
			c0-0.9,0.1-1.8,0.2-2.7c0-0.2,0-0.4,0.1-0.6c-0.6-2.2-1.7-4.3-2.4-6.5c-0.5-1.4-1.5,0.8-1.6-0.6c0-0.2-0.5,0-0.7,0.4
			c-1.8,3.6-2.8,7.5-2.8,11.5c0.2,8.1,0.1,16.2,0.1,24.2v13.3c0,0.9,0.3,2.1-1.2,2.1s-1.3-1.1-1.3-2c0-1-0.1-2.1-0.3-3.1
			c-0.4-1.4-1.2-1.4-2.4-1.4c-1.2,0-1.1,0.8-1.5,1.7c-1.1,2.5-0.5,6.2-4.5,6.8v0h0c-0.5-4.5-0.4-9.1-0.4-13.6
			c-0.1-16.8,0-33.7,0-50.6c0-1.4-0.1-2.5-1.7-2.7c0,0-0.1,0-0.2,0c-4.6,0.2-7.2,2.8-10.2,6.3c-3.5,4-0.5,8-2.3,11.5
			c-0.9-0.8-8.4-1.7-9.4-1c-0.3,0.2-0.4,0.8-0.6,1.1c-2.3,3.7-1.9,8-2.4,12c-0.3,2.5-1.1,3-3.3,2.9c-1.7-0.1-2.2-1.2-2.6-2.4
			c-0.2-0.7-0.4-1.5-1.2-1.4c-0.8,0.1-0.8,0.9-1.1,1.5c-1,1.9-0.9,3.8-0.9,5.8c-0.1,6.8-0.2,13.6-0.4,20.4c-0.1,4.1-0.1,4-4.3,4
			c-1.9,0-2.3-0.7-2.3-2.4c0.1-5.8,0-11.5,0-17.2c0-0.7,0.4-1.6-0.6-2.3c-0.2,2-1.8,0.3-2.3,1c-0.4,0.5-0.6,1.1-1.3,0.8
			c-0.7-0.3-0.5-1-0.5-1.6V83.3c0-1.7,0-1.7-1.7-2.6c-0.1-0.1-0.3-0.3-0.3-0.3c0.4-1.9-1-3.2-1.7-4.7c-0.7-1.6-0.6-3.4-1.6-5.4
			c-0.7,2-0.8,3.9-2.8,4.4c-0.1,0-0.2,0.5-0.2,0.7c-0.2,1.8-2.5,2.8-1.8,4.9c0,0.1-0.3,0.4-0.5,0.4c-1.8,0.2-1.8,0.2-1.8,2.1
			l-1.1,38.4c0,1.3-0.3,2.6-1,3.7c-0.2-0.9-0.3-1.9-0.2-2.8V68.2c0-1.1,0.3-2.3-0.3-3.3c0,0,0,0,0,0v0c0,0,0,0,0,0
			c-0.8-1.6-3.2-1.9-3.3-4.1c0-0.3-1-0.6-1.6-0.8c-1.7-0.5-3.4-0.7-5.2-0.7c-1.3-0.1-2,0.4-1.9,1.8c0,0.9,0.1,2.3-1.3,2.1
			c-2.9-0.3-2.7,1.7-2.9,3.5c-0.1,1.3-0.1,2.6-0.1,3.9c-0.1,19.2-0.1,38.3-0.1,57.5v0c0,0,0,0,0,0c0.1,0.2,0.2,0.3,0.3,0.4
			c1,1.1,2.4,1.2,3.8,1.2h140.4c3.4,0,4-0.6,4-3.9V93.6c0-2.8-1.3-5.4-1.1-8.2c0.2-2.3,1.2-4.3,1.2-6.6c-0.1-16.1-0.1-32.2,0-48.3
			C207.4,29.2,206.8,28,207.4,26.8z M156.6,85.8c0-0.4,0-0.8,0.1-1.2c0-0.2,0-0.4,0-0.6c0-0.7,0-1.5,0-2.2c0,0.5,0,1,0,1.5v0.1
			c0,0.5,0,0.9,0,1.4C156.7,85.1,156.7,85.5,156.6,85.8z M160.8,80.4v-0.1c0-0.3,0-0.6,0.1-0.9C160.9,79.7,160.9,80,160.8,80.4z
			 M74.9,67.1v0.5c-0.1-0.4-0.1-0.8-0.1-1.2C74.8,66.7,74.8,66.9,74.9,67.1z"/>
		<path class="st2" d="M607.8,89.3c0-8,0.2-16-0.1-24c-0.1-1.5-0.5-2.3-2.1-2.1c-1.2,0.1-2.1-0.3-1.9-1.8c0.3-2-0.9-2-2.5-2.2
			c-4.7-0.6-6.8,3-9.5,5.6c0,0.1,0,0.1,0.1,0.2c0.2,0.4,0.2,0.9,0.2,1.4V123c0,0.6,0.2,1.2-0.3,1.6c0,0,0,0.1-0.1,0.1
			c-0.4,0.2-0.8,0.5-0.9-0.2c-0.2-1.3-0.4-2.6-0.5-3.9c-0.4-12.9-0.8-25.7-1.1-38.6c0-1.6,0-1.6-1.6-1.5c-0.4,0-0.8-0.2-0.8-0.5
			c0.3-3.9-4.3-5.7-4.3-9.5c0-0.2-0.6-0.3-1.3-0.7c1.2,4-2.1,6.6-2.4,10c0,0.4-0.1,1-0.7,0.7c-1.9-1-1.3,0.6-1.3,1.2
			c0,3.7,0.1,7.3,0.1,11c0,0.9,0.4,1.9-0.6,2.6c-1.2,0.8-0.7-1.5-1.8-0.9c-0.4,0.2-0.8,0.4-1.1,0.6c-0.2,0.2-0.4,0.4-0.6,0.7v0
			c-0.2,0.3-0.3,0.6-0.4,1c0,0,0,0,0,0.1c-0.1,0.8-0.1,1.7-0.1,2.5c0,5.1,0.1,10.2-0.1,15.3c-0.1,0.3-0.2,0.5-0.4,0.7
			c0,0,0,0-0.1,0.1c-1.1-0.1-2.3-0.1-3.4,0c-2.5,0.3-3.1-0.8-3.1-3.1c0-7.3-0.2-14.6-0.3-21.9c0.1-1.9-0.3-3.8-1-5.5
			c-0.3-0.6-0.5-1.2-1.2-1.2c-0.6,0.1-0.9,0.6-1,1.1c-0.1,0.7-0.4,1.3-0.8,1.9c-1.1,1.5-2.8,0.8-4.1,0.8s-1-1.3-1-2.1
			c0.1-2.9-1-5.5-1-8.4c0-1.8-0.8-4.9-2.2-5.1c-3.1-0.6-6.5-1-9.7,0.8c0-0.7,0-1.4,0-2.1c-0.4-3.3,1.4-7.2-2.5-9.6
			c-0.1-0.1-0.1-0.1-0.1-0.2c-1.6-4.5-5.5-5.4-9.6-6c-1.6-0.2-2.2,0.3-2.2,2c0.1,6,0.1,12,0.1,18c0,0,0,0.1,0,0.1c0,0,0,0.1,0.1,0.2
			c0.1,0.4,0.2,0.8,0.1,1.2V120c0,0.6,0.3,1.2-0.3,1.6c0,0,0,0,0,0c-0.8-0.9-2.7,0-2.8-1.4c-0.2-1.9-1.4-3.4-1.6-5.2
			c-0.2-1.2-0.3-1.9-1.8-1.9s-2,0.9-2.2,2c-0.2,1.1-0.2,2.2-0.2,3.4c0,0.7-0.3,1.1-1.1,1.2c-0.8,0-1.4-0.3-1.4-1.2v-2.1
			c0-12.2,0-24.4,0.1-36.6c0-3.6-0.4-6.9-2.4-10.2c-0.5-0.8-1.3-1.3-2.2-1.6c-0.6-0.2-0.2,1.1-0.7,1.6c-1.6,1.7-1.3,4.1-2.3,6
			c0,0,0,0,0,0.1c0.3,1.6,0.3,3.2,0.3,4.7c0-1.2-0.1-2.5-0.4-3.8c-0.5,8.5-0.3,17-0.5,25.5c-0.1,2.3,0,4.5-0.1,6.8
			c0,0.9,0.4,2.3-1.3,2.3c-1.7-0.1-1.1-1.5-1.2-2.4c0-0.6,0-1.2,0-1.8c0-9-0.1-18.1,0-27.1c0-1.9-0.6-2.8-2.5-2.6
			c-1.9,0.2-2.3-0.7-2.3-2.5c0.1-8.5,0.1-17,0-25.6c0-2.1,0.2-4.3-0.5-6.4v0c0,0,0,0,0,0c0,0,0,0,0,0c0,0,0,0,0,0h0
			c-0.8-0.5-1.8-0.9-1.7-1.9c-1.8,1.8-4.2,3.1-6.7,3.6c-1.9,0.4-2.7,1.2-2.7,3.3c0,7.3-0.2,14.6-0.3,21.9
			c-0.1,8.2-0.2,16.4-0.2,24.5c0,1.1,0.3,2.3-1.5,2.5c-1.3,0.1-2,0.1-2.8-1.4c-1.8-3.4-4.2-6.5-6.4-9.9l-2.5,3.7
			c-0.3-14.1-0.6-27.6-0.7-41.1c0-2.4-0.4-3.7-3.1-3.2c-2.1,0.4-2.7-0.5-2.7-2.6c0.1-4.8-0.1-9.6-0.1-14.4c0-1-0.2-1.9-0.6-2.8
			c-2.7,1.4-0.9-1.2-1.5-1.7c0,0,0,0-0.1-0.1c0,0-0.1-0.1-0.1-0.1c-0.3-0.2-0.6-0.1-0.8,0.1l0,0c-0.4,0.8,0.5,2.3-1.1,2.4
			c-1.4,0.1-2.9,0.6-4.2-0.4h0c-0.2,0-0.3,0-0.4,0c-0.1,0-0.2,0.1-0.2,0.1c-0.1,0.1-0.1,0.2-0.1,0.3c0,0,0,0,0,0
			c0,0.2,0.1,0.3,0.2,0.5c0,0,0,0,0,0c-0.3,0.2-0.5,0.5-0.7,0.7c0,0,0,0,0,0c0,0,0,0,0,0c-0.5,0.7-0.7,1.5-0.8,2.3
			c-0.1,0.5-0.1,1.1-0.1,1.7v77.4c0,5.7-0.1,11.3,0,17c0,3.1,0.8,3.8,3.9,3.8h141.1c1.4,0,2.5-0.3,3.1-1.4c0.1-0.2,0.2-0.5,0.3-0.7
			C607.9,114.8,607.9,102.1,607.8,89.3z M501.1,45.4c0-0.5-0.1-1.1,0-1.6c0,0.3,0,0.6,0,0.8V45.4z M510,81.4v0.2c0,0,0,0.1,0,0.1
			c0,1.8-0.1,3.4,0,4.8c-0.2-1.4,0-3,0-4.8v-0.1C510,81.5,510,81.4,510,81.4z"/>
		<path class="st2" d="M742.6,119.7c0,1.5,0,3.1-0.1,4.6c0,0.1,0,0.2,0,0.3c-0.3,4.3-0.8,5-5.1,5h-78.7c-1.6,0-3.2,0-4.5-1.1
			c0,0-0.1-0.1-0.1-0.1c0,0,0,0,0,0c-0.1-0.1-0.3-0.3-0.4-0.4c1.5,0,1-1.2,1-1.9c0-1.8,0.2-3.5,0.6-5.2c2.1,0.9,0.7,3.2,2.2,4.4
			c0.9-2.5,0.4-5.1,0.7-7.6c0.7-5.3,1.1-10.6,1.2-15.9c0-2.1-0.4-4.1,0.1-6.2c0.2-1,0.2-2.2,1.3-2.2c1.1,0,1.3,1.2,1.3,2.2
			c0.2,4.6,0.1,9.2,0.5,13.8c0.4,5.3,1.4,10.6,1.5,16c0.6-2.9,2.5-5.2,2.4-8.4c-0.2-14.5-0.1-29.1-0.1-43.6c0-1-0.2-2.1,0.3-3.1
			c0,0,0,0,0,0c0.1,0.3,0.2,0.6,0.2,0.9c0-0.3-0.1-0.5-0.2-0.8c0,0,0-0.1,0-0.1c2.1-0.8,2.9,0.1,2.8,2.2c-0.1,1.1,0,2.3,0,3.4
			c0,0.6,0,1.5,0.7,1.4c1,0,0.7-1,0.8-1.6V64.2c0-1.7,0-3.3,0.2-5c0-0.5,0.1-1.3,0.8-1.5c0.9-0.3,1,0.7,1.8,1.3
			c0.2-2.1-0.3-4.6,3-4.3c2.9,0.2,1.8,2.4,2.2,3.9c1.1,0.3,1.1-1.8,2.2-1c0.8,0.7,0.6,1.8,0.7,2.7c0.1,4.8,0.1,9.6,0.2,14.4
			c0,1-0.2,2.3,1.5,2.2c1.9-0.1,1.8,1.1,1.9,2.4c0.2,10.9,0.5,21.8,0.6,32.6c0,1.7,0.4,2.5,2.3,2.5s2.5-0.7,2.5-2.6
			c-0.1-4.2,0-8.3,0.1-12.5c0,0,0,0,0-0.1c0.5-1,0.2-2,0.2-2.9c0.1-8.1,0-16.2-0.3-24.3c0-0.1,0-0.2,0-0.3c2.6-0.2,3-1.8,2.8-4
			c-0.2-2.2-0.4-4.5,0.8-6.6c0.3-0.5-0.2-1.5,0.7-1.8c1.1-0.4,0.9,1.1,1.7,1.2l1-2c1,0.5,1.3,2.6,2.9,0.8c0.5-0.6,0.9,0.6,1,1.3
			c0.3,2.8,0.6,5.7,1,8.5c0.1,0.7-0.1,1.8,0.6,1.8c3.8,0.3,2.7,3.5,2.8,5.3c0.5,5.3,0.3,10.6,0.4,15.9c0,0.2-0.1,0.4-0.1,0.6v0
			c-0.2,1.3-0.2,2.5-0.2,3.8c0-0.8,0.1-1.7,0.4-2.5c0,0.1,0,0.2,0,0.4c0.6,5.6,0.3,11.2,0.6,16.8c0,1.7,1.3,3.2,3,3.2
			c0.6,0,1.2-0.1,1.7-0.5c0.8-0.4,0.7-1.2,0.7-1.8c0-2.4,0.1-4.9,0-7.3c-0.2-7.7,1.6-15.2,1.8-22.8c0-2.2,1.9-3.7,2.9-5.5
			c0.4-0.8,1-0.2,1.3,0.1c1.4,1.8,2.9,3.4,3,5.9c0.2,9.9,2.2,19.6,1.3,29.6c0,0.6-0.2,1.3,0.6,1.6c1.1-0.4,0.7-1.4,0.8-2.2
			c1.2-17.5,2.4-34.9,3.6-52.4c0.1-1-0.3-2.2,1-2.8c0-0.1,0-0.1,0.1-0.2c0.7-2,0.2-4.2,0.3-6.2c0.1-3,0-6.1,0-9.1
			c0-0.7,0-1.4,1.1-1.4s1,0.7,1,1.4v13c0,0.4-0.1,0.8-0.1,1.2c0,0.5,0.1,0.9,0.4,1.3h0.1v0c3.4-0.2,3.4-0.2,3.4-3.6
			c0-4.3-0.1-8.7-0.1-13c0-0.5-0.8-1.5,0.6-1.6c1.3-0.1,0.8,0.7,0.9,1.3c1.2,5.7,0.4,11.3,0.5,17c0,0,0,0,0,0c1.6,2.6,2,5.8,1.1,8.7
			c0,0.2-0.1,0.4-0.2,0.5c-0.1,0.4-0.1,0.9,0,1.3c0.2,0.6,0.4,1.1,0.6,1.7c0.9,2.9,1.2,5.8,0.5,8.8c-0.1,0.5-0.2,0.9-0.4,1.4
			c-0.2,0.8,0,1.6,0.6,2.2c0.1,0.1,0.2,0.2,0.3,0.4c0.3,0.5,0.5,1.2,0.6,1.8c-0.2,4,0.9,7.8,0.9,11.7c0,4.2,0.4,8.4,0.7,12.6
			C742.2,111.6,742.6,115.6,742.6,119.7z"/>
		<path class="st2" d="M653.5,101.4c-5.1-8.1-11-15.7-16.5-23.5c-1.1-1.5-1.2-0.1-1.7,0.3c0,0,0,0,0,0c-0.1,0.1-0.1,0.2-0.2,0.2
			c0-0.2,0-0.3,0-0.5c0,0,0,0,0-0.1c-1.7-0.8-0.8,0.8-0.8,1.1c0,8.1-0.1,16.2,0,24.2c0,2-0.6,2.7-2.7,2.6c-1.8-0.1-3.6-0.5-5.3,0.3
			h0l0,0c-0.6,1.9-0.2,3.9-0.4,5.9c-0.1,0.7,0.2,1.9-0.8,1.9c-1.4,0-1-1.2-1-2c0-3.1,0.1-6.2,0.1-9.3c0-2.8,0.4-5.6-0.5-8.3
			c0-0.1,0-0.1,0-0.1v19.2c-0.1-1.1-0.2-2.2-0.3-3.3c-0.3-4.1-0.4-8.3-0.3-12.4c0-0.1,0-0.2,0-0.3c0-1.9-1-2.6-2.7-2.6
			c-1.5,0-2.3,0.5-2.5,1.9c0,0,0,0,0,0c0,0.2,0,0.4,0,0.6c0.1,3,0.5,5.8-0.3,9c-0.1,0.3-0.2,0.7-0.2,1c-0.2,1.4-0.1,2.8-0.1,4.3
			c0,1.2,0.1,2.3,0,3.5c0,0.4-0.1,0.9-0.2,1.3c-0.3,1.9-0.5,3.9-0.4,5.8c0.1,1.9,0.3,3.8,0.8,5.6c0.4,1.6,1,2,2.4,2h30.9
			c1.1,0,2.1-0.2,2.3-1.6c0-0.1,0-0.1,0-0.2c0,0,0-0.1,0-0.1c0.5-3.5,0.1-7,0.2-10.5C653.5,112,653,106.7,653.5,101.4L653.5,101.4z
			 M634.9,82.9C634.9,82.9,634.9,82.9,634.9,82.9c0-0.3,0-0.6,0-0.9v8.2C634.9,87.8,634.9,85.4,634.9,82.9z M634.9,98.6
			c0-0.9,0-1.8,0-2.8V98.6z M626.3,106.1c1.4,0.6,2.8,0,4,0.3c-3.7,0-3.8,0-3.8,4.3C626.4,109.3,626.9,107.7,626.3,106.1
			C626.3,106.2,626.3,106.1,626.3,106.1C626.3,106.1,626.3,106.1,626.3,106.1z"/>
		<path class="st2" d="M50,118.2c0,0,0-0.1,0-0.2c0-1.4-0.1-2.8-0.3-4.1c0-0.2-0.1-0.4-0.3-0.7c-0.4-0.7-1.1-1.3-0.8-2.2
			c2.1-4.8-1.9-9.6,0.1-14.3c0-0.1,0-0.2,0-0.3v0c0,0,0,0,0,0c-0.1-1.2-0.8-1.6-1.8-1.7c-0.2,0-0.4,0-0.6,0c-0.2,0-0.4,0-0.6,0
			c-1.1,0-2.1,0.2-2.1,1.6c0,0.3,0,0.6,0,0.9c0,5-0.7,10.1,0.5,15.1c0.2,0.9,0.4,1.8-0.7,1.6c-0.2,0-0.4-0.1-0.6-0.2h0
			c-2.1,0.8-2-0.7-2-1.9c-0.2-5.9-0.3-6-6-6c-1.8,0-2.4-0.5-2.4-2.4c0-7.5,0-14.9,0-22.4c0.1-1,0.1-2.1,0-3.1c-0.2-1-0.6-0.5-0.9,0
			v0.1c0,0.2,0,0.3,0,0.5c0-0.1-0.1-0.2-0.2-0.3c0,0,0,0,0,0c-0.5-0.3-0.6-1.8-1.7-0.3c-5.5,7.8-11.3,15.4-16.5,23.5v0.1
			c0.4,8.6,0.1,17.2,0.1,25.8v0.3c0,0.1-0.2,0.3-0.3,0.4l-0.5-0.1l-0.5-0.1c0.2,0.2,0.4,0.4,0.7,0.6c0.9,0.7,1.9,1.1,3,1.1h31.4
			c1.6,0,2.2-0.8,1.8-2.4c-0.3-1.6-0.1-3.3,0.4-4.9C49.9,121,50,119.6,50,118.2z M31.8,91.7V83C31.9,86,31.8,88.9,31.8,91.7z"/>
		<path class="st2" d="M11.4,127.4c0,0.2-0.1,0.5-0.2,0.8c-0.5,1.1-1.6,1.7-2.8,1.5c-1.5,0-3,0-4.5-0.1c-2.6-0.3-3.4-1.9-2.2-4.1
			c0.1-0.2,0.2-0.3,0.3-0.5c0,0,0,0,0,0c1.2,0.8,1.1-0.3,1.1-0.9c0.1-2.9,0-5.9,0.3-8.8c0.4-2.4,0.7-4.8,0.9-7.3
			c0-4.3,0.3-8.5,0.4-12.7c0-0.9,0.3-2,1.2-2c1.2-0.1,1.3,1.1,1.4,2.1c0.6,3.1,0.3,6.3,0.3,9.3c0,6.6,1.8,13,1.4,19.5
			c0,0.5-0.1,1.4,1,0.8c0.3,0.2,0.5,0.4,0.7,0.6c0.2,0.3,0.4,0.5,0.5,0.8C11.5,126.7,11.5,127.1,11.4,127.4z"/>
		<path class="st1" d="M296.2,107.6C296.1,107.6,296.1,107.6,296.2,107.6c-0.3,0.1-0.5,0.2-0.7,0.2c-1.4,0.3-1.5-0.7-1-2
			c0-0.1,0.1-0.1,0.1-0.2c0.4-0.9,0.3-1.9-0.2-2.7c-0.1-0.1-0.2-0.3-0.3-0.4c-0.6-0.8-0.7-1.9-0.2-2.7c0.1-0.2,0.1-0.3,0.2-0.5
			c0.7-1.9,0.8-3.8-0.4-5.6c-0.1-0.1-0.2-0.2-0.2-0.3c-0.4-0.5-0.5-1.2-0.3-1.7c0.9-1.5-0.5-3.1-0.3-3.9c0.2-0.8,0.3-1.5,0.2-2.2
			c-0.1-2.3-1.3-4.2-1.6-6.4c-0.1-0.6,0.4-1.3,0.6-2c0.1-0.2,0.2-0.4,0.3-0.6c0.2-0.3,0.4-0.6,0.3-0.8c-0.2-0.3-0.3-0.6-0.4-1
			c-0.5-1.5-0.2-3-0.3-4.5c0-0.8-0.2-1.5-0.6-2.2c-0.6-0.9-0.7-2-0.3-3c0.1-0.2,0.2-0.3,0.3-0.5c0,0,0,0,0,0c0-0.1,0-0.1,0.1-0.2
			c0.8-2.4,0.7-4-0.4-5c-0.8-0.7-2-1-3.7-1c-0.8,0-2,0.3-2.2-0.8c0-0.1,0-0.3,0-0.3v0c0.1-0.4,0.8-0.5,1.3-0.7
			c0.1,0,0.2-0.1,0.2-0.2c1.5,0,2.1-0.7,2-2.3c-0.1-4.4-0.2-8.9-0.1-13.3c0-1-0.8-3,0.8-3c1.8-0.1,1,1.9,1,2.9c0.1,4.5,0,9,0,13.5
			c0,1.1-0.1,2.2,1.4,2.7c1.3,0.5,0.9,2,0.8,3c-0.1,4.2,0.7,8.4,0.9,12.6c0.1,3.3,0.6,6.5,0.7,9.8c0,3.3,0.6,6.8,0.9,10.3
			c0.3,3.2-0.1,6.4,0.5,9.6C295.9,104,295.9,105.8,296.2,107.6z"/>
		<path class="st3" d="M138.3,105.1c0,5.6,0,11.1,0,16.6v0.1c-0.6-0.7-0.7-1.6-0.7-2.4c0-0.4,0-0.9,0-1.3V59c0-1.6,0.2-3.2-1.6-4.1
			c0.1,0,0.1,0,0.2,0c2.1-0.5,2,0.9,2,2.4C138.2,73.2,138.3,89.1,138.3,105.1z"/>
		<path class="st4" d="M422.9,87.2c0,8.5-0.2,17-0.3,25.6v0.2c-0.5-1.1-0.7-2.3-0.6-3.5V75.6c0-0.1,0-0.2,0-0.3
			c0-1.2,0.1-2.4-1.1-3.2c0.4-0.4,0.8-0.3,1.3-0.3c0,0,0,0,0,0c0.2,0,0.3,0,0.5,0c0,0,0,0.1,0,0.1c0,0.4,0.1,0.8,0.1,1.1
			C423.3,77.7,422.9,82.4,422.9,87.2z"/>
		<path class="st5" d="M208.5,33.1c-0.2,16.5-0.1,33-0.1,49.5c0,0,0-0.1-0.1-0.1c-0.7-1.1-0.4-2.3-0.4-3.5V30.3
			c0-1.2,0.3-2.4-0.4-3.6l-0.1-0.1l-0.3-0.2l-0.2-0.2l0,0v-6.6c0.4,2.5,0.9,4.9,1.2,7.4c0.1,0.5,0.1,0.9,0.2,1.4
			C208.4,29.9,208.5,31.5,208.5,33.1z"/>
		<path class="st6" d="M378.3,39.8c0,5.4-0.2,10.8-0.3,16.1v0h0c-0.1,0.1-0.2,0.2-0.3,0.3c-0.2,0.1-0.3,0.2-0.5,0.3
			c-0.2,0.1-0.5,0-0.8-0.1c0,0-0.1,0-0.1-0.1c0-5.5,0.1-11.1,0.1-16.6c0-0.7-0.3-1.8,0.9-1.8C378.7,37.9,378.3,39,378.3,39.8z"/>
		<path class="st7" d="M362,63.2c0,7.4-0.1,14.8-0.2,22.2v0.2c-1-0.4-0.6-1.4-0.6-2.1v-2.9c0-8.4,0-16.8,0-25.2c0-0.6,0-1.3,0-2
			c0-0.7-0.1-1.4,0.7-1.8c0,0.3,0.1,0.6,0.1,1C362.3,56.2,362,59.7,362,63.2z"/>
		<path class="st8" d="M591.5,124.8V66.1c0-0.4,0.1-0.8,0.1-1.2c0,0,0,0,0-0.1c0.5,1,0.6,2.2,0.5,3.3v54
			C592.2,123.1,592.7,124.2,591.5,124.8z"/>
		<path class="st2" d="M458.8,82v43.4c0,1.9-0.2,2.8-0.9,3c0,0,0,0,0,0c-0.5,0.1-1.2-0.1-2.2-0.6c2.5,1,2.8-0.3,2.8-2.3
			c-0.1-13.4-0.1-26.8-0.1-40.1C458.4,84.2,458.1,83,458.8,82z"/>
		<path class="st2" d="M211.1,127.9c-2.4,1-3.1,0.7-3.1-1.7c0-13.6,0-27.3,0-41c0-0.4,0.1-0.7,0.2-1.1c0.1-0.3,0.2-0.6,0.3-0.9v42.5
			c0,1.7,0.3,2.6,1.6,2.5C210.3,128.1,210.6,128,211.1,127.9z"/>
		<path class="st9" d="M529.2,118.3c0,0.4,0,0.7,0,1.1c0,0.8-0.1,1.7-0.7,2.4v-0.2c0-15.6,0.1-31.2,0.2-46.8c0,0,0,0.1,0.1,0.2
			c0.4,1,0.6,2.1,0.4,3.2V118.3z"/>
		<path class="st2" d="M211,122.8v-0.2c0.1-11.6,0.1-23.2,0.2-34.8c0-2.9,0-5.8,0-8.7v-0.1c0.1-0.3,0.1-0.7,0.3-1v41.6
			C211.7,120.8,211.5,121.9,211,122.8z"/>
		<path class="st2" d="M455.7,110.3c-0.1-0.2-0.2-0.4-0.2-0.7c-0.3-0.9-0.4-1.9-0.3-2.9V70.2c0.1,0.4,0.2,0.8,0.3,1.3v0.3
			c0,0.3,0,0.5,0,0.8C455.5,85.1,455.6,97.7,455.7,110.3z"/>
		<path class="st10" d="M691.4,75.3v0.6c0,0.2,0,0.4,0,0.7v19.2c0.2,1.2,0,2.4-0.5,3.5v-0.2c-0.2-9.1-0.4-18.2,0-27.3
			c0-0.1,0-0.2,0-0.3l2,0.1C691.2,72.8,691.4,74.1,691.4,75.3z"/>
		<path class="st3" d="M244.7,75.3v20.5c0.1,0.8,0.1,1.7-0.2,2.5c-0.1,0.4-0.2,0.7-0.4,1.1c-0.1-9.2-0.4-18.5,0-27.7h0l2,0.1
			C244.5,72.8,244.7,74.1,244.7,75.3z"/>
		<path class="st11" d="M731.9,56.5C731.9,56.5,731.9,56.4,731.9,56.5c-0.3-0.5-0.4-1-0.5-1.4c-0.4-1.8,0-3.7-0.1-5.5
			c-0.1-2.6,0-5.2-0.1-7.8c0-0.6,0-1.4-0.7-1.4c-0.7,0-0.8,0.9-0.8,1.4v11.5c0,1.1,0.1,2.3-0.6,3.3v-0.2c0-4.9,0.1-9.8,0.1-14.7
			c0-0.9-0.4-2.1,1.1-2.2c1.7-0.1,1.3,1.3,1.3,2.2c0.1,4.9-0.3,9.8,0.2,14.8L731.9,56.5C731.9,56.4,731.9,56.5,731.9,56.5z"/>
		<path class="st12" d="M305.5,83.5c0,0.6,0.2,1.3-0.2,1.8c-0.1,0.1-0.2,0.3-0.4,0.4c-0.1-11.3-0.3-22.6,0-33.9c0,0,0.1,0,0.2,0h0
			c0.4,0.1,0.7,0.2,0.7,0.7C305.2,62.9,305.7,73.2,305.5,83.5z"/>
		<path class="st10" d="M166,43.8v32.4h-0.7V46.4c-0.2-1.1-0.2-2.3,0.1-3.4c0,0,0-0.1,0-0.1C165.6,43.2,166,43.5,166,43.8z"/>
		<path class="st13" d="M337.5,71.8c-0.9,3.9-0.3,8-0.4,12c0,2.5,0,5-0.2,7.5c0,0.1,0,0.3,0,0.4c-0.1,1.8-0.3,3.6-0.4,5.4V73.2
			c0-0.8,0-1.6,1.1-1.7C337.5,71.7,337.5,71.7,337.5,71.8z"/>
		<path class="st9" d="M635.3,78.2v26.1c-0.2,0-0.3-0.1-0.4-0.1c-0.4-0.2-0.2-0.6-0.2-0.8V80.5c-0.1-0.8,0.1-1.7,0.4-2.5
			c0,0,0,0,0-0.1C635.3,78,635.3,78.1,635.3,78.2z"/>
		<path class="st9" d="M32,80.8c0,5.8,0,11.6-0.2,17.4c0,0.1,0,0.2,0,0.3c0,0,0,0.1,0,0.1v0.1c-0.1,1.9-0.2,3.8-0.3,5.7V78.3
			c0-0.1,0.1-0.2,0.2-0.3c0,0,0,0,0,0v0C32,78.9,32.1,79.9,32,80.8z"/>
		<path class="st14" d="M13.4,127.4c-0.1,0.2-0.2,0.5-0.3,0.7c0-8.9,0.1-17.7,0.1-26.6c0,0,0,0.1,0,0.1c0.4,0.8,0.5,1.8,0.4,2.7
			v20.8C13.8,125.8,13.7,126.6,13.4,127.4z"/>
		<path class="st15" d="M653.7,127.9v0.1c0,0,0,0,0,0l-0.4,0l-0.2,0v-23.3c-0.1-1.1,0-2.2,0.5-3.2c0,0,0,0,0,0
			C653.9,110.3,653.7,119.1,653.7,127.9z"/>
		<path class="st16" d="M344.5,90.8v4.1h-0.6c0-1.2,0-2.4,0-3.6c0-3.4,0-6.8,0-10.1c0.1-2.7-0.5-5.4,0.5-8l0,2.2L344.5,90.8z"/>
		<path class="st17" d="M572.6,94.6L572.6,94.6c0,0.4,0,0.8,0,1.1v0c-0.3,5.6,0,11.3-0.1,16.9c0.1,1,0.1,1.9-0.2,2.8h0c0,0,0,0,0,0
			h-0.6v-0.1c0-6.4,0.1-12.8,0.1-19.2c0-0.8,0.1-1.5,0.3-2.3c0-0.3,0.4-0.3,0.5,0C572.7,94.1,572.7,94.4,572.6,94.6z"/>
		<path class="st18" d="M572.8,97.5c-0.2,0.8-0.2,1.5-0.1,2.3c0.1,4.2,0,8.5,0,12.7c0,0.4,0.1,0.7,0,1.1v0c0,0.7-0.2,1.3-0.5,1.9
			c0,0,0,0,0,0c0,0,0,0,0,0V97.8c0-0.3,0-0.6,0-1c0,0,0,0,0-0.1c0-0.7,0.2-1.4,0.4-2c0.2,0.2,0.3,0.3,0.5,0.4
			c0.4,0.1,0.8-0.3,1.1-0.5C573.6,95.4,573.1,96.4,572.8,97.5z"/>
		<path class="st19" d="M461.5,25.6l-0.3,0.6l-0.2,0.4l0,0l0,0h-2.1c0.2-0.1,0.3-0.1,0.5-0.2c0.8-0.5,1.3-1.5,1.2-2.5
			c-0.1-1.9-0.1-3.8,0-5.6c0,0,0,0,0,0c0.6-1.3-0.7-3,0.8-4.1v0.1C461.4,18.1,461.4,21.9,461.5,25.6z"/>
		<polygon class="st12" points="304.5,86.3 304.5,103.9 304,103.9 304,86.4 		"/>
		<polygon class="st10" points="362.8,86.4 362.8,103.8 362.3,103.8 362.3,86.2 362.4,86.3 		"/>
		<path class="st2" d="M43.1,94.2v18.5c0-0.6-0.1-1.1-0.1-1.6c0-0.1,0-0.2,0-0.3c0,0,0-0.1,0-0.1c-0.4-5.4-0.7-10.7,0.1-16.1
			C43,94.4,43.1,94.3,43.1,94.2z"/>
		<path class="st20" d="M461.4,14.3C461.4,14.3,461.4,14.3,461.4,14.3c-0.5,0.9-0.3,1.8-0.4,2.8c0,0.1,0,0.1,0,0.2
			c-0.1,0.4-0.2,0.8-0.4,1.2V8.6C461.8,10.4,461.4,12.4,461.4,14.3z"/>
		<path class="st4" d="M510.3,80.2c0,1.2-0.1,2.4-0.1,3.6c0.1,1.7,0,3.3-0.2,5c0,0,0,0,0,0c-0.1,0.7-0.2,1.3-0.4,2V76.7
			c0-0.3,0-0.6,0-0.9c0,0,0,0,0,0C510.3,77.3,510.4,78.7,510.3,80.2z"/>
		<path class="st21" d="M200,12.5v7c0,0-0.1,0.1-0.1,0.1c-0.2,0.3-0.3,0.7-0.3,1.1c0,0,0,0,0,0c-0.1,0.8,0,1.7-0.5,2.3
			c0-0.1,0-0.1,0-0.2C198.9,19.4,199.2,15.9,200,12.5z"/>
		<path class="st4" d="M157.1,75.7v12.9c-0.1-1.3-0.2-2.6-0.4-3.9c0,0,0-0.1,0-0.1c0,0,0-0.1,0-0.1c-0.2-1.8-0.3-3.7-0.2-5.6
			c0-1,0.2-2.1,0.4-3.1c0-0.2,0.1-0.3,0.1-0.5C157,75.4,157.1,75.6,157.1,75.7z"/>
		<path class="st2" d="M623.7,94.1c-5.6,0-5.6,0-6.4,5.6c-0.1,0.4-0.2,0.7-0.4,1.1c0,0,0,0.1,0,0.1c0-0.5-0.1-1,0-1.5
			c0-1.7,0.1-3,0.2-3.9c0.1-0.8,0.4-1.3,0.8-1.6c0.7-0.6,2-0.5,4.1-0.1C622.5,93.9,623.1,94,623.7,94.1z"/>
		<path class="st4" d="M260,94.5v9.3c-0.1-0.9-0.2-1.7-0.3-2.6c0,0,0,0,0-0.1c-0.1-0.6-0.1-1.2-0.2-1.7c-0.1-0.8-0.1-1.6-0.2-2.4
			c0-1.6,0.1-3.3,0.6-4.9c0,0.1,0,0.3,0,0.4C260,93.1,260,93.8,260,94.5z"/>
		<path class="st22" d="M467.7,19.4L467.7,19.4c-1.2-0.5-0.7-1.4-0.7-2.3c0-0.3,0-0.6-0.2-0.8v-4.1h0.7
			C467.8,14.6,467.9,17,467.7,19.4z"/>
		<path class="st4" d="M706.7,94v9.3c-0.1-0.8-0.2-1.5-0.3-2.3c0-0.3-0.1-0.6-0.1-0.9c0,0,0,0,0-0.1c-0.1-1.3-0.3-2.5-0.3-3.8
			c0-1.2,0.1-2.4,0.4-3.6v0c0.1-0.2,0.1-0.4,0.2-0.5L706.7,94z"/>
		<path class="st2" d="M49.9,99.9c-0.1-0.3-0.2-0.5-0.3-0.8c-0.1-0.1-0.1-0.3-0.1-0.4c-0.7-4.6-0.7-4.6-5.3-4.5h-1
			c0.1,0,0.1-0.1,0.2-0.1c0.3,0,0.5-0.1,0.7-0.1c0,0,0,0,0,0C49.8,92.9,50.1,93.4,49.9,99.9z"/>
		<path class="st23" d="M467.7,19.4v4.2h-0.9c0-2.4,0-4.8,0-7.3l0.2,0.8L467.7,19.4z"/>
		<path class="st24" d="M206.3,13.7L206.3,13.7L206.3,13.7c-0.2,0.2-0.6,0.3-0.8,0.1c0,0,0,0-0.1-0.1V8.6
			C206.8,10.2,206.2,12,206.3,13.7z"/>
		<path class="st2" d="M454.8,70h-9.7C448.3,69.5,451.5,69.5,454.8,70z"/>
		<path class="st25" d="M168.1,42.3L168.1,42.3l-1.2,0v-6.4h0.6C167.7,38.1,167.9,40.2,168.1,42.3z"/>
		<path class="st2" d="M221.7,70H212C215.3,69.5,218.5,69.5,221.7,70z"/>
		<path class="st26" d="M206.3,13.7v4.7h-0.9v-0.2c0-1.5,0-3,0-4.6H206.3z"/>
		<path class="st2" d="M615.9,125.2c0,0.1,0,0.2-0.1,0.2c-0.2-2.6,0-5.3,0.4-7.9c0-0.2,0-0.5,0.1-0.7c0,0.1,0,0.1,0,0.2
			C616.2,119.8,616.7,122.5,615.9,125.2z"/>
		<path class="st2" d="M58.9,128C58.8,128,58.8,128,58.9,128c-0.5,0.1-1,0.2-1.5,0.3c-1.7,0.4-3.3,0.7-4.9,0c-0.5-0.2-1-0.6-1.5-1.1
			C53.5,129,56.2,127.8,58.9,128L58.9,128z"/>
		<path class="st2" d="M50.4,110.8c-0.1-0.2-0.2-0.5-0.2-0.7c-0.6-2.3-0.2-4.6-0.2-6.8c0-0.2,0-0.4,0-0.6
			C50.6,105.4,50.4,108.1,50.4,110.8z"/>
		<path class="st2" d="M50.9,123.4c-0.1-0.2-0.2-0.5-0.2-0.7c-0.6-2.3-0.2-4.6-0.2-6.9c0-0.2,0-0.4,0-0.5
			C50.9,117.9,51.1,120.6,50.9,123.4z"/>
		<path class="st2" d="M615.8,127.8c0,0-0.1,0-0.1,0.1c-2.4,1.1-5.3,1.2-7.7,0c0,0,0.1,0,0.2,0C610.6,128.3,613.2,128.3,615.8,127.8
			z"/>
		<path class="st4" d="M75.1,64.9v59.4h-0.5V68.7c0-0.2,0-0.4,0-0.6C74.5,67,74.5,65.9,75.1,64.9L75.1,64.9z"/>
		<path class="st14" d="M161.2,80v2.8c0,6,0,12-0.2,18c0,1.3-0.1,2.6-0.1,4c-0.1,1.7-0.1,3.5-0.3,5.2V77.8h0
			C161,78.5,161.2,79.2,161.2,80z"/>
		<path class="st9" d="M94.2,114.4c-0.4-6.3,0.2-12.7-0.4-18.7C94.7,96.9,95.1,108.4,94.2,114.4z"/>
		<path class="st27" d="M501.4,42.8L501.4,42.8L501.4,42.8l0,33.4h-0.5V44.9C500.8,44.2,500.5,43.4,501.4,42.8
			C501.3,42.9,501.3,42.9,501.4,42.8C501.3,42.9,501.3,42.9,501.4,42.8C501.4,42.8,501.4,42.8,501.4,42.8z"/>
		<path class="st28" d="M667.2,72.6v46c0,0.3-0.1,0.6-0.3,0.8l0,0c-0.1,0.1-0.1,0.1-0.2,0.2V70.1h0c0,0,0,0,0,0.1
			C667.1,70.9,667.3,71.8,667.2,72.6z"/>
		<path class="st10" d="M633,106.1c-0.2,0.1-0.4,0.2-0.6,0.2h0c-0.7,0.2-1.3,0.2-2,0.2c0,0,0,0,0,0c-1.1,0-2.2,0-3,0.8
			c-0.7,0.8-0.7,1.9-0.6,3c0,0,0,0,0,0c0,0.6,0,1.3-0.2,1.9c0,0,0,0,0,0c-0.1,0.2-0.1,0.4-0.2,0.6v-6.7H633z"/>
		<path class="st8" d="M33.9,106.3c7.1-0.3,7.1-0.3,6.4,6.4c-0.1-0.1-0.2-0.2-0.3-0.3c-0.4-1.8,0.8-4.1-0.9-5.4
			C37.6,106,35.5,107,33.9,106.3z"/>
	</g>
</g>
</svg>
