<svg xmlns="http://www.w3.org/2000/svg" viewBox="0 0 81.7 81.7"><defs><style>.cls-1{fill:#121212;}.cls-2{fill:#8a8a8a;}.cls-3{fill:#999;}.cls-4{fill:none;stroke:#999;stroke-miterlimit:10;}</style></defs><title>Asset 1</title><g id="Layer_2" data-name="Layer 2"><g id="Layer_1-2" data-name="Layer 1"><circle class="cls-1" cx="40.85" cy="40.85" r="40.85"/><path class="cls-2" d="M40.85,9.53A31.32,31.32,0,1,0,72.17,40.85,31.32,31.32,0,0,0,40.85,9.53Zm0,53.28a22,22,0,1,1,22-22A22,22,0,0,1,40.85,62.81Z"/><path class="cls-3" d="M40.85,14.47A26.39,26.39,0,1,0,67.23,40.85,26.38,26.38,0,0,0,40.85,14.47Zm0,48.34a22,22,0,1,1,22-22A22,22,0,0,1,40.85,62.81Z"/><circle class="cls-2" cx="40.85" cy="40.85" r="12.77"/><circle class="cls-3" cx="40.85" cy="40.85" r="6.13"/><line class="cls-4" x1="40.85" y1="17.28" x2="40.85" y2="65.02"/><line class="cls-4" x1="16.98" y1="40.85" x2="64.72" y2="40.85"/><line class="cls-4" x1="24.15" y1="24.15" x2="57.55" y2="57.55"/><line class="cls-4" x1="58" y1="23.7" x2="23.7" y2="58"/></g></g></svg>